<mxfile host="app.diagrams.net" modified="2023-10-13T01:47:47.496Z" agent="Mozilla/5.0 (Macintosh; Intel Mac OS X 10_15_7) AppleWebKit/537.36 (KHTML, like Gecko) Chrome/117.0.0.0 Safari/537.36" etag="0DiIBAK9gHpl7Vs75BO0" version="22.0.4" type="device" pages="2">
  <diagram name="페이지-1" id="h6cRsDsz0Vlh9eMS3x78">
    <mxGraphModel dx="1194" dy="532" grid="1" gridSize="10" guides="1" tooltips="1" connect="1" arrows="1" fold="1" page="0" pageScale="1" pageWidth="827" pageHeight="1169" math="0" shadow="0">
      <root>
        <mxCell id="0" />
        <mxCell id="1" parent="0" />
        <mxCell id="yLoltepJMA7_gPft0LK7-1" value="&lt;b style=&quot;font-weight:normal;&quot; id=&quot;docs-internal-guid-f66bfbdf-7fff-c250-3b74-2aeafc4c4101&quot;&gt;&lt;img width=&quot;59px;&quot; height=&quot;59px;&quot; src=&quot;https://lh5.googleusercontent.com/XypVSEdNwdzdn0ii9BWXSbNGzQVvTug84saBizpWeQTWpqMReOMR2vyu7BlllDCezaZWzzNB6V4fu87Bw9N1kNqinYdNYYAS48EVxeHwJNwZAx3HBVjC8QakR5qvJ0KAoSCK1rCVv2ss3AUYZrcojlWJAQ=s2048&quot;&gt;&lt;/b&gt;" style="text;whiteSpace=wrap;html=1;" parent="1" vertex="1">
          <mxGeometry x="20" y="120" width="70" height="80" as="geometry" />
        </mxCell>
        <mxCell id="yLoltepJMA7_gPft0LK7-2" value="&lt;b style=&quot;font-weight:normal;&quot; id=&quot;docs-internal-guid-fa3fadf4-7fff-9c56-3526-bcd42fe21457&quot;&gt;&lt;img width=&quot;59px;&quot; height=&quot;59px;&quot; src=&quot;https://lh6.googleusercontent.com/od5neSrXnaOcXsl11J881v2r0W7JWklttRZdjizCn0sGjfFzn81AyNRB_TQj4VqpKt6prd_7dh-D1RxGfeU5XXXjOp996IoLbTAnVF0rSdDHDZi7hsd7dzmt48pRln4RwqPgxwA9MEt4MJ4qOTO0KJ1UKA=s2048&quot;&gt;&lt;/b&gt;" style="text;whiteSpace=wrap;html=1;" parent="1" vertex="1">
          <mxGeometry x="20" y="200" width="90" height="90" as="geometry" />
        </mxCell>
        <mxCell id="yLoltepJMA7_gPft0LK7-13" value="" style="group" parent="1" vertex="1" connectable="0">
          <mxGeometry x="200" y="100" width="220" height="140" as="geometry" />
        </mxCell>
        <mxCell id="yLoltepJMA7_gPft0LK7-14" value="" style="rounded=0;whiteSpace=wrap;html=1;" parent="yLoltepJMA7_gPft0LK7-13" vertex="1">
          <mxGeometry width="220" height="140" as="geometry" />
        </mxCell>
        <mxCell id="yLoltepJMA7_gPft0LK7-15" value="AWS Cloud" style="text;html=1;strokeColor=none;fillColor=none;align=center;verticalAlign=middle;whiteSpace=wrap;rounded=0;" parent="yLoltepJMA7_gPft0LK7-13" vertex="1">
          <mxGeometry x="30" width="70" height="30" as="geometry" />
        </mxCell>
        <mxCell id="yLoltepJMA7_gPft0LK7-16" value="" style="shape=image;verticalLabelPosition=bottom;labelBackgroundColor=default;verticalAlign=top;aspect=fixed;imageAspect=0;image=https://pbs.twimg.com/profile_images/1641476962362302464/K8lb6OtN_400x400.jpg;" parent="yLoltepJMA7_gPft0LK7-13" vertex="1">
          <mxGeometry width="30" height="30" as="geometry" />
        </mxCell>
        <mxCell id="yLoltepJMA7_gPft0LK7-31" value="" style="rounded=0;whiteSpace=wrap;html=1;strokeColor=#e66f08;" parent="1" vertex="1">
          <mxGeometry x="200" y="290" width="220" height="140" as="geometry" />
        </mxCell>
        <mxCell id="yLoltepJMA7_gPft0LK7-32" value="EC2" style="text;html=1;strokeColor=none;fillColor=none;align=center;verticalAlign=middle;whiteSpace=wrap;rounded=0;" parent="1" vertex="1">
          <mxGeometry x="230" y="290" width="40" height="30" as="geometry" />
        </mxCell>
        <mxCell id="yLoltepJMA7_gPft0LK7-25" value="" style="shape=image;verticalLabelPosition=bottom;labelBackgroundColor=default;verticalAlign=top;aspect=fixed;imageAspect=0;image=data:image/jpeg,/9j/4AAQSkZJRgABAQAAAQABAAD/2wCEAAkGBw0PDQ0NDQ0NDQ8NEBAQDQ0NEA8QDg0NFxIYFhURFxUaHCgsGBolGxUXITYiJSkrLjMuFyAzODMsNygtLisBCgoKDg0OFw8PGC0gFSArKysrKy8rKysrKystLSsrKy0rKzcrKzctLSstKysrLS0rLS0rKy0rKysrKy0rLS0rLf/AABEIAOEA4QMBIgACEQEDEQH/xAAbAAADAAMBAQAAAAAAAAAAAAAAAQIFBgcEA//EAEkQAAICAQEDAg8OBQIHAAAAAAABAgMEEQUGEiExExUWIjQ1QVFSU3FzkpPSB0RhcoGDkaGxsrPCw+IyVHTB0TNCFCMlY4Lh8P/EABoBAAMBAQEBAAAAAAAAAAAAAAABBQIEAwb/xAA3EQACAQIDAwkGBgMBAAAAAAAAAQIDEQQhMRITQQUyUWFygZHB0RQVUnGh8CIzU7HS8UJU4YL/2gAMAwEAAhEDEQA/APSUQM+HPsyiiQEBYyRmQGAAIChkFCAZRIGWgLAQxAMYgEAyiQMtAWMkYgGUSAgKGIDIDKJGIChkjEAwEArAYYCSim0AyiBiAookBAWMkZkBgACAoZBQgGUiQMtAWMlDMgMZIxAMokBMCxkjMgMogYgLAQxAMZIxAUAgEBhQACoBQElGWgGUSAgKKJAQFjJGZAYAAgK1N7wN2sWqqMshKU2k5SlJqEZPuLlX0mhd86Nvl2Db5a/voqcmwgoVqs4qTgk0n/6flqTsfKblSpxk47Ts7dy8w6V7M8Cj1n7h9K9meBR6z9xzoY/ekP0I/T+Iewz/AFpffedE6V7M8Cj1n7g6VbM8Cn1n7jngfSL3rD9CP0/iHsE/1pffedD6V7M8Cj1n7h9K9m+BT6z9xz0YvetP/Xj9P4h7BP8AWl9950HpZs3wafWfuDpXs3wKfWfuOfgL3rT/ANeP0/iHsE/1pffedA6WbN8Gn1n7jx7X2BjumdlC4JRi5rSTcJxS1a5+93jTTf8AZ3a2PmJ/YzrwlajjdunKjGKSvla/7Kxz16VTDbE1Vbztnp+5oRRKA+YWhaZQxAIQwABAYYZIyoAwAYgGBJRloBlEDEBRRJ7dm7KyMnj6BBS6Hw8fXRjprrpzv4GOMJTezFXfUZlKMVtSdkeVDKysedVkqrFwzg9JLVPR6a86Pts7Z92RKUKIccoria4ox0jrp3X8IlTk5bCT2ujiDnFR2m8ungeZ8x0ffLsG3y1/fRoGdhW0WdCujpNJPTVS5HzcqLw8e/Imqq+Kcmm1Fy0TS5e6zpw9aVKNWjsNymtn5Oz4W6+o5q1KNV06u0lGDv1PTjfqPOM9G0NnXY8oxvhwOS1S4oy1WuncZ9Nn7LyMhSdMFJQaUuujHRvm52cu5qOewova6LO/TodG9hs7e0tnpvl4njKKyKJ1zlXYtJQeklqno/Kj7bP2ddkSlGmHE4rWS4ox0Xys81Tm5bCV5dHEbnFR2m/w9PA+AH2zMSyix1Wx4ZpJtap8jWq5UfEzKLi2pKzQ01JXWgxiAyMZ0HZva2PmJ/Yznx0HZva2PmJ/YyzyJz6nZJvKXMp9pfszQUMlDIS0RTYyiQARQhAZsBhiiQKjQFjJGIBgAhAWBJ98aidklCuEpzeukYrVvRasWy27IG0ldnzN19znmy/mfzmD2du7lWXVQtotqrlJccnFrhjzvl7/AHPlN8hHCw4qKdGNx83E1GVnD32+WWnF9ZU5Ows1UVaf4Yxvrle6a8yZyhiIOm6Uc5S6M9Gn5Ggb0dn5Px19iMr7n3ZF3mvzRNjst2VJuc5YEpS5ZSl0ByflbLpytmVtyrswq21o3W6Ytrvao6aeBUMRv3UWrdvnfr6zwqYpyobrdyvZK9ssjUt9+zZfEh9jJ3K7Nr+JZ9026/I2XN8dk8GyWmnFN0ylp3tWFN+y4PjhLBhJf7odBjJLyoPYV7Tv94rbV7f9uHtT9n3W7le1vpY13f8A7Io82/vM9nuffwZHxq/sZmLsrZtjTsswrGlonZKmTS73KOnM2fXqq7cOvi5+hyqjr5dD1jhorFvEbas75d1unyPKVaTwqobuV8s7Za3NF3h7NyfOMzG4P+tkebj94z07NlyblN4EpPllKXQHJvvtn0pytnVtuuzDg2tG63VFtd7kPGlgFTxO/dRat2+d+vrPWrinOhut3K9ktPvoNR3y7Ns+LD7qMKjom0NmY2ZVKcOhyk0+C+vRviXItWv4lyaaGkrYmZ/LW+gydyjg6qrOcVtRk21ZN+P3n4nXgsTCVJQeUo2TvkeID65OLbVJRtrlW2tUprRtd/6j5EuUXF2aszuTTV1oM6Ds3tavMWfYznx0DZvaxf09n2Msci8+p2SdynzIdpeZoCKIQyCtEU3qWMkYxAAwEBhRkjKgDKJAy0BYyRmQAyGwtoLGya75Rc1Hi61NJvWLX9zwFQi29IpyfeSbZqEnCSlHVZmZxUouMtGdD2ZvdXkXV0KmcHY2lJyi0tIt/wBjwe6N7z8l/wCmYXdXHsWdjt1zSUpatxkkutkZr3SPefz/AOmVpV6lbA1JVNbpaWyvF+ZKjQp0cbTjT02W+nhI0wZIyHZFgookBWQFgIZmyAYAArIVzo+53YFP/n+JIx/VtV4iz0omQ3N7Ap8tn4kjn6xrdP8ATn6Mv8F+via1DD4fdcY55X0UbfuyNRw1KtWr7zhLptxkZDeDakcu2E4wcFGCjpJp6vib1+sxoThKPJKMo/BJNchJCrVJVJuc+c9eBWpwjCKjHRFnQdm9rF/T2fYznh0PZvayP9PZ9jKvIvPqdk4OU+ZDtLzOfoZCKIa0RTeoyiQE0IoBAKwGHAQyoAxkjEAx6/8A2p0Pc7Z9FOHHJlFOyxTnKxrWUYJvSMe9yLXk7vyHr6stn+Nl6qz/AAd8cBHYjKrVUG87P+0TpY+W3KNOk5KLtdf0zmXEZTdzPrx8uq+zi4IqevCtXywaXJ8pvPVjs/xs/VWf4Oe4uJZk39CpSlKxycU3wppay538CPKpRVGcHRqKcr8LdVuL1PWFV1oTVWDhG3Hoad+C0OiYG9OJfbCmvovHY2o8UUlyJvn1+Aw/uke8/n/0z4bA3ZzKcum6yMFCuUnJqcW9HFrm+U+/uk+8/Jf+md9apWng6jrK0rrg1leJwUqdGGMgqLurPjfO0jTAJKIDRbGUQMQFFEgICxkjMgdH3N7Aq8tn4kj5dWOF/wB70F/k+m5va+ry2fiSNWW6Wd4EPWRPpJVsTTw9D2eN7xV8m+EbeZBhSoTr1t87Wk7Z24u/kLefadWVdCdXFwxrUXxrR68Tf9zDno2ls67GmoWpKUo6pJqXW6tf2PMfP4mdSdWUqitPj4ehZoRhGnFU3ePAZ0PZvatf09n2M54dE2Z2rX9PZ9jKXI3Pqdk4uU+ZDtLzOeoZKKIa0RTeoxiABDAAM2AwwyRlRgUAhiA6hsHtRDzFv5jmMeZHTtg9p6/MW/mOYLmRR5Q5tHs+hOwP5lfteoz27Iz5Y18L4RjKUeLSMtdHrFrueU8R98XGstmq6oOc5a6RjzvRav6kTY7SknHW+R3zUXFqWnH5G67F3vuyMmqiVNUY2Npyi5NrSLf9j5+6T7z+f/TMfu1sXMrzaLLMeyEIyk5SemiXDJd/4TIe6V7y+f8A0ytKdWWCqOre91qrcY9SJUYUoY2mqVrbL0d+EjSwACKVygJKMtAMogYgKKJAQHSdzX/0+ny2fiSMF1b5HiKvpmZ7cvsCny2fiSNJWwM7+Ws+j/2XK9TEQoYfcX5udlfhG3B9ZGoU6M61fe252V3bjK/ENs7Vnl2QnOEYOMOBKOujWrevL5TZsTdDHnVXN2XJzhGTScNE2k+8afl4dtMlC6uVcmuJKWmrjrpr9R9o7Vykklk3pJaJK6aSXe01J9KvCNScsVDak7ePyyO+pRk4Rjh5bKXfl9TcOovF8bf9NfsnuzlXiYE4OTcY1SrjxacU5NNJfSzQem+X/NZHrbP8nyyMqyxp2WWWNcznKUmvpZ0+8cPTjLcUrSatwt35s5ngqtRx3tS8U76HzRSJAiWKZYCQxAAAIQGHQyRlQChkjMsDqWwO08PMW/mOXrmR1DYHaevzFv5jly5ihyhzaPZ9CdgPzK/a9Sj37D2gsbIrvcHPh4utT4ddYuPP8pjyq65SajCMpN80Ypyb+RE6MnGSlHVHfOKlFxlozouyt8I5GRVjrHlDoja4pTT00i3zafAeH3Svefz/AOmYbdTDujn48pU2xSlLWUq5pLrH3WjM+6X7y+f/AEyrKrUqYKo6ut1wtxj8iVGjTpY2mqemy+N+EjSxkjIxXGAAICgJKMtAMZIxAdL3L7Aq+NZ+JIxfV1H+Vl61eyZTcztfT5bPxJHP1gZGi/5F3q5f4LlevWpUKG64xzyvwjbg+sjUMPSq1q+8V7Syza4yPbvBtdZVkLFW6+GCho5cWvXN683wmNCyqcHpOEoN8qU4uLa7/KIiVZyqTc58568PoVqcIwiow5q0GAAeRsoZBQgGUSBloCgEAgMMMQFMChkgIDquwO09fmLfzHLVzI6jsDtPX5i38xyyPMihj+ZR7PoTsB+ZX7XqWZTdzaEMbLqvsU5Rip6qCTlywaWmrXfMWBOhJwkpLVZnfOKnFxejVvE6fgb4Yl9sKYRvUrHwx44w4ddO61Jk73bCuzXj9ClXHoXROLokpR14uDTTSL8FnNYyaaabTTTTT0aa5mmdG3J2xkZSvV8oy6D0JRkoqMnxcWuunxV3CvQxXtV6FZZvS2WmfkSMRhXhWq9HSOqfXl5mD6hc3xuL6dnsB1CZnjcX07PYPVtve3LoyrqYRpca5JR4oSctOFPlfF8J7t0t4cjLusrtVSjGvjXDFxevEl3W++ZjRwUqm6Se1e3E3KtjI0969nZtcxHULmeNxvSs9gfULl+NxvSs9gyG8+82Ti5LqrVXAoQl18W3q+fl1Qt2t5snJyo1WqrglGTfBCSeqWq5dWLc4Lebqz2r246hvsZu97+HZtfuPB1DZfjcb0rPYDqGy/G43pWewZjezb9+JbVCpVtTg5Pii5PXi07jR6N0ts35cbnd0P8A5coKPBFx509ddW+8bWGwTq7mz2u/ovqYeJxao778Oz9egwHUPl+NxvTs9gfURmeNxvSs9g++197cqnJupjGlxrm4xcoyb0+HrjIbqbevy7LYWqtKEFJcMWnrrp3WzzhRwMqm6Se1e3Hh39RudbGRp717Oza/iZTYOHPGxIVXODdfHKUoNuOjk5c7S7jMf1bYfgZHo1+2YjfLbF6usxYyUa+GPEorrpJx1ab7xqgsTyhKhJUaCyjk79WXTw+osPgVVTq1s3LNW68zN7z7VryroTqU1GNahJWKKevE33G++YgkCNVqSqzc5asqU6cacVCOiLGSM8jYwABAUMgoQDAAFYDClEDKYFDEBkDquwO09fmLfzHK48yOp7v9pq/MW/mOWLmKGP5tHs+hOwH5lftepYyRk0ojNq3H2vjYqyf+Is6H0ToXB1s568PHr/Cnpzo1UZujVdKanHVdPysedakqsHCWj6PnfrMjt/KruzL7apcULJJwlo46rhS5ny9wyO5e0qMa+2eRPocZV8MXwzlrLiT00in3jXRhGtKNXerW7fj/AGKVGMqW6fNtYze9ufTkZbtonxwcIJS4ZR5VrrySSFupm1Y+XG26XBBRmnLhlLla5ORJmGAN/Lfb7/K9+r77w3Md1uv8bW6/vuNj3z2nj5NtM8efRIxrcZPhlHR8WunXJHq3L2xjY0b1kWdDc5QcetnLVJPX+FPvnw3Y3bry6p2TtlW42cCUVFprhT15fKYPPx1VfdUm2qrJwTfO1GTjr9R7ynWpzWLcV+Lw0tpe/wBTmVOjUg8Km/w69Ot+i30PvtvIhbl5Ftb4oTk5Rlo1qvIzK7mbTox7LpZE+BSioxfDKXE+LX/ama6I5IVpQq71Wvdvqz/s6Z0Yzp7p3ta334GZ3ozar8uy2mXHCUYJS0lHVqOj5GkYkko86s3Um5vV5m6cFCKgtErDKIGeZoookBAWMkZkBgACAYCAQGGGICoBQyRmWB1bd/tNX5i78xytcx0LcvbmM8SOJdZXXOvijpZJRjZXJtrRvu8umnPyGS6V7G8HD9bH2itUoe006bjJKyt+3oRqdf2arVU4N3d1ZfM5YUdR6V7G8HD9bH2h9LNjeDh+tj7R4e7ZfGj395w+CXgvU5cM6h0r2N4OH6yPtB0s2N4OH62PtC92T+NB7zh8EvBepzADp/SzY3g4frI+0PpZsfwcP1kfaF7sn8aD3nD4JeC9TmAzpvS3Y/g4frI+0HS3Y/g4frI+0HuufxoPecPgl4L1PL7nPYt3nn9yJpe3Ozcvz934kjof/HbNwq5OFlEItuThVOMpzlppyRT5XzHNMy92222taOyyU2u85SctPrDHqMKFOjdOS/oWBbnWqVdlqLtqfMZIyQUxgAABQElGWgGUQMQFFEgICxkjMsBgIBAYYZBRUAYxAICh6eUkZlpDKAAMbK6AuVoh6IkBbK6AuVoPRCGLZXQFx6eUeghmdldAXGhkjC1hDKJATQFjJGIBgAxAMCSjLQDKIGICiiQEBQgAQGFKIGU2gLGSMQDGIBAUUQMyBQxAZAoZIwAoZIzNgKAQCAoZIxAMokDLQFjJGIBgAhAWBJRloBlEDEBQCAQGGQwApsBjADIDAAEAykACYDGACAEMAMgUAAZYDQ0ACACgAQDQAAmAxoAEAwADIDQ0ACAoAAyAAAAI/9k=;" parent="1" vertex="1">
          <mxGeometry x="200" y="290" width="30" height="30" as="geometry" />
        </mxCell>
        <mxCell id="yLoltepJMA7_gPft0LK7-34" value="" style="shape=image;verticalLabelPosition=bottom;labelBackgroundColor=default;verticalAlign=top;imageAspect=0;image=https://d2908q01vomqb2.cloudfront.net/da4b9237bacccdf19c0760cab7aec4a8359010b0/2020/08/12/Screen-Shot-2020-08-12-at-9.51.17-AM.png;" parent="1" vertex="1">
          <mxGeometry x="20" y="300" width="60" height="60" as="geometry" />
        </mxCell>
        <mxCell id="yLoltepJMA7_gPft0LK7-35" value="" style="shape=image;verticalLabelPosition=bottom;labelBackgroundColor=default;verticalAlign=top;imageAspect=0;image=https://res.cloudinary.com/hy4kyit2a/f_auto,fl_lossy,q_70/learn/modules/aws-application-deployment-and-monitoring/learn-about-the-content-delivery-network/images/856bc735447c51bc6f4eac52116ad35c_1-a-3-f-3-ce-9-3125-48-ea-807-f-1969-e-41-f-9-a-2-c.png;" parent="1" vertex="1">
          <mxGeometry x="20" y="380" width="60" height="60" as="geometry" />
        </mxCell>
        <mxCell id="yLoltepJMA7_gPft0LK7-36" value="" style="shape=image;verticalLabelPosition=bottom;labelBackgroundColor=default;verticalAlign=top;imageAspect=0;image=https://cdn.worldvectorlogo.com/logos/amazon-s3-simple-storage-service.svg;" parent="1" vertex="1">
          <mxGeometry x="100" y="300" width="60" height="60" as="geometry" />
        </mxCell>
        <mxCell id="yLoltepJMA7_gPft0LK7-6" value="" style="rounded=0;whiteSpace=wrap;html=1;strokeColor=#8351e1;" parent="1" vertex="1">
          <mxGeometry x="500" y="100" width="220" height="140" as="geometry" />
        </mxCell>
        <mxCell id="yLoltepJMA7_gPft0LK7-8" value="VPC" style="text;html=1;strokeColor=none;fillColor=none;align=center;verticalAlign=middle;whiteSpace=wrap;rounded=0;" parent="1" vertex="1">
          <mxGeometry x="530" y="100" width="40" height="30" as="geometry" />
        </mxCell>
        <mxCell id="yLoltepJMA7_gPft0LK7-19" value="" style="shape=image;verticalLabelPosition=bottom;labelBackgroundColor=default;verticalAlign=top;aspect=fixed;imageAspect=0;image=https://res.cloudinary.com/hy4kyit2a/f_auto,fl_lossy,q_70/learn/modules/core-aws-services/connect-resources-with-aws-networking/images/aa91e6b1882061229f9220f4160052dc_65-b-47835-0-f-72-4801-975-a-5-f-9-d-419-e-012-c.png;" parent="1" vertex="1">
          <mxGeometry x="500" y="100" width="30" height="30" as="geometry" />
        </mxCell>
        <mxCell id="yLoltepJMA7_gPft0LK7-38" value="" style="rounded=0;whiteSpace=wrap;html=1;strokeColor=#1f97ee;" parent="1" vertex="1">
          <mxGeometry x="500" y="290" width="220" height="140" as="geometry" />
        </mxCell>
        <mxCell id="yLoltepJMA7_gPft0LK7-41" value="" style="shape=image;verticalLabelPosition=bottom;labelBackgroundColor=default;verticalAlign=top;imageAspect=0;image=https://static-00.iconduck.com/assets.00/docker-icon-512x438-ga1hb37h.png;" parent="1" vertex="1">
          <mxGeometry x="500" y="290" width="30" height="30" as="geometry" />
        </mxCell>
        <mxCell id="yLoltepJMA7_gPft0LK7-47" value="" style="rounded=0;whiteSpace=wrap;html=1;strokeColor=#6db33d;" parent="1" vertex="1">
          <mxGeometry x="200" y="500" width="220" height="140" as="geometry" />
        </mxCell>
        <mxCell id="yLoltepJMA7_gPft0LK7-55" value="" style="shape=image;verticalLabelPosition=bottom;labelBackgroundColor=default;verticalAlign=top;aspect=fixed;imageAspect=0;image=https://miro.medium.com/v2/resize:fit:700/1*hsoJdzT9TbYrNCRQW_z9Bw.png;" parent="1" vertex="1">
          <mxGeometry x="200" y="500" width="70" height="30" as="geometry" />
        </mxCell>
        <mxCell id="yLoltepJMA7_gPft0LK7-57" value="" style="rounded=0;whiteSpace=wrap;html=1;strokeColor=#238813;" parent="1" vertex="1">
          <mxGeometry x="490" y="500" width="220" height="140" as="geometry" />
        </mxCell>
        <mxCell id="yLoltepJMA7_gPft0LK7-56" value="" style="shape=image;verticalLabelPosition=bottom;labelBackgroundColor=default;verticalAlign=top;imageAspect=0;image=https://www.mydraw.com/NIMG.axd?i=Shape-Libraries/Cloud/Amazon-Web-Services/AWS-Architecture/Group-Icons/VPC-subnet-public-light-bg.png;" parent="1" vertex="1">
          <mxGeometry x="487" y="500" width="30" height="30" as="geometry" />
        </mxCell>
        <mxCell id="yLoltepJMA7_gPft0LK7-58" value="Public subnet" style="text;html=1;strokeColor=none;fillColor=none;align=center;verticalAlign=middle;whiteSpace=wrap;rounded=0;" parent="1" vertex="1">
          <mxGeometry x="510" y="500" width="90" height="30" as="geometry" />
        </mxCell>
        <mxCell id="TdYsnk3otMklXNJGHKcp-2" value="" style="shape=image;verticalLabelPosition=bottom;labelBackgroundColor=default;verticalAlign=top;imageAspect=0;image=data:image/png,iVBORw0KGgoAAAANSUhEUgAAAgAAAAIACAYAAAD0eNT6AAAMP2lDQ1BJQ0MgUHJvZmlsZQAASImVVwdYU8kWnluSkEBoAQSkhN4EkRpASggt9N5EJSQBQokxEFTs6KKCaxcL2NBVEQUrzYIidhbF3hcLKsq6WLArb1JA133le/N9c+e//5z5z5lz5965A4DacY5IlIeqA5AvLBTHBvvTk1NS6aSngAhQQAZmwI7DLRAxo6PDASxD7d/Lu+sAkbZX7KVa/+z/r0WDxy/gAoBEQ5zBK+DmQ3wQALyKKxIXAkCU8mZTCkVSDCvQEsMAIV4oxVlyXCXFGXK8V2YTH8uCuB0AJRUOR5wFgOolyNOLuFlQQ7UfYkchTyAEQI0OsU9+/iQexOkQW0MbEcRSfUbGDzpZf9PMGNbkcLKGsXwusqIUICgQ5XGm/Z/p+N8lP08y5MMSVpVscUisdM4wbzdzJ4VJsQrEfcKMyCiINSH+IODJ7CFGKdmSkAS5PWrALWDBnAEdiB15nIAwiA0gDhLmRYYr+IxMQRAbYrhC0KmCQnY8xLoQL+QXBMYpbDaLJ8UqfKENmWIWU8Gf5YhlfqW+7ktyE5gK/dfZfLZCH1Mtzo5PgpgCsXmRIDESYlWIHQpy48IUNmOLs1mRQzZiSaw0fnOIY/nCYH+5PlaUKQ6KVdiX5RcMzRfbnC1gRyrw/sLs+BB5frB2LkcWP5wLdokvZCYM6fALksOH5sLjBwTK54494wsT4hQ6H0SF/rHysThFlBetsMdN+XnBUt4UYpeCojjFWDyxEC5IuT6eKSqMjpfHiRfncEKj5fHgy0A4YIEAQAcSWDPAJJADBJ19jX3wTt4TBDhADLIAH9grmKERSbIeIbzGgWLwJ0R8UDA8zl/WywdFkP86zMqv9iBT1lskG5ELnkCcD8JAHryXyEYJh70lgseQEfzDOwdWLow3D1Zp/7/nh9jvDBMy4QpGMuSRrjZkSQwkBhBDiEFEG1wf98G98HB49YPVCWfgHkPz+G5PeELoIjwkXCN0E25NFJSIf4oyAnRD/SBFLjJ+zAVuCTVdcX/cG6pDZVwH1wf2uAv0w8R9oWdXyLIUcUuzQv9J+28z+OFpKOzIjmSUPILsR7b+eaSqrarrsIo01z/mRx5rxnC+WcM9P/tn/ZB9HmzDfrbEFmIHsDPYCewcdgRrBHSsFWvCOrCjUjy8uh7LVteQt1hZPLlQR/APf0NPVprJAsdax17HL/K+Qv5U6TcasCaJpokFWdmFdCbcEfh0tpDrMIru5OjkDIB0f5F/vt7EyPYNRKfjOzfvDwC8WwcHBw9/50JbAdjnDl//5u+cNQNuHcoAnG3mSsRFcg6XXgjwK6EG3zQ9YAR3L2s4HyfgBryAHwgEoSAKxIMUMAFGnw3XuRhMATPAXFAKysEysBqsB5vAVrAT7AH7QSM4Ak6A0+ACuASugTtw9fSAF6AfvAOfEQQhIVSEhughxogFYoc4IQzEBwlEwpFYJAVJR7IQISJBZiDzkHJkBbIe2YLUIPuQZuQEcg7pQm4hD5Be5DXyCcVQFVQLNUQt0dEoA2WiYWg8Oh7NQiejxeh8dAm6Fq1Gd6MN6An0AnoN7UZfoAMYwJQxHcwEs8cYGAuLwlKxTEyMzcLKsAqsGqvDWuBzvoJ1Y33YR5yI03A6bg9XcAiegHPxyfgsfDG+Ht+JN+Dt+BX8Ad6PfyNQCQYEO4IngU1IJmQRphBKCRWE7YRDhFPwXeohvCMSiTpEK6I7fBdTiDnE6cTFxA3EeuJxYhfxEXGARCLpkexI3qQoEodUSColrSPtJrWSLpN6SB+UlJWMlZyUgpRSlYRKJUoVSruUjildVnqq9JmsTrYge5KjyDzyNPJS8jZyC/kiuYf8maJBsaJ4U+IpOZS5lLWUOsopyl3KG2VlZVNlD+UYZYHyHOW1ynuVzyo/UP6ooqliq8JSSVORqCxR2aFyXOWWyhsqlWpJ9aOmUgupS6g11JPU+9QPqjRVB1W2Kk91tmqlaoPqZdWXamQ1CzWm2gS1YrUKtQNqF9X61MnqluosdY76LPVK9Wb1G+oDGjSNMRpRGvkaizV2aZzTeKZJ0rTUDNTkac7X3Kp5UvMRDaOZ0Vg0Lm0ebRvtFK1Hi6hlpcXWytEq19qj1anVr62p7aKdqD1Vu1L7qHa3DqZjqcPWydNZqrNf57rOpxGGI5gj+CMWjagbcXnEe92Run66fN0y3Xrda7qf9Oh6gXq5esv1GvXu6eP6tvox+lP0N+qf0u8bqTXSayR3ZNnI/SNvG6AGtgaxBtMNthp0GAwYGhkGG4oM1xmeNOwz0jHyM8oxWmV0zKjXmGbsYywwXmXcavycrk1n0vPoa+nt9H4TA5MQE4nJFpNOk8+mVqYJpiWm9ab3zChmDLNMs1VmbWb95sbmEeYzzGvNb1uQLRgW2RZrLM5YvLe0skyyXGDZaPnMSteKbVVsVWt115pq7Ws92bra+qoN0YZhk2uzweaSLWrrapttW2l70Q61c7MT2G2w6xpFGOUxSjiqetQNexV7pn2Rfa39Awcdh3CHEodGh5ejzUenjl4++szob46ujnmO2xzvjNEcEzqmZEzLmNdOtk5cp0qnq85U5yDn2c5Nzq9c7Fz4LhtdbrrSXCNcF7i2uX51c3cTu9W59bqbu6e7V7nfYGgxohmLGWc9CB7+HrM9jnh89HTzLPTc7/mXl71Xrtcur2djrcbyx24b+8jb1JvjvcW724fuk+6z2afb18SX41vt+9DPzI/nt93vKdOGmcPczXzp7+gv9j/k/57lyZrJOh6ABQQHlAV0BmoGJgSuD7wfZBqUFVQb1B/sGjw9+HgIISQsZHnIDbYhm8uuYfeHuofODG0PUwmLC1sf9jDcNlwc3hKBRoRGrIy4G2kRKYxsjAJR7KiVUfeiraInRx+OIcZEx1TGPIkdEzsj9kwcLW5i3K64d/H+8Uvj7yRYJ0gS2hLVEtMSaxLfJwUkrUjqTh6dPDP5Qop+iiClKZWUmpi6PXVgXOC41eN60lzTStOuj7caP3X8uQn6E/ImHJ2oNpEz8UA6IT0pfVf6F04Up5ozkMHOqMro57K4a7gveH68Vbxevjd/Bf9ppnfmisxnWd5ZK7N6s32zK7L7BCzBesGrnJCcTTnvc6Nyd+QO5iXl1ecr5afnNws1hbnC9klGk6ZO6hLZiUpF3ZM9J6+e3C8OE28vQArGFzQVasEf+Q6JteQXyYMin6LKog9TEqccmKoxVTi1Y5rttEXTnhYHFf82HZ/Ond42w2TG3BkPZjJnbpmFzMqY1TbbbPb82T1zgufsnEuZmzv39xLHkhUlb+clzWuZbzh/zvxHvwT/UluqWiouvbHAa8GmhfhCwcLORc6L1i36VsYrO1/uWF5R/mUxd/H5X8f8uvbXwSWZSzqXui3duIy4TLjs+nLf5TtXaKwoXvFoZcTKhlX0VWWr3q6euPpchUvFpjWUNZI13WvD1zatM1+3bN2X9dnrr1X6V9ZXGVQtqnq/gbfh8ka/jXWbDDeVb/q0WbD55pbgLQ3VltUVW4lbi7Y+2Za47cxvjN9qtutvL9/+dYdwR/fO2J3tNe41NbsMdi2tRWsltb2703Zf2hOwp6nOvm5LvU59+V6wV7L3+b70fdf3h+1vO8A4UHfQ4mDVIdqhsgakYVpDf2N2Y3dTSlNXc2hzW4tXy6HDDod3HDE5UnlU++jSY5Rj848Ntha3DhwXHe87kXXiUdvEtjsnk09ebY9p7zwVdurs6aDTJ88wz7Se9T575JznuebzjPONF9wuNHS4dhz63fX3Q51unQ0X3S82XfK41NI1tuvYZd/LJ64EXDl9lX31wrXIa13XE67fvJF2o/sm7+azW3m3Xt0uuv35zpy7hLtl99TvVdw3uF/9h80f9d1u3UcfBDzoeBj38M4j7qMXjwsef+mZ/4T6pOKp8dOaZ07PjvQG9V56Pu55zwvRi899pX9q/Fn10vrlwb/8/uroT+7veSV+Nfh68Ru9NzveurxtG4geuP8u/93n92Uf9D7s/Mj4eOZT0qenn6d8IX1Z+9Xma8u3sG93B/MHB0UcMUf2K4DBimZmAvB6BwDUFABo8HxGGSc//8kKIj+zyhD4T1h+RpQVNwDq4P97TB/8u7kBwN5t8PgF9dXSAIimAhDvAVBn5+E6dFaTnSulhQjPAZuDv2bkZ4B/U+Rnzh/i/rkFUlUX8HP7Lz0YfGATnigUAAAAOGVYSWZNTQAqAAAACAABh2kABAAAAAEAAAAaAAAAAAACoAIABAAAAAEAAAIAoAMABAAAAAEAAAIAAAAAACgwl78AAEAASURBVHgB7J0JnFxFtf9P3e5ZEmJeDBH5h2RmjCEgICAisklAkFUWEWTfVQSeYIBkZhKVQV4yMwmyqSAgssgui4Ao6wMiAiIg8jCGEOLMJESWGGIMySzdt/6/6syEmUz3THffW3fp/vWHMN237z116lunb51bdeqUEr4CJVDXpKtlpGyttUxSaZksjmyqXfmYcmSTtMioBP5BoWrRMkbjmBLZxHVllOPguCudriNrHJEPXS0fQsZqHP9QKVmDc/7jKFmLY2tw3b8ho025srgzIYvfna7eC7SSLIwESIAESCDyBNC/8GWLQO1cvZOkZUetZEd02jugU98aHf5mtsrLJRfOwRqUu9DRskCU/AWOxKuru+SVlU1qda5reJwESIAESKC0CdAB8KF9xzfpkclq2Qkd6054Ct8Jne0OELujD6KtioBjsATOyaso5OWEllfWJeUVjhZYRU7hJEACJBAZAnQAimgKM4yfrpYDHFcOQAc6FcPw2xQhJpKXuCLLMY3wAkYLHu6pkAeXX6hWRFJRKkUCJEACJOCJAB2APPFNbNXjceoRmFc/BB3+wXleFvvTMErwHGIMfo84hfs6ZqoFsa8QK0ACJEACJJAhQAdgCEOYfJUe3fOhHIWn/OMxf78POn5M5Zfxy5XXwOG2dEJuXVqvlpcxCVadBEiABGJPgA5Aliasa9VHIFjuVHR2h2f5mocMAS3zsRLhNqdLbmlrUp2EQgIkQAIkEC8CdAB622v8pXpcZUq+iY7tLDzn18SrGcPT1k3LSixhvAlxAz/raFRLwtOEJZMACZAACRRCoOwdgNoWvbsWOQvR+ycWAo7nDiaAEYEnES9wdXu9um/wtzxCAiRAAiQQJQJl6QCYKH5dJcdjbv+czLK9KLVIaejSjvwHV8sIua5tmlpVGlViLUiABEigtAiUlQOAjn8MOv4LMVx9lpOQsaXVlJGtzXXIj9Dc1qjaIqshFSMBEiCBMiRQFg6AeeKXSjlXEtKINh5Thu0cbpVd6cZoy08RKngJAgY5IhBua7B0EiABEsgQKG0HoEk7dVVyMvLnX4L1exPY5iETwN4FiBOYg5UDV3LlQMhtweJJgATKnkDJOgATW/ReSss1pZSlr2Ss1ZUOV8msjk65XZqQWokvEiABEiCBwAmUnAOwxRw9JZmQK1GxAwOnyQILJfBqSuTMZfXqxUIv5PkkQAIkQALeCJSMA5DJ2rdGWlQC6/j5ihUBDAHcg62Qp71dr5bFSnEqSwIkQAIxJlASDkBdiz4WCXyuRAKfwLfajXHbR0p1s2Uxpmtmta2Tn3JaIFJNQ2VIgARKlECsHQCzQQ+2sb0RaXv3L9H2KbtqYTTgJZ2S05bOUq+XXeVZYRIgARIIkEBsN7epa9bfQfjYm+z8A7SWAIqCQe6cSMr/1czVPwygOBZBAiRAAmVLIHYjAGauP/Wh/ArD/YeVbauVScWRsOnZlJLjGBtQJg3OapIACQRKIFYOQE2L3hOpe38NQpsHSomFhUcAuQMQIHjy0gb1QHhKsGQSIAESKD0CsXEA6uboi5HJrySHhbEZ0VswrTYEMn6AOfB/Yxj839rBX5M4R8lK8xfpdFchm94mOO+/cGwMYh9G4/3HMQUyBnn3x+gEPqdlHDbj2Q6jI9WlZ6rYV6BenVmC9WKVSIAESCAUApF3AMY36ZEVI+ReKBrrdf3alRXo6Bdh69w38P4NRLy/gQ57YVu3LEbUO5bD+/faolVPSDiyNcqZknBlKzgTUxAvsQ2ciwkoN7ZxHyD0QndCDl1+oVrhHy1KIgESIIHyJBBpB6CmWU/CkP/v8ZQ7JW7Ng2VtS9DZP4On9qedtMyPwmY4n2jSo0ZWyl7Qayp47o20vDvBIUjGiS24voNcD4e0z1CvxElv6koCJEACUSMQWQdgYrPePyGY73cyQ91R4zZIHzOMD5hPolP9AzrVJ9pmqHcGnRSxA2Z0pbJK9oLOU+Go7I1Rg10jpmJOdaDzSR0N6tacJ/ALEiABEiCBIQlE0gGoa9Xfw5PevKg/nULHBYhLuMtNy+3LGtXiIUnH4MtMNsUP5Sg4A8cjHmFq1PljZKilba3MYuKgGBgXVSQBEogcgWg5ANi9r3aE/AJKnRY5Uh8p1I4O/w4nKXfhKf/Vjw6X1rtPztObVafkGxjZOA412xXOQCRjB+CE/Q67C369rQmbDfNFAiRAAiSQN4HIOACZ9f1r5SE81e2Vt/YBnYgOfyW6v9sA6872BvVcQMVGppjxLbomqeEIKDkZMRnbREaxjxR5FbodFIdpl49U5jsSIAESCJdAJByACZfpsckueQqd7Pbh4hhYOqLo38aSu8vSnfLz5U1q7cBvy/NT7Rx9MNqpEcsN94wUAWwx3OPIHkwaFKlWoTIkQAIRJhC6A1A3V2+ONe7P4AkuOpH+WhYhC13ruLHyq5fPVD0Rbr/QVEOcxq5wkGZhiuDgqEwPYJnjckwJTC2FeIzQGpYFkwAJlA2BUB0A5POvA+ln8ERZEwXi6EBegh6tHevkPgaW5dciNXP0NmZEAEGDx0YhaBBOyYq0K/sum6Vey68GPIsESIAEypNAaA7AFnP0lAolf0DnEf4Wvq68hxGI89oa1J3laQbea41MjVujLa8Fx728S/MowZXVyIy4D3MFeOTIy0mABEqaQCgOQCZTnSt/xhNjqDn9MVycwlz2VWs75aL3m9Sakm7pgCpX26KPB9Mfo7hQ29aMBCBd8h5LZqpFAVWdxZAACZBArAgE7gCMv1SPS/bIn9D5TwqTFDr/55Bj/4y2mWphmHqUYtljm/To0VVyCaZUzg5zWgDlL8dGQl9kYGApWhnrRAIk4JVAoA6A6RhGVcnz6BTCW0qG4X5E9l/ALHJeTWf46yfM1tsnE3I9pgV2Gf5sO2fA0VviJGQPLhG0w5dSSYAE4ksgMAegrklXuyOQJldk57Bw6bRcUzFKGhafq1aHpUM5llvbrE/Hqop56IjHhlF/OAELKjeR3djuYdBnmSRAAlElEIwDsD7D38MoLJQd/TAUvAIBasd1TFdPRLUhSl2vzHJPLfejnruGUVc4IM+O+7h8mcs6w6DPMkmABKJIIJD0rjXVcnNYnb+58Xc5si07/3DNzwzBt62TPRCcNxtP5PDJgn2ZxEX/Win3BFsqSyMBEiCB6BKwPgJQM1f/EMF2F4eBAHP9F3XMUD8Ko2yWmZtAzTy9n5OS28JYAgqH8DKkc74gt3b8hgRIgATKg4BVByCzpa8jjwaOEoF+2NHua+WYtz9w1kUWmNlsKC33mifzIkV4uexrbfXqN14E8FoSIAESiDsBaw7AxFY9PiHyNwAaEygkLY+lKuW4ZeerlYGWy8IKJ2BiQ6plJp7KLwp0uSASBXUr+ezyBtVRuNK8ggRIgARKg4AdB8Dc2CvlTyoRbMS/ifJvn6nOLo2mKZ9aICW0CQ69H1MC1QHW+tVNx8guDAoMkDiLIgESiBQBK0GAdSNldpCdfyaoLC317PwjZVt5K9PWqB5B6t49Mtsu532V5xN3RFDgpZ6lUAAJkAAJxJSA7yMAeJrbGyHeT2JI14pzMYizK92uIyd01CtGeA+CE68DNc16EozGbAtdE5jmrhxkHJDAymNBJEACJBARAr46AJnArpT8TTkyLoj64cl/LYL9DlraoOYHUR7LsE8gkyo6Jc84KrBskauQLnjbpfVquf3asQQSIAESiA4B/57SMe9fbaK6A+r8sZL8PTgAu7Hzj44x+aHJ8gvVinWd8kVsLxyUUzcGmwbdL7BfP/SnDBIgARKICwHfbnp1lXJRUEu6zFyxWy27cc/3uJhZYXqanRmxNfNUJA36bWFXFnk29iqoqZTZRV7Ny0iABEgglgR8cQBq5+qdkHTn+4EQwBIuV8s+HdPUkkDKYyGhEVBdcjRGAl4MQgHsU9Bg7DiIslgGCZAACUSBgC8OAJbf/SqQoD8E/CFA7AA++UfBdOzr0NakOpMj5StwAhbZL01EpeVGTgUEQZplkAAJRIGAZwegZo4+F52/9e19zVI/BPwdiQxuL0QBHHUIhkBmBz9HpmJlif0gPUe2n1gt3wumZiyFBEiABMIl4GkVgIn6r0rJW3AARtmuBqYYTkFe/1tsl0P50SSwxRw9pSIhf4J2VjNLmpUlXUn51LvT1XvRJEGtSIAESMAfAkkvYkb0yE8kYb/zl7T8qGNmtDv/Ca16F8DcHbp+PMM0IR8gxe2bCGT7B3Rf4IUzrxV5e6ZaVNeqDwKL523ygDM7ssqVn6GMo22WQ9kkQAIkEDaBokcAMju6ufK47QqktdyHpX5ft11OofIzHX5a9kZMwr4IStx9uFEQM4SNXRFfRzk3IsL9zkLL4/nrCdS26OOx2uQ22zyQXOor3ELaNmXKJwESCJNAcQ5Ak07WVMkb6PQmWVa+/cN1sp1ZFma5nPzEY614XZWcjJMv9pStzpUOBLb9LDlKfp6Z486vdJ7VS6C2Vf8ShnuaTSCYCljS0SVbSZNK2SyHskmABEggLAJFBQFiB7eGADp/wZ33G1Hp/PHkeQg6/7+h47/RU+dvWtqkuk1Ia/eH8s+aFn1VXZO2Oq8dlnHZKletk7ORCGqhLflGrrFvBATOsFkGZZMACZBAmAQKHgHYolVPqHDlTXRitndum4aI/yvChGPKHtukR4+ulOvRYX/Dli6IE1ghSs5rb1C32yqj1ORi9ck2YPZndNQjrdXNlc4eR7Z8u14ts1YGBZMACZBASAQKHgHAPHaT7c7fZICLQuc/YbbeflSV/MVm52/a3aRPNvPadS360fEtuiYkW4hVsSawEt7rd60qDSc3Y+9WC6FwEiABEgiHQEEjANjprw6d/z9sqopguWVOpXy2bZpaZbOc4WRjnvlI5SLYzP5Ix0BV8NSJJ9uLESjYMvALfspGAO10O4z4uGzf+XWsW0vt8gbV4Zc8yiEBEiCBKBAodASgyabSmWQ/Il8Lu/P/VKs+DKMQdwXe+Ru4xuFQ0gxn669MTTu8tSEe4HSc1T78mcWfUalkVvFX80oSIAESiCaBvEcAgnj61yKz2+tVMHsK5GiPutl6R0li2D8qL1eu6u6SxuVNam1UVIqaHkG0GUcBotbq1IcESMArgbxHANK2N/vB0riwO//JV+nRWP99r1eovl7vyLkVVbKodo4+2Fe5JSSsbZZ6FftRXGOzSgh8bbApn7JJgARIIGgCeTkAJuWv0nKKVeUcOc+q/DyE93wotwWxvDEPVQacgiDBLVRCHq5p1b82bTHgS37IEKgYlemgrcWNIEjzNC7XpLGRAAmUEoG8HIDqlJgNfzylDR4KGob+H0HU/2+GOsf2dzVz9cnoaL9quxwv8tFYR41Iy5sTW/XZXuSU4rUmoRLiNi6wVjfEZuhq+W9r8imYBEiABAImMGwMAJ56qt1KeRv7pY+1opvZ4ldkq7ZG1WZFfj5C12f4+wcC8OK0BO8F7DtwWttMZTUhTj74onQOpkr+jNGSna3o5Mp7m46VCS+fqXqsyKdQEiABEgiQwLAjAOkRcrq1zt9UVEtLqJ0/VKiplCNj1vkbcrsiP8Hf6+boi80HvnoJJOVMaywc2WzFSjnJmnwKJgESIIEACQzrAOCE863pY3Lid0uzNfn5CnbkO/meGrnzEvJDJBB6Y2KL3ityuoWgUPsM9QqKvc5W0VpZnGawpTTlkgAJkEAWAkNOAdje8c9VckrHjHC3+c2kNhZZmoVN7A5h58QbqkbK+eW+wZAJlBzhyrsWG3A3xKy8YFE+RZMACZCAdQJDjgCotMXhVDz9d6yVW63XcJgCsLwr0oF/w6g/4OuEkjNSH8qbGBE4dsAXZfbh3enqPWzR/BNr1XZjPGJkDQoFkwAJxI1ATgcgs/RPyVEWK9SMrVaR+Tfkl5Z9QtbA3+IxT41MgncgRe7vzeiGv8LjIw15K+Za1PaYusu5g6NFvhRNAiQQAIGcDkBlWr5pq3z0+isQTX2DLfmFyMU0xHaFnB+XczG3c2DCRZBgq/6eYJVDXPT2S0+zgx+Wl97ol7wBcky65m45ecAxfiABEiCBmBHI2TEg8c8ZtuqitTRHZSkV8htsY6ueYctF3UZBh8trK+VPdXOR4rjMXom0WNtQCU4sVwOUmT2xuiRQagSyOgCms7CYEW9VolOuLjWQUa6PWRfvpuXPWCkwz+R1iLKufuq2ZKZahFwJd/sps08Wfjg7l/MUSx8H/iUBEogvgawOAPKqW5v7R6T6vLYm1RlfZHlo7srqPM4K9BSTyRFBghdKlbxhVncEWniIhcHeLrFVfEVajrclm3JJgARIwDaBrA4A5o+tDG9iu981WKb2U9uVCls+1oqfhY5nlrgSPUcH2Q4dVx5HkODt4y/V48JmZbv8pbPU62iHB22UgxiDo23IpUwSIAESCILAIAcgswe9vZS4d5bDGnXkpO9e2qDmoAE/A2fg6SAastAy4OQdl+yWN2qb9emFXhu389MiP7Ohs5la4TSADbKUSQIkEASBQQ4A5kyPtFUwOsNf2ZIdKbkOEgvjZVIcIzPdPliTfpJZ+RApHaGMSfGMDZBuQN6AZ+qadV3U9PNLn6Vd8gRGAd7zS15/ORXYoKn/Z74nARIggbgQGOQAoJM+yIby6ACX4al4vg3ZUZfZ0aBuddbJluiEbo6krkr2gl5/r23R3//8tRp9Wom9kG8Cyz1vt1ErOHclk0jKBh/KJAESiC6BAQ7AhMv0WEfJTjbUhdzQs/7ZqFe+MhH4uAojAqeiw/gSNkBalO91gZ2Hte3Y8/6S91fKqxNa9S6BlRtQQXBsb7NSlJap45v0SCuyKZQESIAELBIY4AAkuuQIa2WlIvr0a63C2QVjNODZTT+O5ENp+RFGBMxWyJF6mbwICBJ8HtvqXj35Kj06Usp5UGZpvXoJQaiLPYjIemlmdUW1fCXrlzxIAiRAAhEmMMABwDDpIVZ0deU17lv/EVmTBAk8LkqJbIvRgMhNi6BTcxDgdlb3OkwLtGprMSEfEQnoXcJODAqWVx4cUA1YDAmQAAn4RmCAA5DQYmV9ODL/lUfwX4HNsqxRLW5rUFOxauAMJOpZWeDl1k+HcYzHaoF7sVLgISSH2tx6gbYLqLA0DaVlb9uqUz4JkAAJ+E1ggwNQM0dvg9h134d8MezqdlbILX4rXkry2hvVL1OVshXWld8RxXphpcBXMWVhlgz+d5z3FeiYppaAr//b+CqZYuJnoth21IkESIAEchHY4ABgB7k9c53k6bgjr5jtWT3JKIOLl1+oVrTXq+MRF7AP/nVErspwDuEI/KRmhPxp4mwd2w2UkKDpIRtsK3os/X5sKEuZJEACJAACGxwAvNndBhEM/z9tQ26pysRKgaelS7aCQ9aC0ROECUTrBTvZOeHIyxgxao7jvgLQ/2kbRLHKYDcbcimTBEiABGwR2OAAoMOxcgOzdcO1BSQKcs1eCW0zVCNiAz6H/AkvRUGnATo4UokkQg1ulfwNCYT2HvBdxD+0d2IKwEaKZteOAx1xnFSPBEggxgQyDkBm/hLzmDbq8Z9O+YMNuZGWibgHP/Qzeew76tUXkMr2HLOPgh8y/ZSB1QKTMIb0FJyAmzAaMMZP2dZkISkQnN35fstHfoed/ZZJeSRAAiRgk0DGAUj0yA42CsFN8ZWVTWq1DdmRltmbCtgvHbGG/Wo8cW8Jr+Iev2T6KseRU9wR8mZNiz7RV7mWhCHY0nenFM7QyElztBUn2hIGiiUBEihzAhkHAEu9rDgAkPt0mfP1rfqYEngHowFHY6vmQ+AILPNNsE+CYEjjkO3xV9hM6qnxLbrGJ7FWxMABeNqG4HQCCZ74IgESIIGYEMg4ALghbm9DX3RU823ILWeZ7TPV71LrsGRQy2VRDBJUWBOf1PL3ujl6RlSXDHZ0ynM24gBU2o4jXc72zrqTAAnYI5BxALDG+7N+F2HW/6c75XG/5VKeyPImtba9QV0Axp8Hj1ejxsQMh0tCWuuq5fmJrXp81PST9ZsD/dF3vZJ0AHxnSoEkQALWCGQcAGwCY2Poss10VNY0j7Jgn4IAh6vislnqtbZ69TmcNw3OQPRYK9kFT8X/h3TC+wxXl6C/h+G/7HuZrnzGd5kUSAIkQAKWCDhbtOoJiOSu9ls+5oMX+y0zNvJ8DgIcrt5wAq7QjmyJZYO/He7coL9H8OJY6PUYtho+PuiyhyoPAapvDfV9Md9B5qRiruM1JEACJBAGAQf5/+tsFIz5/zdsyKXM7ASwUmA5Ugofik7oGJzxTvazwjmKKYEkRpluy6QSDkeFQaUicc/CQQc9HjD1jHoApMcq8nISIIESImCeVe08tVjYerWEuFurCrYbvjs5QraCI/ATE4dhraAiBCPY9MoJrXqXIi71/xJLI1QJseNQ+w+AEkmABMqdgOOk5NM2INh4wrKhpxWZIXe8i89Vq+EInOs6shucgAVW6liEUDwh4z+5d/JV2vdNpwpVx4yYgI3vyZWwX0JdobrwfBIgARIIg4AZAaizUbCSMo4BsAG0CJnL6tWLHY1qW3R0DTaWvRWhEsxNJnSvlf8p5lq/r4E3YiNOpc5vPSmPBEiABGwQwP1YfN/nHR1OCh3PEhsKx0JmwEGAwzFBW7R2K2wwpOWx4c4N5Hst50yYra3knihEf8yP+O4AqJT/v6dC6sRzSYAESCBfAg5uguPyPTnf8+BV+H5jzbdsnpedwPIG1dHWoA6AE3AcRgNC3Z7ZTAVgR8HZ2TUN8GjafzvFyNemAdaARZEACZBA0QQcR/vvAOhEtKLQi6ZTghfCCbgzuYlsiapdh5Ga0IIEERB4cGYJaoiMsUTxn34XD9unA+A3VMojARKwQsCMAIz1WzKSv5TfBkB+Q7QozwQJInfAmdgVbypcAN+Xw+WjuhkFSLrynXzOtXWOq2SV37I5AuA3UcojARKwRcDBjXiU38JxY6UD4DdUC/KwUuDZTcfK9thX4AdwBDotFDGkSIwCfG3IEyx/iX0LfF8FAI6+O9SWMVA8CZBAmRIwQYC+v7Dj+n98FxongSEOrReK6eUzVQ/2FfgfTAXtgKWbTxd6vZfz4XxuU9OsJ3mR4eVaZE/03VG1MaLmpY68lgRIgARyEbDiAGD9+Ye5CiyL4xFbBZAP8yUz1aL2GWofjN6cgtS9K/K5xo9zYIB7+SGnGBmY//J9BMCMqNU1ad9TaxdTP15DAiRAAkMRsOIAQOi/hyqU30WXQMcMdUtPBTa10XJLEFpi1MH3nSjz1TuVsrSB0kgZk68OPI8ESIAEwiJgxQFA3nffn6zCAlSO5S6/UK3AaoFTMEf/ZawUWGKTAeIPtrYpfyjZbsL/IEBTnptiHMBQ3PkdCZBANAhYcQAwhOz73Go0cJWXFu316imnS7aFIzAbwW3dNmoP2aEFzTmVdhxVxBb4nlvDBnvKJAESKG8CVhwAjABEb2/6INs5RkGAw2Fpa1KdcAS+jymBHTAa8Nxw5xf6PZbNhbYvwLLz1cpC9c3z/I/neR5PIwESIIHQCDgmba/fpSMIsNJvmbGSF8MgwOH49mBke7hz4va9rWA9Rwk2BeSLBEiABKJNIIkhAOMAJP1UE/O6vucW8FM/ysqfQKaTHCkXSVrOx04+Nhw735Px5Fu7dZvI6BE23Jp08DkV8q0zzyMBEiCBPgKm4zdzu74uW0qky9wBKJEpgLpmfSBs41oM/9eYbfxsvCA2sCWHG+s/IiUjbdRLV9iJl9hYf34mARIgAS8Ekq6WlIV7+yZelIr9tTGfAqibqzdHIOdPkCr4KNttgWWAoW0clXJltBkC8/3FEQDfkVIgCZCA/wQczFb6ngIWUdCcAvC/rQKRWNeqv+em5U0Eclrv/E2FsArgL4FULEshiYQdO0UyJSsrJrJUgYdIgARIoGgCSYR2rcIw6PiiJWS5EJ1HeTsAMZwCmNCqd8HmPNejObdHNrvAXkhB/GxghW1UEEa/RiWwDMHvl5O2s7zQbz0pjwRIoLwJmBgA34Ow8FT3sbLGGqMpgLFNevSoavkfOILnwBEMsOvHsgJXFnQ0qrawbEU5dpYgOkmxtbwwLFQslwRIoAQJJPEA5PvNCpsBlXcMQExGAGrm6KOcBOb6RTbHfH/gL3TA9wdeaP8CFYIA4a36/Wqbod7xWyblkQAJkIDfBJIIwlrl970feQB8nVLwu9LW5QX8JF1ofca36BoM/fwS69X3LfRav87H07+LWJGr/ZJXjBxsBjTeguPj+4haMXXjNSRAAiQwHAEz5Ov/Miw3vPzuw1U4kO8jPAJQM1f/sFJJe5idv2kDjDw8tLReLQ+kPXIUAud3So6vij+s5b3iL+aVJEACJBAcgSSG69/2O2+Z2RL1k/P0Zu9OV7wZBteWQ5Y0sUXvhfR012PI2/9Ob8iSs3+JkfcfZf8mwKNatvR7BAD1os0H2IQsigRIoHgCSczDLiv+8txXVqUzHU153gwjNAUw4TI9Ntktl6OjOzl3awX+zXXtM9QrgZe6UYEYAdja7+kvOABtGxXDjyRAAiQQSQKYBrXjAKiIPGlGknpAStU062+j8/9HlDp/JBh6GwmF6wNCkLOYusv1GMx/+b5rH35QS3IWyi9IgARIIEIEkliHvczvYVBTP+wHsGWE6llWqtTN0VtjQd/NaNddolRxE/iHHBHfaJumQg+US3XLFLMG1veXgsPFFwmQAAnEgIDTZmkdNiK8IzHXHEobhBQEaDbuwdK+ZsR0/D1qnb9pBzibje0N6rlQ2mSjQhNaJm90yJePacURAF9AUggJkIB1ApnELyYhi98lYQpga79lUl5uArVz9MFSJW8gur4h91mhfjOtbaaaG6oG/QpH8OtW/T769hZpgDkF4BtNCiIBErBJIOMAYFjWdwcAKwG2sbXfuk0gcZM9sVWPR4T/vSohD2PYvyZy+rvSmdZyRFu9uiJKuqUd2c53fVxZ/Xa9shJU67uuFEgCJFD2BNZPg2p5w0ocwAjZDYSfKjvKQawCaNJO3Qg5F6M3l5hll5Fk7EoH8u0ftLRR+e5geq0vRgD29nv5KwJqX/eqF68nARIggaAI9I0AWLlxqTRusuX4shwDYDbuqavK7KJ3eVQ7fzz13yDVskPHzOh1/hNn6+0wVTLWb9PEtNdf/ZZJeSRAAiRgi0BmBABPka/hhuj/yylTB8DSCIDZuOdjldKCpXRnBr1xT77GgXXwb2Ft/YlLG9QL+V4T9Hlwmva2Uaab4AiADa6USQIkYIdAZgSgo1sWwglY63cRGP7dXTBU7bfccpRX16KPHT1C3sBc/1nowKLHFHP9WPr5g3Fj5DOY749s55+xHSVTbdgQRgBesyGXMkmABEjABoH1MQBNynVatbl57epnIeiokhOrZc+lIvP9lFtOsszGPZUiv0KMxl5RrTccvSdTSk5f3qA62qOqZD+9MILyZThSvr7gQLtOl7zkq1AKIwESIAGLBNY7AChAp+UvuCn66gAYvZFqeG/8oQNgYBTw+vy1uuL9f0ujk5ZGPO9XF3BpYKei03sHmwpN62hQdwZWqMeCbM3/w9l9ra1JdXpUj5eTAAmQQGAENgwl66TYGbZ1o/vkao2yxyDA2la9z78+kNeROOfiqHb+cBivWdMlW7XFqPM37Y2Oem8b7Y5RkD/YkEuZJEACJGCLwIYRADxpzrcxs4xO7Esm73oU0r/agjhIbpFz9GbjHqdbrjRBdDaWZQ7Ss5gDCBgVV05pn6VeLebysK9BzotDbeiANrPjQNtQljJJgARIAAQ2jACYlMBYx7zcdyqOVLqd8g3f5ZaSQARKmo17nE55E0PqJ0ayakhyA72mtXXJ59pi2vmbLarxpP5lG3wRABiJFMc26kaZJEACpUlgwwiAqR6e1p/Ak+fJflcVsQXHQeZ1fsuNrLwCpgCQu38bML8eQ9O7R7Y+Inciac60thnqnQjrOKxqI1w5Fi7vAJsf9qI8ToDjvKzD0p4aeRTPU0iABEigKAIDb4YaWftsOABa9jYpa5fWK/9HGIqqdvgXjW/SIxPVcjGe+C8MX5scGiCTH745E6NDj+Q4I26HjSPq+wvDaL/zXSgFkgAJkIBlAhumADLlJMTejV7j6atcXsPEAExs1vsnR8ibiah2/q50wxFsERPkVyKdv3FAYX67WjLB31uSS7EkQAIkYI3AgBEAM8Rb06pfglews98lIkjqBMi8zG+5cZJnOiF0+leLlsOjqjeW9j2HNL6nvT1DLYqqjsXohemt0+HU+P4CrxTW/9tznH3XmAJJgARIYD2BgSMAOIZgpgdswMFQ9041l+tJNmRHXiaC/LBj3/nYgOaNqHb+SI6zAv/OwFz2Hm/PLK3O39gHshSeZsVOlDzD9f9WyFIoCZCAZQKDHIB0Wh60VaazTk6xJTtScvsFAda16l1rquT/8OT/YwT6RXLXPrNxT7pKtmpvVL+MFEeflJkwW28P9nacT9fe78Wn6lMMCZAACWQlMMgBWDZLvYZhzSVZz/Z6UMmpXkXE5XqzcU/tHH019H0enc82kdRbyyJ0/lOxcc83l52vVkZSRx+UwkZX3/RBTFYROiH3ZP2CB0mABEgg4gQGOQAZfbXcbUVvR2pq5mrflxla0dWDUHT4h46ukjex/PEsD2LsXqqlEVn8tkLnP99uQeFKH3+pHodplzNsaIFphWe5ssUGWcokARIIgkBWBwDbmt5vq3DHlVm2ZBcjF6Mdvu+CmFlK6chmxehj+xqzcU+3llp0/i22y4qC/Iq0fA8O2UgbuiCr4L025FImCZAACQRBIKsDsKxevYh0rx1WFFAyBfPiR1iRXYRQAFhTxGWxuwTJapa7aTkaG/fsZ3bti10FilDY5FpAYON5RVw67CVwHN11jtw+7Ik8gQRIgAQiSiCrA2B0xZOitZsbOqPIjAK4SpZFtG18UwttecWadfKZjpmqrOarKyrlbDz9Wwm8xPTO/Henq/d8ayQKIgESIIGACeR0AJAg4EZbuqDQneua9d625BciF8O4bxRyfqzOxcY9qZTsgKf+aSublMnlXzYvs50yAvTqbVUYSzqvtSWbckmABEggCAI5HYAlWAtugpxsKaEdezfnQnTG0/FLhZwfh3MxPG2mNc5DFr8dzKqOOOjst47vr5TTYNzj/JZr5JmcCXHbBtkGB8okARKIN4GcDoCpFpIC3WCrekjKdmBmIxxbBeQpF09ypZXFLS13Y9nblm316qo8EZTeaUi8BMO2Ns2EaaObSg8aa0QCJFBuBIZ0AJAL/s7ep0krXDCPGnonhXnxBVgmFvu0t2inJa4jX2mbqY6J+659Xo1t4gj5Dnb9q/EqJ9f1GBnj8H8uODxOAiQQGwJDOgAmxalW8nNbtcEowL4YBTjKlvx85WIa4Jf5nhu587BxD4akZyMf/bYd09UTkdMvYIUmXKbHJkRm2ypWizyyrFEttiWfckmABEggKAJDOgAZJZRcblMZBOFdYZZr2SxjONmpCrkBT9D+5wMYrmCv32uZj9GLHZDC9/vMR78eZrIrs+HUGK9oc12P2JUf5/qOx0mABEggTgSGdQBMpjM8Id9qq1LKkS0S1XKxLfn5yF1+oVqBkQ5rT4356FDIOVhGuQJ5Gk5DINpUDPkvLOTaUj7X7LuAoX97+01gqoijLKVsQawbCZQXgWEdAIMDCWTm2cSCjXIurJujt7ZZxnCykRJ3ThxiAYwz5lbIVojwv2m4OpXd97aX5mlpLjumrDAJkEDJEsjLAcgsJVN2tgneQNYJP7AK87unbdAnYm8wRbEAwWd7YE3/SaW8cU+x2PH0/z08/W9f7PXDXufKe3S6hqXEE0iABGJEIC8HoLc+TVbrpWSvmhZ9otUyhhHe3qCek7T8aJjTAv06E5uAjXs6ujDXb/TjaxCBT87Tm2FKxOo0EkZeYjNFNAgQD5AACZBAFgIqy7Gch+rm6t9gmPzwnCd4/ULL6h4l275dr5Z5FeXl+roW/Sg29Nnfiww/rjUR5ymRb4XNw4+62JRR06wfxsL/g22VgZiLZR31aqIt+ZRLAiRAAmEQKGQEwOjXZFVJJaMrtNxmtYx8hHfCyTER9iG98NT/jtm4p71eHcTOf+hGmNiiz7fZ+ZvSkSzqoqG14LckQAIkED8CBTkASDDzKqp4p9VqYiqgtln/j9UyhhFultRt+nHZD9MBdw9zqq9fo+NPYaj5inVdsmW5bdxTDMiJrXpnZKtsLebafK9Bmyxp75Kb8j2f55EACZBAXAgUNAVgKoVNfOoQbPUP2xU0We2isOQK9TVZ5a6xXl+Rlxwl3+p1smwXF3v5dZfrMdIpf0Xb1NisDKZhvo6RmPtslkHZJEACJBAGgYJGAIyCiIRuQ8CV9RS+KiV3IOZg8zCg9C8T9f252VFPp+1sGoQnzDVpkXMwx/wFdv79yQ/zvgdP5ZY7f7TNc+z8h2kHfk0CJBBbAgU7AKam3RVyCZyA1TZrjQRB47Ds7VabZeQr2yyDbJ+pvoDh+ZPSrryQ73VDnWc6fszzt7hVUotkS1cPdS6/G0gAS/7OtRqM2lscsv6dN7BkfiIBEiCB0iFQ8BRAX9VN8BUS+FhPi5rWMiuTpKev4Aj8nTBbb48d98x2s6djtcDoAlUycRQ3JkfITYvPVVadqAL1isXpdbP1jpKUv9hW1iRcMjkXbJdD+SRAAiQQFoGiHQCjMJbLvYEOcIpt5eEEHAEn4AHb5RQj36SfxdP8VFw7GXP4Zj66Dp3HBDgHKbB5B0+Ry1VaXsNSsr/hqfXZzO6DxRTEawRBf+MTrjwfwND/WrTbliYNNrGTAAmQQKkS8OQA1MzT+zmuPG4djtnxTsk+TIRjnXRkC5h8lR6dWit/DsLhBIRpbfXqisjCoGIkQAIk4AMBTw6AKR9L9h7CfP1XfdBlaBFIEoS4gy9y85uhMZXit3VNuhqxEk9ivf/u1uun5UVssvRF6+WwABIgARIImUBRQYD9dcZyvTNNQFv/Y1beY67dTciTUVgZYKV+FJqdQBMG46vkriA6f9hxCk7mKdkV4VESIAESKC0Cnh2A3nnSC4LAAmXH4wb9jBkODqI8lhE+gYnVch3m/A8LQhNHyxyOMAVBmmWQAAlEgYBnB8BUoqNRXYcle88GUiEEHWIu+HEzLBxIeSwkNALYIvpirDQ5IxAFXHmtrdvuhkKB1IOFkAAJkECeBHxxAExZPSInBDIVYApTsgu6/8cz2eDMZ75KjkAmHXRCfhhYxbQcI03I+s8XCZAACZQJAc9BgP05ITfA4Xhi+03/Y1bfu7JQErIPMui9Y7UcCg+OAOb8zbB/YE/+62vGqP/gWpglkQAJRISArw6AqRNy51+JOdtzA6ufKx1utezTMU0tCaxMFmSFwOev1RUrVsmDMMoDrRSQTSh2fUTUv8njwBcJkAAJlBUB36YA+qghd/55tvLm95Ux4K/JB79O/jyhVe8y4Dg/xIqACez81wfyRJCdP1Ixr+xRckKsQFFZEiABEvCJgO8OgNErlZCvmZurTzoOKwZpecciIdFTJjHRsCfzhMgR+OQ8vVn3WmT4w1bQQSmHeBUXI1WHv12vlgVVJsshARIggSgRsOIAZG6quLlmbrIB1RbrxEdiFffvkZ742ICKZDE+EKhp1pOqXHkZaZS38UFc3iKw5K8Ruf6DWbmSt1Y8kQRIgASCI+B7DEB/1YPaMKh/mcbpQNrgy5Z2SiOiulP9v+P7aBGonaMPRhbJO/DkH2heB+3Kb9sb1aHRokFtSIAESCBYAlZGAPqqgA18LsP7O/s+B/EXIwEOIsgvrKmSZ8zmMUGUyTIKJ1DToi9XCXk46M4fA/+v9XRhyR9fJEACJFDmBKyOABi2mcjuf8lzuNnvHDRrE4eAoeUTEJj4SNBls7zsBLZo1ROSabk/FHsQWd7lyOfena7ey64dj5IACZBA+RCw7gAYlOMv1eOSPfJ/eDrfPGi0mTgELXM7umUWE70ETX9geZndI9Nyb+BP/evVWNWTli++PVMtGqgVP5EACZBAeRIIxAEwaCfM1tvDAXg+E6wXAms4As+llBy3vEF1hFB82ReJeJB5ZmomFBCudCLifx9s8ftCKOWzUBIgARKIIIHAHABT98wyPUTqwwlIhsECTsBaBAjO3uzjMu/lMxWyF/NlmwBS+n5Zi1yPNp9ku6xs8tHmKaXkiPYG9XC273mMBEiABMqVQKAOgIFc26qPRBT2r9EhWA1AHKpB0SG9hY7h7KWN6rGhzuN3xRMwc/0VrvwMrXxY8VK8XYk2djMxIA0q0EBUb1rzahIgARIIhkDgDoCpVs1cfTLWYd8cTBWHKEXJAz1a/pvJYIZgVOBXZpdGd6TMkLTUhzXd06cyHIAzzU6VfZ/5lwRIgARI4CMCoTgApngs0Ts7IXhCjMDLVXJRxwz1owioEmsVsA/EgdhO72dhDff3h5fWMgvLUOf0P8b3JEACJEACHxEIzQEwKkTKCcASMSctV67ulp+vbFKrP0LEd0MSwO59tSPkCEzrXICOf/chzw3uS+7uFxxrlkQCJBBTAqE6AIZZGNkCh2wrV1anlVyHpWqXL61Xy4c8t4y/zAz1V8nJmGO/AKymRAFFZs5f5Bzkffh5FPShDiRAAiQQZQKhOwAGTt0cPUMS0ho5UFpuQafS2jFTLYicbiEphI5/DOb4z8W+C+eZTZhCUiNrsZjKOQVTObdk/ZIHSYAESIAEBhCIhANgNML88amIGL9xgHYR+YBVAyaT4PXt9eq+iKgUuBqYrtlZaTzxa/kW2qk6cAWGKRBt9PVybp9h8PBrEiABEhhEIDIOgNHMBJHhz/1R7GCMfpnUwgm5BwFmt2GzoWdLPbPg+BZdUyFyMjr+E9AmWxsGUXthhMbkdjgIAX/zo6Yb9SEBEiCBKBOIlANgQNW16l0RSf4QkgSMizI4dDzviJaboOfNbTPVwijrWohuEy7TYxNdcjx26TsB1+1ayLVBn5txyLTs2zZLvRp02SyPBEiABOJOIHIOgAFqdvGDYg+gcw18A6GiGlTLIkTBP4k58Ue61skTy5vU2qLkhHSRcbqwbv8g7ciXkTVvz5DUKKhYOGBLMBHxlY5paklBF/JkEiABEiCBDIFIOgBGM7OL4PsfyC8RZX5irNrKlW6dwO6HrjyKYfNH2tbKa1GbKqibqzfXaTkYQ/sHYLRlv6gF8w3X3nC2fvufLjmByzWHI8XvSYAESCA3gcg6AH0qIy7gO+hIr+n7HLe/Zpga+v8Ojsyf064sxBLDhUFuSDS2SY/+WLVsh85+CsreNqFlf+izfdw49ukLnudhVcZVfZ/5lwRIgARIoDgCkXcATLVq5+qdFPaQR8dVU1w1o3eVq+UVx5XFGC14U2tZiCj2DgSzdWJ5XWcl/nY6+OtIt1Tg2L+ls61JdZpaTL5Kj8bTb3XSlcqqtIxEKuNKbK1UjQ6+Go35X5C1Hebvt0J8wpb4tzXeRzqWooCWaQefI9tnqFcKuIankgAJkAAJ5CAQCwfA6G7Wn+sRcgcUNisF+CojAnCO7vjPOvlOOQ/5Z7bTTsoULMOcbBw7OI61cPZG4f1I/DPLMkdilGmkKBltTMOsjsDxTuTXWItrMu/TgveOrMLxBfj3D0z/LEI67kVInNRmruGLBKJKoGD7x8irSsgHuHd8APtfKS7sPoF/Cu+1/BO/nbcwTftWKQVwF9N2sXEA+iqH7WX/G0+1P+n7zL+lSwCd2Br8aM8pp+Q+ZoSn60PZFTevXTFCtAduVlsHMfIF1gtwo3w9nZBnEil5jisrSvd3FeWahWH/cISXIfh5MX4Db+E3txC/gfnL6tWLUebkl26xcwBMxSc068lQ/FcJJ9rL1PxqpLKUo+VFdH7HlPrTaWbZZTdGtVzZEzehPaISn2GcL4woPAe9XnAr5A8d09UTZWmHrLRVAlG1f9h9J1ZFPY2p2j+gr5nf0aCetQoiJOGxdAD6WEU2hXCfgvxbOAH88NAJNrbVqysKvzgeV4xv0iOT1XIkOvwT8AOMxZQWVl6sQAzGHXAKbkfbvBAP0tQyigTiaP8Zjloew2jBr+AM3BpFrsXoFGsHwFR4izl6Cm5KN3M0oJjmj9Y16GCe7nHllCBXSQRGoEkna6vlAMxBnoDO9FDMxY8KrGyfC8K86lsIyr0tpeRXyxrVYp/FU1wpEigh+8fowHsYGfhlCqvT4n6vir0D0Pdbidyugn2K8e+wBDIZ/bCrIIb7bxr25JidsEWrnoAVG9/BD83sobBZzNQfVl0EU5mh0WvaG9Ttw57ME8qOQMnbv8iTWIH1i7YGdWccG7dkHAAD3+Sur3RlHgLHvhHHxig3nTHP7OKp/8ZElVzYNk2tKpn6N2mnrgr5FkTOwpDhwXjaT5ZM3XJVpPepCAFUP3u7Xi3LdRqPlwGBMrR/jOq9jZilK9Z2y8/fb1Jr4tLKJeUA9EHHaMBeSHjzk6gEVPXpxb/9CJj0ySKn4cnxuX5HY/8WaZW/B8fmu+j0J8W+MsVWQMkDKS1zyiWSulhMpXhd2du/K6sxPXC1k5Qr22aod6LexiXpAPRB791iuAmfa/uO8W/oBN6Btzy7vVH9NHRNfFSgZo4+Ckv3WvCD+rSPYmMtCg7eHSmRGRwRiHUz5qU87X8wJuwaewOmyFqiHCdT0g5ApkkQfILh2BOxpOP7vDkPNtLAjrjSgbKaNx0rN7x8puoJrFzLBZkEJchLcS2DUHOANsupRH7c0yVz4rZJVo4a8XA/ArT/fjCyvDXTnBgN/AXytdZHcZqz9B2Afo1SM1efjF3vfoAGmdzvMN9aJIAfwBIYWTOe+H9hsZjARZsNlRAN3Iqo/pMDLzyOBZoYAZEfdDSq6+KoPnUeSID2P5DHcJ9g+yuQZGh61AKdy8oByDSSCVCplm+YmxGWD24zXMPx++IIoONfgM6xuaNTbo/abojF1aj3KthPTZV8E7YzD/XLpN31JK/8Ln4h5cpJUR4WLb8mKaDGtP8CYA0+FffF55Bx84yopCAuPwegX5vUtuojMUdzNm7m+/Y7zLceCGCb4ZcwFz4byWJ+40FMJC81OSeSjtyABD57RlLBGCmF390PEAD6PzFSuexVpf37ZwKID7g00Sk/6NvkzT/JhUkqawegD9Uk3NhdJefgie5UPtX1USngr8neJ3IXll9egcjXVwu4Mhanfv5aXbHiA6nHet9ZWFlSHQulY6CkGSWCs3gSd3iMdmPR/i21D1ZCIfHZoW/PVIsslTCsWDoA/RBlUlQiYBAxAmfh8I79vuLbLASw3GUBRk+uR4DLTVEMcMmicsGHMrkltDzEJaUFo8v/grT8CEOiF+V/Ac8MigDt3z5pOMJnhhUbQwcgR/tiPeuu6ODOwXzNYbj5c663j5OW+dhW9gFVJb/pmKaW9B0uxb/GBrBk8SFE+Y8rxfpFqk7IHdC9Vo7nSoHotArtP8C2SMvdq7vlW0FveU4HII82rmnReyLi+xAnkdm4pbxGBpDYAhmuHnEdeahypDy4+Fy1Og9ksT+lN4fEjbGvSIwqAIf7FWSGPHRpvVoeI7VLUlXaf/DNipGAJZgSOzrIKTE6AAW28yfn6c2qtBzopOQQrCTYD07B2AJFRP50MzeLWIjHMOf9EJbv/W/kFfZZwdoW/WME+p3vs1iKy4cAlgtik5VDmUUwH1h2zqH92+Gar1QEyH4VAbIP53u+l/PoAHihh2sntOpd0FHumVDyBXScu8QyBawrr+HJ6wl0+n9MV8jTy85XKz1iieXldU26Wo+Q+/GjODCWFSghpeFcH91Rr+4poSpFviq0/wg1kZbjgthgiA6Az22OH9EYt1ruiezSQnT2qPJfzHArYhteWdcpr8Zp8wqfm2uDuLFNevSoKvk9HLjdNxzkm3AJuHJa1BKnhAvEXum0f3tsi5WM+KNv2U6gRgeg2NYZ4rq6OdosiQtnR0IMoUK1d5D6eDmGkt5E7MJiOCOLerQsCXO5yRC4Qv9qwmV6rNMtj4PTTqErQwUGEnDlLDgBPx94kJ/8JED795Om77KmIafKFb5L7RVY+tuU2iIXhtz1T+/nDSralVVSIe/EYfepQbqHfMDEdDhd8hSe/GOTFRK59d8CtjcRnLkAQ+X/wvTTGjh6ZheyNXBizFaknVi5MBoO4EgcG43pnVH4PApTVXW4Zkv8nYLRn81CRp9f8Y5cA4d6NJYJzs3vAp5VCAHafyG0Qjn3ciSsG9der75vo3SOAFigamsEADEGa7Be9GMWVC5LkWaNc1LLk+j8I7s3RG9A5pMISnw6kZbXl/iUNOQTTXpU1QjZBjeAnfFvH+Qp3yvKTkHvDpJWboJlafyoNO0/RvZvKXMmHQALv35bDoBRNSXyRUZIe280E6uBgL+X8AOI1va9ZtmlI3fiyf5xZ508gVShq7zXNj8J2NJ1G52QvTFCcGQUY1jgDDXAAW7NrzY8aygCtP/BdKJu/xjl8306jA7AYDvwfMSmA4Ac0hcsbVCXeVayjAWY1Kb/WiXzgWDXSGAwW+Yq+S1WYdwxbow8FIXtkjO7vWk5FlMIJ0UlNgIOgIupjKMxHHpfJNotpkrQ/odvuKjaPx4OjvFzdQwdgOFtoeAzbDoA6CQewFz/EQUrxQs2EKhp1b92RI7acCCkN3jKX4b5/GYMxd8a5QRLsOetEdQ6DZi+HRKqj4o1+044sg8Co1746CDfFUKA9l8ILZFI2T9UR1K2r3RMV08UVovsZ9MByM7F01GbDgCegtYiaG3TsHeR8gQoxIvrWnQrnKgZIaogZl4fDsi8ti65FVslY1YnHq9MEqwemYYRgbPRCYeWHttNy0okC/rc8gbVEQ9y0dGS9l98W0TG/hELhgR0X/Jj4zU6AMXbQ84rbToAmUIDShKRs4Ix/aK2WX8TQ8jXh6b++iWa9XFf2967bKwJjsB3Q2OJndQwFvDFIGMkQqurTwXT/v0BGQX7N05wOiE7vF2vlnmpFR5E+IodAUeOjZ3OISs8sVXvjOH2a0JRA8PW+MG2dHfJp+Le+Rt+JlNkR4M610nLVmD6ZChMlUxBECczBeYJn/afJ6g8TouC/ZsU9BVa7pUmZHzx8OIIgAd4uS61PgLgSveHmAZgBr9cLTDw+OSr9OieD7H3vCNbDPzG/ifM89+TQuBmKQ9X187RB4Pt5ZhamWKf6EYlpKWeOQI2YrLRR9r/RkB8/him/ZsHi46ZqrHYKnnyHootlNd5JOBIZfUIOdmjlLK5vGed3BV052+G6HRaDkHE7tGl3PkbI2qfqX636cdlO6wYsJaxLJexukpmm/04cn3P4yK0f7tWEKb9m3gmTO18udga0gEollzI16HhuFtdHm2Atb3nYpgr6M19XnCSsq25MeShYkmcYpYuYlpgmolQNs5PUJVCEqckfgv3msRGQZUZp3Jo/8G0Voj272AS4C4ToFhMTekAFEMtAtegU/t0zTy9XwRUiawKE2br7RGoNi8oBc06dcyJz25bJ3uUa1pmszzJOD9IQ/xsUNxxE5tQXS03B1VeXMqh/QffUiHZ/7jqdHHxAHQAgrcR30p0UiFGYftWC3uCkgn5NZarVdorYaBkPI1+PZOzu0lh6r98X8b5wX7mX8K+A7cERQH7IRxZM1dzWqwfcNp/PxgBvg3D/pEqfM+6EXJuodWkA1AosSid78hhmSQVUdIpIrqAy8WBBaWZKH8MfSM5zW8iUv1IqIH9zE/BkMhPAlMmJZePv1SPC6y8CBdE+w+/cYK2f4xAXpLJYFhA1ekAFAArkqcmpSWSeoWo1BZz9BQEh80MRAXk7kdSmql+ZeYKROcACzHLBSUtPwqiSLM0qrJHLg2irCiXQfuPTusEav/Y8RNOQEFTnnQAomMrxWmi5fDauZr72Pejh+HgG01wWL9DVt5ih7qyrWmnAABAAElEQVQVaVf24OZMQ+PFMr2LcIZJJWz/5cgpda06Gns82K9t1hJo/1mxhHYwSPtHzNOJtS1693wrSwcgX1JRPs+VK6OsXpC6YUnM6ej88/4BFK0bnvwR6DZ16Sz1etEyyuhCTI+YJYLBOAEaAYFN2roDGMXmo/1HsVVEgrR/7OZ5Q74JgugARNNeCtLKBIDUtuojC7qoBE82KTrRKRc0BFYUhvUb0hyABBwLirq+TC8yN0HsZml/iB4JiSZWh7vfQxhNTPsPg3r+ZQZm/45sXVMp/52PZnQA8qEUg3OwLPBnJuNXDFS1pmIyJdPNPLC1AnoFY+veo/Bj5m50RYDGVtbTERh4axGXFnQJnoIazZ73BV0U85Np/9FvwKDsH1MBl+TTH9ABiL7N5Kvh5t1r5Wf5nlxq5xljRwKavLxeT3XHRkxY4vawJxllfnFHp5yCfAmP2MSAaaBR7sjCl0XZ1MmmbNq/Tbr+yg7C/s1unT1rh7d/OgD+tm2o0jIBIB7SQoaqvMfCU2vkAnPT9yhmyMtNqlss7blzyJP45fAEkCdBrZOv4cT24U8u/gxHy7TxTXpk8RLicyXtPz5thS3AA7F/BClPwyhY9VBk6AAMRSeG32Eq4I5C14LGsJoDVDY3eSz7s5sa2ZXX4LlPH1AwPxRNANv4dqZScphgY6uihQx/4ZjK6uGfgoYXE+0zaP/Rbp9s2gVh/2Y6NF0tZ2crv+8YHYA+EqXy15HNsBb04XKKgq6olvNtPv2D59puJYfCc0+ViplEoR7LZqnXMFRZb1MXOIYXDPcUZLP8IGTT/oOg7H8ZQdh/Qkv956/VFbm0pwOQi0yMj2MqYCekhSyLeADz9GOGumw2F3ieUeo7+tnkN5RsExmN9vvtUOd4+Q43uHEyQr7jRUaUr6X9R7l1htfNtv3Dwd7svVXyrVya0AHIRSb+x79d06y/Hf9qDF2Diio51mbkP5at3cd5/6HbwOu3nUk5A1MBq73KyXU9RnDOyfVd3I/T/uPegiK27T/h5h5lowMQf/sZqgbXlHp+AOXk9m6HApPXdybHv5Lz8jqXJxVN4N3p6j0EWP6gaAHDXIjpockTW/Rew5wWy69p/7FstgFK27Z/jALUfKpVHzag0N4PdACyUSmRY7jxORhevatUtw2ehJz/aCpraV/TWEv7dr1aViLmEOlqdHTLTzEK8JotJTEXerot2WHJpf2HRd7/cm3bPxzsk7JpTQcgG5USOgYnICkpeaCQ/NBxqX7akTNt6Yp16m8hacccW/IpdyMCWBqFBEtnbXTUt4/Yn/noTzRpq8tEfVM2T0G0/zxBxeE0y/aPbLFH1V0+ODFWWebLjoM9+KkjnICRmAd9HE7AN0oqiY2Wk7Hlr5WXdko3cCxfYBOa9WQ8IXwZjLeDDdXotCREy1I3Ia+rtDztdypk2OZzdc36ZgxZnpKvjvmeZ34DI6rkeJx/Xb7XRP482r/VJiol+8+A6pRj8ffn/aFZun32L6L83mMv7rtwq/xG1GoOJ8CFXqd1zFC3RE23QvWpadVHoXP6daHX5XM+nkSfbp+h9snn3FI8Z8JsvX0iIT8ze0wMU79XsffCOabjHua8vL+e2KrHK1fa0WH7/nCCnRtfWNqodstbmQifSPu31zilav8YBXupo159oT85TgH0p1Hi73FTdZAd7WYERM0sgaoeY6sOeLpttSU76nLhvF6cTMpf8+j8TVV2xHl/rGnRV/lVr6X1ajluSrf5Ja+/nIQju27Rqif0Pxbj97R/C41XyvaP39XOqN/W/bHRAehPo0zeY7/w2WaUwqwhjmuVHVf2t6I7AtHaGpXVPPVW9PZBKLaSfQgjRD8sVBTyJHy3rkU/U+h1Oc/X0pLzO49fVLjyVY8iInE57d//ZigH+8fo5on9ydEB6E+jnN5jigJpUv9i5rniVu3MqgZsdmFDb/xAyu7p32QKw3LR32NJWfGdo5K9MH9/pR9t0jZTLbSVHAixHYf7oWOYMmj//tIvJ/tHDM8B/enRAehPo9zeY990GMBf4Pl+M1ZVT8shVvR15T3MZ99uRXaEha5YKfchGOhAzyo6cq5fq010UnxxJjauk6lnnEe+MvWh/W/crJ4+l5X9J2TnsU0fbRtPB8CT6cT/YsQFjMKT3/UTm/Xz2ERox1jUSGMTGQsvJP0pu87fDHt6evLfqB0QFDhvo0NFfeyYrp7AKMDbRV08zEXInR/vAE/a/zAtnP/X5Wj/H6uWL/URogPQR6LM/5oAKQwP/aWuVV874TI9Nqo4TBALnJZJNvRDR/grG3KjKhND9g/42fmbeqJtdq+5XPvSPnDI7rDBDoGLVhxIG7puLJP2vzGR4j+Xq/2D2Jf7qNEB6CPBv30Evp3skbewUuD8vgNR+ptOfGS8vuqlZRGW/r3iq8wICzM3P6y3t9MRrvMQS9CPGfIOWHHIsBx2v37FxOot7d+f5ipn+0eSs737KNIB6CPBv/0JjMFKgR9jM6E3MSJwRP8vwn6fENnBhg74UVjpbGzo6kVmX8CTtc4fymGefcBSo2L1NdulorNeXOz1ua4zI0j950FznRfF47R/b61C+wc/LTtii+wxhiQdAG/2VNJX40ZpVgjcD2/5r2ZnwSjsq44OYTsb0NNpedCG3KjJ/NdKuceXgL8hKuY68skhvi7sKy33FHZBfmePrpLd8zszWmfR/r21B+0/M03npKtlqiFJB8CbPZXH1Y5sD2fgWqmSd03SF5MpK6yKw2B9dwCQIWuFedoMq05BlWt12LNfJeBgrO330dvbCnnSm4DsV2O5587Zv4n2Udp/8e1D+/+IHWJ/MiOpyY8O8R0JDEMAa+9xA/quk5TvIhXpMrz/HYbOH127Th57v0mtGeZqz1/jB1wHl3W0Z0EbCUDk+vyNDpXWxybt1FXJ/TaH/fsDgwPwXv/PXt47H8qzbpWk4ID6eq9SWgakRPWiY1DX0v6LJE37HwQOGWE/Yw7iHs4XCRROAIZjUqp+Gzf7e7HJygcYGXjZjA7g34l+RYFvrBW257Uy/48fw1Mbl1UynwO++RlucAr/5Be/tibVCVkv+iWvn5xd+72PxVvafxHNRPvPBS0Tp+OrV52rJB73TgBzf7/D8qXReeZo915gARJ6n852wiXmn0i3CJ5WVmNo/XUMNb2B3PoLkYHtb7iBve+kZQ0imVePGCGrF5+rVmfOz/9/2+Z/av5nYgTgf/M/O15n1o2U+9Aj24n2z4ICdrrW6fI3ngJOpnHQ/J2zd2Qz5L3YvG2GeidLNaJ6iPZfYMvQ/rMDw+90ivmGDkB2PpE7iqfUNZuOlSNWrJIHcUP0nrXNdg3XTxeYm/buyC+f2bU3Y2x4b4adUuvgJLTiWTHslyudfm9rG3aVMuX3PfkE2PlnylVyXe9Tu38YHHnFP2H9JGn5ZyRssJ9Kgb+l/fuLPCb2j4e2keNbdA2nAPxtfqvSXj5T9bTXq4NcLbdaLai8hC8qxepmnnxsrfPPASzz9O/4v5cC8gEszFEkD3snQPv3zjAjIW72n0zIFI4A+NT4QYrpaFAn1c7R/1EJOSvIckuyLG2nc0H7HIxpj69gtGZnTDFMhse9ubjSgWNvYkrkj5gGeQhb375kgymGtn+DYf/AN73B08TXbQypmxGasn9St2EoRibt3zeycbN/lZKt6QD41vzBCmqfqc7GDm4r0cHMCrbk0ipNJ+RNP2uEIMg9sT3uTyBzR7RN5oW4jfUvR2rwtgZTIvtiJuSHiJN4EF+ch+2H23rP8PwnrM4fHclxNrdRxtPVEjhRkzwDooABBGj/A3AU/yGG9o8HyC04BVB8k4d+JaYDvm9uvGboKXRlYqoA1oP7MwSKOfeaufqHaI9ngCK/TZXWD9H/9VOt2nuQnpnzN+l9A37yh+2lEMnx9bYGdadNE4BT5XtGQJv6xkU27d9bS8Xa/rWMpQPgrf1Dv9rceBEg+HnzhBS6MnFUQMlyP9SuqZTZaIeL8ZRa2G8KwZLoQB9A5/2dovXoC/gLfs4/hVUex8ARva9o3fO9EAF7+Z7K8wogQPsvANbAU03nH2v7T8uYwm5WA+vPTxEh0DZTLVzTJZ/DHLMZUuarAAL4ERe6FHGQdGycdLiTkIZBXxRywJFrJrbqswu5pO/cidXy66CS/PSVaf7iqfykQDr/9YX+u3/ZfO8PAdp/8Rzjbv+Y/jGJ3fgqBQIrm9RqzMEejojp6cYzLYU6BVEHk5fASzlmcxHM8V/tRUbftYgL+BlGAk7t+zzs395hf2zcdOSw5/p4grGvIIb9+6uM8v7T/zPf+0OA9l84x1Kxf2TD5BRA4c0f7SsQHHgp5vX2RRKeFdHWNBramaREXjR57wOkRhYZ70XGgGsdubG2WZ8+4FiOD2Es9TOqBPzkk6k9HYAcRuDxMO2/cIAlZP+cAii8+aN/xdIGNd+tkK3SWm6AtwpfgK9cBCoqvY0AwIv+ei7ZxR5HZ3d9bYs+Puf1JR7wl63eWD7JEYBsYDweo/3nDzCMJ/8+7azYv2YMQB/fkvu77Hy1Eo7ANzE8/SUY7oKSq6BPFWqbplYVK2p8kx6JoL/di70+13UmkBDtdlsuJ6C2Wu4qgzn/AXjgaHkaqRkgjB82EKD9b0Ax7Jswnvz7lLJk/4wB6ANcqn/bG9RzHV3yWdRvGsYCeBPdqKHrmnT1Rofy/lhdmdkQKe/zCz0RCYRuRq6Hj+b3e5/84RwcVagsL+eH+eTTpzdWWDBnSR8MH//S/oeHWar2j6Fhl0GAw7d//M9oUm5bvboCCWi2QqPfE/8K+VeD1GgZWaw0NyFji702n+swEpBE4qB7+5yAcnzy7+OURu7yvvf86x8B2v/wLMN88u/Tzob94/6ymg5AH+Ey+GvStHbUq6MRJPh5VNdq4pa44HS7ZVSxuqZSwSRgyjgBLfoPQT/5Gy7Yd+IY20l+8uGfSBffTvnIL9dzaP9Dt3xJ2z+m1egADN3+Jflt+wz1CkYETAbBT6OC12FqwOy5XpavpFt8x5KskPeCgobOf8+gyjLl9A17Yt+Ju4MsN1dZcFpH5/qOx4snQPvPzq4c7B+jwWvoAGRv/7I42tGolsAROHNdUmrdtLSUY4wAhvGLHgHo3fjmnVIzFnPzCyzDWZ7w4ABskuepPK0AArT/wbDKxf7R+dMBGNz85Xfk3enqPey41ihd8kkz5KVd+W25UEB07f/zUlcstSy5rZmjMOe5cZtAp803PsbP3gnQ/gczLBv717KKIwCD279sj7Q1qU4z5NveqA6VdfJxOAJnwCF4Eh5xKecSMNMgRb/SIj8xTwxFC4jQhaYeQWf4y7f6sMMp+Z7L8woiQPvvxVVu9o/cAh/SASjot1I+J8MZWAVH4JdwCPar3ATOgJav4mn3UvxInislCo4rk73UZ3mD6sBT1PVeZETl2ig++WxgQwdgAwo/39D+P6JZbvaPe/q7XFv7UfvzXQ4Ci89VJn/Aw73/xKwd1iNkN5WWvZGQZldsQbsj/m6W4/JoH07KZ7wqqLrlfLdKdrCRFMirbnlfb/Yzt7ylb966bHTiJ+fpzdBRFR2rsZE4fuxPgPa/nkYZ2j/iat6kA9D/x8D3eREwUwU48anef5lrJlymxyZ6ZAcsWdsBBz4D73IbRK5vh/djMidE9H9wYiZ5Vc3wmHyVPqhnjTypErKzV3lBX2/iPqIS7Z+t7lVpDP/DsPjynwDtf/1S13K0fwT6LqID4P9vqiwlmtTDqPgAp6APxNgmPbpiE6nGWu7qalequ7VUJ5MyElMKlQmNsYM8X2klJ2LnuzPyPD2/0xypMU+YJhAyvwuyn2VGSeAE7Nu9Tp5EhWLjBES98ze0MTRrhSec1BMwfbM8e4tG7yjt3/82KWf7T7uykA6A/zZFiRsRMFsV45D55+mFjHgm856/DgAEVrmyF/7c40k5XNznBMRhJMAEPJmlfnjyuc9rva1frzDVhOhEX1+udLd3IRkWsmT6KteiMNq/f3Bp/9L5dqNalvfTl3/oKYkEiiOgK+XV4q4c5iqdcQCGOSm/r40T0NMtU3VaXsrviuDP6rv5tdfHoPMHHjclX/KdkoItxajzN/Wn/ftjBbR/cHRkoaFJB8Afm6KUAAh0TFNL8ONd63dR2Ghmqp8ylzeptVF1AszND7/64+LS+U+Yrbd3bOy5YByAmL1o/94bjPbfyzAti8w7OgDebYoSAiSA+WD/n6wd2d4EMfpZDeMErO2WfTDP/Kyfcr3KMkudsB+E5+kOr3rke71K2kmBjI7g5Xx1iNJ5tH9vrUH7X8/PTcrfzDs6AN7siVcHTAATtn+1UaSTkq/6Lff9JrUG6yW+gs4m9NwJ5skH0+hfj+pSv1zsESR6eK7vvBzHPqixGwEw9aX9F9fqtP+B3DBF+YI5QgdgIBd+ijgBRG3buXG7crKNqpslgk6X7BumE2BufibgLy7D/n3tMP5SPQ5R2vv1ffbrL3i4y9bJK37JC1IO7b9w2rT/gcwMj83GZlZs0QEYiIafok4AT7FPW9FRyz5mOaAN2WE6AebHjl95bOb8+/NPpORkJFfy/SEFNvQiAgBjmb6Z9t/fQoZ/T/sfzAj5WV54+UzVY77x/cc1uDgeIQH/CJgdDLEkLBPA4p9U/BDQ0YzokVP9lNlfVp8TgOxbT/c/bvN935NPnOb8+/PA8P8p/T/79R7zwCarZSxftP/8m432n50VFr7+b983dAD6SPBvbAjgKcjKboWustPh9IE1TsC4/5L9g3AC4vzkY3hNmqOn4PFk+z52fv7FdIgV+/FTx6Fk0f6HorP+O9r/EIzU+uF/cwYdgCE48auIEtB2nuAwCrBNXbPe22atzdCbbScg7k8+hj92WfyejXYAm3faZig7cSQ2FM4mk/afjcqGY7T/DSgGv3Gls61L5vd9QQegjwT/xoYAMrg9jR/5GhsKY4vMehty+8vscwIwlfFY/+N+vDc3P7j1sZzz76u/WZKJeUrfMz4a+XDyHuwrJ65/af+5W472n5uN+Qb3tz8i/gWLSda/6AD0keDf+BAwBuzIIzYUxp4zB9bM0dvYkN1fpnEC2jrlED+dgFJ48jGMkt1wwhyp7M/Lr/fIyxB7ByBzA6f9DzIJ2v8gJIMPuPKb/gfpAPSnwfexIYDsfffaUhY/iotsyR4gF5HoWJd/gHZ9mpNWckLclvoN4IEPdZfrMVj6d/bGx335rGU18jI86YuskIXQ/rM0AO0/C5SBh9JVcnv/I3QA+tPg+/gQ6Mx4sqtsKIxgwKPGt+gaG7KzycSQ7te8jASYJx8Ehn09yluaZqt3tmPpLjkbw/Sjsn3n9RgcrdtMIKZXOZG4nva/oRlo/xtQDPkGo1/39O7auuE8OgAbUPBNnAiYGzmyWd1hQ2ezJDCp5Mc2ZGeVaUYCOuUgbI98adbvhzroynuSlIPi/uRvqmjm/rH0z14MRlJ+MRTKOH1H++9tLdp/IWZ708Yn0wHYmAg/x4YAsqJdZ0tZ/DCOqm3WX7Ylf5BcxDUsbVDTsUf3ARgNyC/PgSs3S0J26JiunhgkL4YHEj1wgBwZbUV1V15rn6Fimf0vFw/aP+0/l20MOg5Hqb1BDcp/QQdgECkeiAuBtllYzoUbuy19EYl+jS3ZueQubVSPIS5gKzgBx2EufPB8tSurMfJxTSolO7Q1qlOxpO2dXLLidLyuVe+KAMzTbOmMKZLrbckOSy7tn/afr+2lldyS7dxktoM8RgJxIWBu7Og4fmJFXyVTapp1PbKvtVqRP4TQ3k177jSn1M3RW+NJfwxydy57u1EtG+KyOH9l1dlS1XJrnOHk0p32n4tM7I7btX9XbsxGBPdOvvwmgBv2Xbhhf8NXuWm5u22mOsZXmSUgrK5Jj5Eq+SeGjqttVcdNy7YdM9UCW/LLXW5ti/4+RlsuscUBIym3IkDyJFvyw5RL+w+Tvj9lW7d/V36Hh5hDsmnLKYBsVHgsNgQQDLUKqXWvtqkwggLvx43WmoNhU/eoy8bNb3dEJ19sS09EiLuOK7NtyQ9bLu0/7BbwVr5t+zfaYevrnL8vOgDe2o9XR4AAcrvPQyxAtzVVMBWQrpafWpNfpoInX6VHI5DtfrPqwhYCjCzch5GzhbbkR0Eu7T8KrVC4DkHYv9l3ZFm9ejGXdtZ+eLkK5HES8JuACYTDU+QNfsvtLy+B1LQIVDui/zG+90agZ53cha7fyhbMfZohZ+QP+t6X6l/afzxbNgj7RzDxj4aiQwdgKDr8LjYEVFJ+ZBKC2FQY8n81Yba2skOdTb2jKLtmrv4hApAOtKqbKw+W+tN/Hz/afx+JePwNxP5FXkB+kKeGIkIHYCg6/C42BHqXw91kU2GToS6ZlEc/OU9bfWq1WYcoyK5t1UcilW3OeUnfdEwElNLZN4WLF0T7L55d0FcGZv/u8L8xOgBBtz7Ls0YgZTGSvJ/Sm49w5dHxTXpkv2N8mycBE/SEJ39r+zhsUMM8/cd9298NlcnvDe0/P05hnhWU/WNK9FnkCRl2wzQ6AGFaA8v2lcDyBtWBPP4X+So0u7AdK6vlfmnC5pp85U3A7K+AfPwP5X1BkSdiqmZt2pGzirw8tpfR/qPddAHafwpLl/Oyf97Aom0z1K5AAh0zlIkFWFzgZYWfrmT/uhHBZwosXNFoXGGmTbC/7+NOQsba1shMLyytV8ttlxNF+bT/KLaKSJD2L8hgunSWej0fEnQA8qHEc2JFAEb9rYAU/vbEFn0vRgKYUXMI4MimOGlESv6MG9OUIU7z5Ss4fwvauovYVMmX0qMhhPYfjXbo0yJQ+xdZsa5TZvaVPdxfOgDDEeL3sSOAua+nsfzlliAUx/LAI2tHyuOMCchOO7NqQqPzd8T69sro/F2VkJMEGytl16Y8jtL+o9POQdp/ptZKLni/Sa3JlwAdgHxJ8bxYEUhVyjQovCoIpZHMZu9ktfzBbGcbRHlxKaNmnt4PKyeeD2LY3zBBO1xbajv+FdvWtP9iyfl3XdD2D6/3JUwBFfTgQwfAv/ampAgRWHa+WomNUs4ISiVHyU7JLvmL2dUuqDKjXE5di25ACt7H4QAEsloCbf1WT7dcGGUmQepG+w+S9uCygrZ/o4GbKvx+RwdgcNvxSIkQQBKM+8zWuYFVB8PcGIb+A+ICzg+szIgVVHe5HoOb36OY728OTDWkgU6n5MjlTWptYGXGoCDaf/CNFIr9o5pYXfPdZbNUwVuj0wEI3kZYYoAEVLecj93gFgRVJJ54k4gL+DGSffw+s1NbUAVHoJwJrXoXt1P+js5//yDVwdP/BcXc/ILUMayyaP/BkQ/L/vF7e6C9URW1VwkdgODsgyWFQAC7pXXCATgcT+aBPh1m0txWyRtI+XlyCNUOtEjz1FM7R1+NIf/n4QBtHmTh6PwfKfbmF6SeYZVF+7dPPkz7R+3aP1wrJxZbSzoAxZLjdbEhsKxRLYahnxO4wtjoBmvSb8YyoD+W5B4CSIRU26xPl055A9H3Z6HzD/R+gmHPtytGyDGBt2vMCqT9W2qwkO3f7ICaSslhhUT9b0wi0B/sxoXzMwkERQBLo27CKMAvgiqvfznoGHfHHgJ/rWvWV45t0qP7fxfX98ahqamSP2Ar2hts7+iXlZELtyMhhy0+V63O+j0PDiBA+x+Aw/OH0O0fNfBj6gsjlXz5TaBujr4LN6dv+Co3LXdjZzM+7XiE2hugFugcdX+VkaJzJfaovwZPzD/t3cCl/9eRf1/TovfEjWeayX8QprK4cR3+j3r1YJg6xLFs2r+3VouK/ePp/2Y4dad6q40IM5h5JcjrY0UgOVKO7v4wM1e9TRiK966JnyVpmY4RgTsQnzC3Y6YKLEixqDpjqLNmhByJ4cILcH0UljlOY+dfVEsK7b8IblGzfy2PtXXJ6UXUZNAlHAEYhMT7AY4AeGdoU8LEVj0+IfIyygg0YC1XndKuvJBw5I7uhNy+/EK1Itd5QR+vm613TCfkBIxYHI/Of3zQ5eco77q2enVmju94OA8CtP88IOGUKNo/pjGfc7pkXxPcmV8thj6LDsDQfIr6lg5AUdgCvcjM4WFu3kStB5KoJt/Kmah2ZLS7GZncHjPJXPK9zq/zDJcE5tahwwmY29/aL7m+yDFb/Daqw32RVeZCaP/ZDSDi9v/a6i750som/+Je6ABktwNPR+kAeMIX2MUTm/X+ePJ+NLACCy3IldewvfEzmO+b31Uh89+drt4rVMRw50+crbfDROBeiCjaFxn09w4qbe9weg36Xsv87k45iMl+BpEp+gDtXyQu9o8Hg7c6EUzs9z2ADkDRP5/cF9IByM0mat8ga99eeNp9GCMBo6KmWxZ93kFHvSgt8iZ0flMrWYih+ffTaVmTdGT1uqSsHfGhrDbDg5Ov0qNTnTLSScnodFJGYehwFCL26/D505C7NYJUp+DY5DjU24yKIKvdQVl48JBHArT/GPzuXelAM0/F6Febx+YedDkdgEFIvB+gA+CdYZASaufqnVRansKQd0ks0QuSnfWykOWsbS1WHJT5Dn82OdP+bdL1JttkMe1KyD5+P/n3aYUHCL5IoLwJmB3kUq58CYllIhOAV94tsr72uPndys7fviXQ/u0zLqoETHut65Qv2ur8jU50AIpqGV5UagRMLvmElj2wpebyUqtbHOtjNnHqaFAn8ck/mNaj/QfDOd9SMO11R1uDmuoly18+ZdEByIcSzykLAktmqkVdjnwOT56vlEWFI1hJxCWkoNa09pnq7AiqV9Iq0f6j0bxay2WIeTk+CG3oAARBmWXEhoAZbnM6ZQ/jgcdG6VJR1JXVWJFwENb5X1EqVYpbPWj/4bYYHOAz2xuUSbgVyIsOQCCYWUicCJgoeuOBp7XMwg8SswJ82SYAzovdavlcx3T1hO2yKH9oArT/oflY+vYdDH19saNRXWdJflaxdACyYuFBEhBZ2qDmYKndkeicAt1KuOzYI9ipchP5fMc0taTs6h7hCtP+g2kc3F+eQxbQzy6rVy8GU+JHpdAB+IgF35HAIAK4CT6AH8m2+OKFQV/ygCcCxrHCKMsFbZ2yD3f184TS2sW0f2toM4Jh/5d2ILtfWCnAuRmQ3fal9BIg0JuAY7faZv1N5MX/sSjmC/DarAi0fDKl5PTlDarDqyxeb5cA7d8K31WIMzoDDtZ9VqTnKZQjAHmC4mkk0N6ofoGFs1shX8BvSaM4AibXAtIbn4Ilfvux8y+OYVhX0f79IW/yW6zDfQRxRqF2/qY2dAD8aVNKKRMCbTPUO7gRHoof8THozN4uk2r7Uk088dzYUyGf6ZihbvFFIIUEToD27wG5SeOtZarJb2EzuU8hGtIBKIQWzyWBXgL4Ed+tumQycvM3Yp3AaoLJTQDrmp9107ItnnhOD2uuM7d2/KYYArT//Kkh1mWNpKUesS7bYsh/fv5X2j+TewFYYMy9ACxAjbDIT87Tm41w5RKo+O0Iqxm8atjEBCMlF3TMVPcEXzhLDIoA7X8I0q7cnHZk5tJ6FckMoxwBGKLt+BUJ5EPADOchec2Z6ZR8Ft7+7/K5pqTPceU97Fh4DoLHatn5l3RLZypH+x/YxuaJH47vFfgNbIHfwKlR7fyN1lwFMLDt+IkEiiawdJZ6HRcfMmmOnpJy5CxHyan4PKZogXG7EOv5ofI1m46Ve18+U/XETX3q641Auds/Ov538Ju/ck2XXL2yScViWpBTAN5sPuvVnALIiqXsDtY16Wq3Sk7GMNs5CLfdvhQBZOY3ldyIOIif42l/QSnWkXUqjkA52H8vmRfwO7gx6Cx+xbXKwKvoAAzk4csnOgC+YCwpIRNb9c4JV05CJPzxypFxca8chjifVFpu7+mSO5c3KWZKjHuDWta/1OwfDm8HAoBvckfIzXHOYEkHwILh0wGwALVURDZpp65K9sda+BNwAznCcWRUXKqGTv8VODC3JRy53SwHi4ve1DNCBOJs/2lZ6STkHqxquRkb9jwXIapFq8IYgKLR8UISKIJAk3LbRB7BlY9khkir5Si8PwDOwO5wBiYVIdHaJb3D+3/C9MV8LOO7fVmjWmytMAouDwIxsv/eBnkVtv8I5vYfxRTX06XWSBwBsNCiHAGwALUMRJrlVNWu7Ikn7d0wvL47Ygd2RudbGWDV2/GE/xy2P3w2oeS5trXymuCGHWD5LKqMCUTA/jGyLyvQKT6Op/zfdSXksagk7LFlFhwBsEWWckmgQAK9NxuTHnR9itAmndyiUiYlHdkSexBsqdMyRTsyBXsRbIU71XiMGMBHKPCFpEWYfliMJ5pFSE6yyHXkTXxetHadLIxL5HKBNebpMSEQiP0bFlimio5+MX5HSxxXlrhJeQtu7mLE5ixBlsqymtqiAxCTHwfVLEMCTSqFXMOLUHPzb9DrE016lLOJjEykpRojB9W4kY3EVEI10o1WYhvjTpWStWqkrHV6sJ1xhXS2TVOrBgnhARKIKgGP9i8p6azE7wBP8mt1Qjp71kjn+01qTVSrG4ZedADCoM4yScAHAr03M97QfGBJEfEjQPv33maFDyF6L5MSSIAESIAESIAEQiZAByDkBmDxJEACJEACJBAGAToAYVBnmSRAAiRAAiQQMgE6ACE3AIsnARIgARIggTAI0AEIgzrLJAESIAESIIGQCdABCLkBWDwJkAAJkAAJhEGADkAY1FkmCZAACZAACYRMgA5AyA3A4kmABEiABEggDAJ0AMKgzjJJgARIgARIIGQCdABCbgAWTwIkQAIkQAJhEKADEAZ1lkkCJEACJEACIROgAxByA7B4EiABEiABEgiDAB2AMKizTBIgARIgARIImQAdgJAbgMWTAAmQAAmQQBgE6ACEQZ1lkgAJkAAJkEDIBOgAhNwALJ4ESIAESIAEwiBAByAM6iyTBEiABEiABEImQAcg5AZg8SRAAiRAAiQQBgE6AGFQZ5kkQAIkQAIkEDKBZMjls3gSIIEiCYxv0iNllIxUaamWtIysSMpI0VLtakm6aVmtk7JSr5OVy5vU2iKL4GUkEFkCFz6qN9GVMiKxTqoTGr+DChmp0zLCFUmIkg+0K/92E/LBpQeoDyNbiZAVowNgoQFcR7p9H1pRuMnzVXYEapr1JNjSFHTqU8SRyXi/FW5uWwFEbQZGuhdJAn/1+veOEnH6ftkjROpa8YUr7+G6Vfi3Mq1lOU5fjPP/4SbxNylLOqapJb2S+IcEIkNg+pP6044rk9GZb5VwZQoseUsoZ34LdRklu/F/GLMxfW3+hx8IzD/zUjhu7sMNj+ILLe/j3wf48l/akX/i97AY5/0DP5PFXRXyj3n7qrd6LyurP323ibKqtO3Kwty6/C5DJ2S03zIpL1oE6pr0GF0te+BGtRtuanvgyX5X3MEyjp+5kXl6ObIZrjf/JLHhDokbJB6XBDdR4yS4rhgnYKGj5RmUP7+tXr1gzueLBIIgMO0RPbZSyR6w9V1wD/0SypwqqfUlG5NFx138S8kn0Pl/wghQxlHo/Q0Y8Qn8L+MkuNKG39sC/P7m45z5zQep5835pfzquxWUch0Drxtuptei0G/7WTDu0y911Ksv+CmTssInUNuqj8SP8AA8keyFm8/W4Wv0kQZwCNbiRvk87pf/i6PPLm1Q8z/6lu9IwDuBht/r42Bj+6PT3R32P8W7RB8laFkD2/+TUvJUWsmz8/ZXz/goPRKi6ABYaIaaFn0VhmG/66toLYvaGpQZ+uUrzgSatFNXJXvBoTsBN70jnYSMjU11XMQVaLkNN8WfdsxUC2KjNxWNDgHYf8Nusjds/yQo9TV0/v8VHeWG0UTLv+Gk3IHpiJ+2Hqj+NszZsfiaDoCFZqqbq5th4A1+ikaHsRwjAFv4KZOygiNQM0dvgyHM0/A0cSxGMicEV7KdktKuvIA51muctXJ3W5PqtFMKpZYKgZmP6R1hM6egwzkGnf7/i3u9UI8XtZJrqivkzqZ94mv/dAAsWGLtHH0hbo7zfBWNp6+2RhUfb9nXysdXWG2LPh5Pzec4DoY4S/CFaYI1qNvtWIVwedtMtbAEq8gqeSDQ8Jg+FfPpZ+E3sDM6fi+z+B60sHgppgnwsHe7cuTy5gPiZ/90ACzYRl2zPhWmfqPvotfJCD5t+U7Vd4HjW3RN0pWzMA10OuwgE3jneyFRFOjKg1DrcjiqT0dRPeoUDIFM5H6PfBv2/010/GNKsuPfGCViaFHPRxArMDdOsQJ0ADZuSB8+f6pVH4Z50gd8EDVABNZ2b8u51wFIIvWh5nI9SXfJPETZHxkpxQJWBmuxX8J0x7yOBnV3wEWzuBAJND6sp2C10jx0hIeFqEboRfdOD1zasr/6dejKDKMAHYBhABXz9YRWvQvWV/6pmGuHugZOxdfb69V9Q53D74InMOEyPTbRLbMwv39+8KVHt8TeZYWtHY3quuhqSc28ErjgKT2uolNmY7TL15VPXvWKwPWLMf0xt/lAdX0EdMmqAh2ArFi8HUQQ4OaYF/qnNylZrtbSiJUALVm+4aEQCHz+Wl3xr1VyDkZmfhCraP6AWcERWIA4gTOYVyBg8JaLa/qbruxcKtNQTCOe+hmflIu3lr/BEfhWFPMK0AHI1WgejyMOYB084kwSF4+iNlyOEYAbMQJw+oYDfBMaAQR6Hown/mvQxjWhKRGzgpGB8Aakbp2x7Hy1MmaqU92NCNQ/qg9F5/FTHKb9b8Qm10fcv2/o1jLj8gOjY/+lF5WZi37wx9v8LtKkw/RbJuUVRmD8pXocEj3dgVUeD7PzL4wdYiPOcDrlTTjH3xGsBy/sap4dBQL1j+v/anhE34jO3wR8ru/8TQCcefHvkBzA7IwqkSXgFxn7548wY7n+/w+WsMRvqTCgaGXK8ruCEZdnVndUpuVNqHlsxFWNrHqZqRJHrqmtlD9NmqNpz5FtqcGKIV3ul5Ge+u8Y7j91w7fro9/X9yNmmd/Gn82JPL6ez3oH6WP/v71rAZOjqNanZya7mxAhFxAEks1eHgFBuCjIQwQSHkkAEUVAXgIigqgXDJLsbgKyIEl2E55RQXnIQ/RyAZF3HhASQEVEFLjCVV5ulhDeXB4h2Wx2pu5/erZma3q7Z7qnu3p6dqrzZbu66tSpU6dq6pyqOnUK/Li6fW96nI0mC3ysUsAoAJoYDycRkXtKw1nTTc2gqanBSqDlY33j54llGN5uANiYEqAmyScHsIKye79Ff7OPzPrMY8Cqw4GOZaKpfaH4KYT7gxBeWxTN9OXZfjn7l8KeSZVxqlKgxjFMPcFzXQf4xX4RcGLiGfaTwGyo1mMUAE2ch7D+Hx2o16fpIB14DU53DkBATc3kjXgmukOY2Eo5AMPAUaxUtcwR/42LkCK1l6mUJpOvmAOti8ROvb30DCY0Z0rhVRDaA8KsaNavCnsp3CWcilqmcZwMSzj57ZY2HPBLPvANr4JuwH0It/DVxjI6zrdRADRxO7WentWBGvuok3XgNTiHcqClU7RhK+d+CKrRQ1NNTGQcSNMxYiT9fexssUtkOA2i0ByAYPoqth3/AiVtQkFIM1ZVCJcKM6wqzEvBSuHPMM58Kg417MRXaT61bDXsxOcsT4VVw858apoM81vWNUUn4Nj40+wumbPG+RgFQBO3u2dZT2tBnaVJWvAapEUcgPC/CYPXXAh/8xsp4oyeDwiabTIZemb8XPF9PSUYrEE4gJn/5ej57HOkwc6nCj8pxNQ4P+FK83nhrhRfmHxMCz+MI0jYWQcnDkFb5wT9DQaCsfZ//O7Mo4sDsBb/G3BHrtXh+uo9V7Zaf9ZFdz3j3Xy+2KxpPd3Pe9T1zIdq1h0D4RXwIsjny80TMwc6FovN1hHdiyNrewwpWgox+WaAIGEv2KB4VHgvnOXiy6WrZYQNc35+vMrMpxbSYR9wBW4bjKX/m9mNZL6Od44e1YEWTiWMHYAGxo6dK7Yd2U9PGuGvgbkBUMKH/A/gZ+GqAFkMaAQcsPf7Bf3dFv4srPhR33LmHHT2K+Flfqcg5HIkjN8ww/HjhbNcfNDySsEzHc46qeUHTId/kR9g++UXnE33YxQAjRzGTOYxHeihAJygA28944Qh2g5posexsNdcz3xISt2hhJ3JxoHGX0A8LcL7z1gO/gNK28QuUQo8KcjkNyeWEnYSXjdMWHq4HiqOMGE/dS2Hn9P5YVz8wK0yjl3eprv/my0Am9t6/rCP+Mx6elcH9v5++o+VsywthoY66E0yThzx+xyUqqWg0RzxS1pDWXR39xo6ijos7HyZRwcHcMRvb1j5L4FAzBu7ugk0NU4SocbFGeby1fKc32pa0HAluPzkCUqHhBd0T1Mjfa1jkp7+bxQAbjyNT3OneA5LmjtGXQTcql7yaps1PWq89YZvfKf4AvbcFteIpf8bGPheyBK9CIXlRQza/8C04e1sllZnUvTh2gytGfkxfchXRm+7QGzY30ujUv20YTZDo+GPfzSOprbAkcsE5N0Oy7xbI/+O9lG8hDc66FxuraFDzFXY0TcUPPtNQZ+4C8Kfj6TxlbaDM1EZ5mJlmvOtpukO8/0qFr2AvsuX7LzIvwUIsDewWrQW//9vRD+tXU308SVTrI/ZY2E6S6NwM+UnrBE0CquxG4O8LQC/A/Jvj5puje+dgS/jWmdZTz918gNbCk+ptDzux5oaaCqUgF4GjfIxCkCU3HTBBWvyLnSwGS5JoaKwTrSqp9XaKhSSOs/cPF8cRP10d2KFYI6ehXLyB0rTQ9kRtFyHD/3mOWJHOCSZiMFy/1yaDsDov2kSuwXcYN+3ot06PIm01SpNA/787ykId66ImzBT49TKqvFRhxkf0f9C0C+HwF66zqJHdPjQZ7sHCMFJGKP3Q90nosxNyioEzAO1vs5vNU2G5dsPrAozmO+BzinWYZwU5WMUgCi56YILjmQmQqde5pIUOiqXooN7plsPhUZUhwh42R+zg8eSJvwx2C2C0P81fObfhxnv+3E3zbjZ4jNw1/sVDAzfwEBYdVelav0xi7sFpwO+ocaZcGUcsJf9U/THQu5BQTNUuDGQTHe+1bQowoIewnh58zpBC3UIfCax1MMKAdK/BsXjBNCR7/+yzpzRK1wurVR6KZxqvhz9uvMQ60SOiuoxCkBUnCyBp3mu+AiCJnpnMoJuxvXAJ5co2iS5cGCrLjF2BNGTSPqUS3LsUVie/yNm3r/qG0F3rDrXeid2AjwKHNcldk8JOg5L8MeCvi09wGKNNkcEw7N7+lKxTXo9PQUFbyNPgSaFknxzsWrY+e03TYUbCEMI/RlK76+aLLqtY4r1VvgaRoOBDSOzOToZ9H0dvMq7QJbbIi71sEt1i3eLK8U/CS/fCqyVo5/hWuHIfAUYBSCavlISC98eB4DIL5CB4OjHbG1c9wzrjZIEmMQCB+y98Y/pCWj3OxQiqxCw207QnVjnvLBnphX5vRGRVgk397U00TEYBFuBN3K/FoFpFdQOxbczcD6TgXhvHOZkT6P/txQJdBdhY7NLxss3R5YLl0sfxPFbCP4Lceb9ObusBP/BsbzjcH/lDKwM7ILfAfRhPH7qqcL5gVdh1Lwclo+gts6pVpf8DPM2CkAY7vnMO75LHAlG/9YneCAwLGNfvWKm9d1AmeoVOC/IluEHvF/VWJCjXgwfN+Ne8Nmr2qyeqtFRYcF8NwL4115VHoJ22AR8CzYBv6ywGnWZDZf6ZHrXwTeJRXsXMUAVOl5hzuA3TSJX4WV+AasbohvTDTRn9oHWCglaK2/baDKH/k+0v02zWke3sBonK6nGBQmrsBZ9s3OydaNEWenbKACVci5gPm3bAKADVuFbvdpqrQpIUt2Bj+sU1/Gd9NWqOGY7d+AGvGmvtVorq0VDVOWyAWUqSz+DMKmanQC2A/aFTcDvo6rTcMdjnysnOrogyFWBooaZEep3ubBbuksctpLuFP109rxDa7//n7dIHNQv0P/ZTsClrkV9SabLt0xUv/2EHe0CJXjfrkPC9f/8UoYkyLy1cQBHsO7VhRzLUm26cA8XvPAxf1q1hD8E1fMQ/vusaLOOHg7Cn/sEG5929xIbTE3DAPhhNfoJjtfezr42qlF2rZUJo79zQPOg8OcK8FI2Cx5n2I8wUmHclsRV3GzNn6MvdE22vjYchD+z6+Kp1kNNzbQz6vVDfH7EcUMUAWecyhOVf37DjE/BAY+Bt01bFK7/GwWAmRrDg45ys65iYKh1Rss8kQiDNl11DIOXvfxhqesnYXBUkhca+jsYXs/s6aWdIfwHLa4rQZbEPHDO091qXdGXoW1g03Ad/ueFSXy0fgrGbLfFV1xtlsTGbDhdMtemXhEgQwQWp/GjwvgJswBz5svHfYQyzoQjm11huPa4DTOM/nTsZPWhXpfBeHECOHBNoWqqQFf55xUv+a6m+wnDMLGBwvV/swVQaDX9geYu8Sp+YWM1lXQNBuMzNOGuWbR8z3yukZ7CKYzInTGVYgoG3KW9KTr+zenJsWouRW8UabB1mYR634Y+Hq8vgSy1ds+05kVRh+GGg++Zz+To7xDqzQXBLgUOV9ZN0LjFecFKhg3N8xiO8h1ZjaN8kqS439OXiP3TObodfP5kga8qX1QeqvGVhmW+EEaBeY0vbk7VaXlYBbhJV9Ux+zqNz7brwl+reLNN9NM4hT/PgnMWXbBiLU2uJ+HP/WNFq7VsXQrbAkLPJVhefRD8nj22Swy9vc4rQx3FZwT9BvP6Flv4c729ZqRSmDhhpLKgpjvDah6kQQm8EE5rJtaT8GcWzJ9sPYLVgM8g+EiBzyr/JJ/km/lYabg43xycUvi8jSvgH7MCEJBhYcBhCLg1hNHLYXCUyotf3l9hFLVbKZh6SoMXxmPxQ+QjmPE8OXora9HRcNH8aDwFJrcUbLtcCA+GP4qLQoykK1MNtHP3tPidJ8VVx6DltC8S34Yw/nmRMFKFt0SoxrmF3eI4rzOe6N1sio5mQShR1+u7fbH4MXh/nl1/J5+kEqYqB5WEVbwwy8ExxV26DrY+CMJzswIQhFshYXvarVfQKRaFROOZHUZRn4Nr17M8AeooYfP5YjMoRNfGVWWU9Tx88e9shH+e41iSvwDzm0PwvzeONsBANpb6KJKz0XHQq7uMGQ+IsRhrFhQJfy5UCh8OswDhp5zwUfN4hWHox7NfI/xtjtLcKdb5EMhTweG+Ip5L/pXjuSrcvcISV77IZvh3CLwNZhSAPPPi+5uj+ToLgxLwYxZ+OsuoBdwj19NPtHhfdKk8lv3/uLaX9qy3JX8XVhRFdbdbi3DPwD4QNLGcEuBtsLGzxS5FRNTpB8aB61F12IjhUQWFKky84lUYDjtxqPny4cdxvHXPJHnxs2mu8h/MxheDhC+i/39QVsly8pz5yk+peE4vbovTBlwZc4qvxygAvtgUHRCclzzMS/XRYXRgStGGI4VikepIrodP21lNGp7rYnj4bD9WdvZ5u8PCRWTmcXJgxQzrrxAhe+JExGvOtKi/ofClUhlb8EWNuqbwtS0RR0N8THYIh/xYrwoMVbio8cHCDzSNo4l8A19NMSkmYuG7/0nctrgHBPnrJYU585wftU3KhTmdH5kXbxwJD2RnZhQAm4Ox/9G7VCnoCNgbnB57rRJQIFv9g4xfxETKNXy2P6ayarYYbAf8A9e17o4ZunaXxxjQdofPh1NrllkhCWerf4iFK21BwrhUYS4FhixDCg4Zr8L6CQu6jm+o4+NwEqV5D+XA3MOsF7A9siva5CU7tZxgZyA/MM724zwp2g0K4Cl2OT7+GAXAB5OiBsG58DswGOY7Q9TIB/ChYa/kq141oU8sWlj9/xg/gmbdBPLM3xy79M9lvq8C91YciCnLKv+5KoPE3msX3/lQWe7azjUiBzsIvrjGKcC5WjLOKThkvApTJsxe/TC7NceOmU8+Ht4ewbbMRAj21wvtwPnUtgga5vyqosDf/ORoHt/5kP8o/dcoAKX5oye1w8qhM5yvB/kA1hQ1YUn0d1t2iFFay0kQcnb4A29/5+omCcZVS83MPziX7UursnQwBi2tNgEY1DbtW0MXB6ewtnPYDn9S9D1bKHBVVMHOgsIZp6YHCEP5Xcpe/Wx85o9vDsyZar2OsYP7f7FNQJh2cVMa4Icg1U+z/RBmFAA/XNIAg9vMbtW+JAoPVQ2NdJUG8pOJMk0XaCcsR89aa+lL2ssZpgXwzYcwGDsY4kjv6QBB39uyU2hfCUpSM+FOkPykwk2YuwkKdfboNwxr/5GNpv9X2u72zYfC7v99hdm7l3LGhfhtF7V9OZtFZ85aKsaXo9MoAOU4pDEd9wPoXQVg2lN0cvM8cZLGaiQC9VZzxAQQcqxOYnJZeg9n26d0d1h6hZfOSiQA98pW68+YnX5TJylsEAgnOPp/XzorEQA3zp3vAAOwI11n/6pwqDScp+Vd7GUf0DHJ9P8ATTMElA0DMY6cWFj+5zZxUwIqEf6yfVFqf3/5/m8UgCHNE18EPKfdiYZ/VHuJWbp+3FwxWXs5VSwgrVmZwmpNDnvLX7WXsatYz+FSNK+AoS6D/tP1VOyUerkjA0vLF9ks1CFMWBDlhdGx5qhfNB0VV/neDq7m+7+XoHe2JRftBesSD8+z35i5SGxRimKjAJTiThxpOToDwqVfZ1GYDWXSRHeP7xRf0FlOtXBv1SXG4odxvM7ycfPWBcbJT8QcXktn69wG434P/DMjpjpx6KYvFdug/+f35F0EgU2wU5gwHD9+4gEGBYPd+z5s5zF/IuFAUxOdDcY+V1gJcLYdl6K2jzOd0/jxik9RA+w1ZtkwHn+MAuDBmLii+YgUGkH/Pj2MArFEuHA4ngzAbYgdvOSrq82wn7YcRn91Z1Smi58Sr72V0kSHQxRpMwrkmzK3vETEezmRrGBM73QfXVgQFF5CgWlRhYnfcD7fY9i7viim6tRNMbyVkh1BR0CAr/YU4qpwd7YZc0pNd4btZPr2D5d5939tg2bdtGIEFf14Hc2COq79eBRE5IY4fbCM7ySIgOxEoBjXJbaE5f+3dBHDDmyymYHZla5C6hhvzzS4x05ptAfALKihn6YPVxbbs3+LjrPr5xQQLBD48RvPsE4hgmNrfKsfJ5kneg7MP9B6GePyqb7ayNk2TE65tkX/z6zz7v9GAYi+TQNjZC9yWKr5buCMlWRI0WbI9oet80ZzlWBIVB7M8E7VSRBWFr678hzrPZ1l1DtutoWBpLpDFx/gefO7G3cMT78AmX46pawQYMaWExQM4xQwyIPVrzPq7VY/ZkWcj20PQPY1wnl57NIONj1+2tAFBjf+neXlF8AoAHG2dImysL98d1bQnSVAIkuCUPsUbq37w3Dwm45tjW9HxhgHIux7Lv1Xq3WPI9p8auAAjrBNw3xVy+kK9PfRoxv1nhDRwBJfKDFxyK9+uQz8NoJS8QygChuGVeLs8/5TrHvtOPNHKwfSGczS+eIgfrzaTG2rIGELPmGy7q7RjQKgtVmDIYclOzvx0LYfqlKDI4ibZlL0WC0bBjbPFwdhyGpW6xVlGD68vx8lPoPLmwOvtVor0fcD32bmjbE4BUac3yiOqf0vzOqmQFhsYQtxro6X4PCKdwoRxiHj8M6M0Le1xkWZZ5ADsw+0VmC1Je+8R7YBJ6thr3bkeCesmg9hTGZcj90aBcDmXDL+2EfMBH09NmpgEwAt/0H78pzYCo2uIBxzOTU6bA5MOVrABpqOWPOpkQObbEIXw2r/DR1FQAH4Ivp5iw7cVcMp6HS77FKCgQUBP25Cwi3fABwExgIWSnZe8ycWDowcR50Q+HlXwVyiQ4jbRLi1mRusbG87E/5YtLebYyCjAEgGJeTNV6jiJ7sgLnKwPDoK+uPCli7xg7jKjKIcXPozBntbeeOnKBA6cPSNwJ0C5omVA0+dYa1HgRdoK1S4z4K0lacR8bRFYmOsUA16pPQSybVj9QAAMnNJREFUDGq8X4GCpWisRZv+r7H93FAPXKp0kS34GUAKcWe7ucWr7ayGlby5fjrNWa5RAJwcScA3lICzQcbTMZNyeUunWLz5fMFGgol/siO1nvu/ZtW51juJZ8IwJDC1jm6GAvyWlqpZMJgbJs8IC57kYOFtV4cHeX7UgT+IkBia70Zj+GdzNPY/TY10Iwp91y7Yq13d4hVBX7RyoLQtTjSd6KyQUQCcHEnIN6ZCh6MhY7EHKFTZoslN/fRcLXgNxHFGLdfwYgma/80t8MQEYuUA+wbIpelnWgqFvQiuCj5AC+6YkWLg9nb7KwWEUygwjYpAcA0jT7qB5sRcHVPcAAfYNwC2X35qf5ZrKwZiGPmW7a7mU/tAilraFhf3f6MA2NxL3h82isKpAC1CrlRt2TgQxoiLmzvFgqTeJPjJDjEa1v8TS9Wj0jRcWXsvVmC6K81v8oXnQH+KroIitiY8pqEY0L/js7EZWnwkMfaRLkH7FgZ/dZBXw6og8Bsmus/s/UfSTBUjGWnRz4u2AdwEuxT8Mk1tdzWstjvH54r7v1EAKm4m/RlfbbeW5OCCVn9JQ0vADPs/MyPpxSSuBmzQpOx9DiU9VAwEzyWhEJjMoTnA2y9Q8G4KjcgFAdr3AJfomoqy+lEHVQB4hblWqgDwEYZR8PyaYsYwJNa+b0HQdWWVAC9Br7az7APynSru/0YBSHgH6pkBF5xZuq0aZKJzbMmrAbhQ5S72uFcNGtzKxIbnYW7xoeNy9I+eNuv3ofEYBKE5UFgGDY2pGAGMXretFTuXYsoHv+A5Md//VQEQRThHL3QdYvr/IKerF8KRwAVllTxV8WNSVcGvhrlv8JN/b9uxeNDOyygANmeS/ae7j47DQc6lVaNS0BE4cvfPcZ3iHOrA8FPlB97/vqyFBEvPrFMLrcMcac9M63kMW8/qqGZjlibrwBsXTqyO5Pu/Osj7DTORXsqCRb+Mqw6mnNIcwN0Lz0EJzhuCe7WtFOxe6TKe38oDb1sHy8+iBBlp3gnjQIeV6++lL2P58vlqUYaZ02j43L+0uZH+2TxPnFQtRcB2XAT/BVHzAbzN4WdyY9R4Db4QHBD06xC5PbPCJ8ABnokJT5i5ROyKmd4nyy4Py8Gf66OGvYQ/4iEMbk549euKPCh6t5ZsZynYS7SpxyrCQZKRRgGQnEj4e1WHtWZdhiZBUL1STVJ5CRUz8JugCLwIi+pToQhk4qQHZ//301EebB5+bzti0oHc4KyIA+vT9BtbMasot3cm9KGaVQD6xUD/V4W63zCzxBv2sTlTrde9uWZS4uYA+v6gAhxcyOc8hH8OSsVEWRf8FsxTSxzYqkuMTRM9Ds1tbCLozlEPNphm8/lt+3pXzUThdMKvIKyHnGcNWyzOyH57Rbt1XVg8pfLztbSZ9Ti+ZdGnAbcpZqL2NbUwvGKfA2z49ly2ke5MwuVDLbPFrtk0HZrK0VgMEptgergJlL/V2Ry9AwXwDcT93nZaVarCEaShvR9Cex8YAapiFDn691o87dG2SNyAipzkObjLWSHX1k1ouMUBFH3v9LlTrWs5m3mSwwEc21sOavYvUOTRfq5tzZk84HH3QAuf9oh19laohAlUzAE+Hoib/A7E6YDHsGRdfac9OFsNZeQXuUa6FN4Ef4OK3dDdav2p4gqWyQjhswsGv8if3gzdEznSAYRwsHQsLCfOgOe2icW7cXkAKAIDASIoCNdC6C3FhsTPsQ9+x0BKLK9tF4gN+3rpBzA6PRl0bg1Fk8j+Q3mysSmJbSCeRdoPXOt+COXvNmqiuXytbz422r8o8gFgjFwBwO/ni8DbHS21+rHBOGxXCOv84zG4FwZ9Odvntxrm3I68aNL7BrCaV4I4ANure9Dm+SOfjjYrqwSWgM/22/1/BcZu89QaB16Zab0AQbhvLkvvJYV2zA5Hg5bT8f/x5rniOTYY5BlvpPTBABEC5zOR4mRkgl54c7oVufc5tldo7hJP4of6Xxi0J/qlm2e88EdwO45gPj5+nvic33wVw2EbB8rbWX1r6WX0qwvRllv7wgVbDMCehjv8/sl+I8ZeJjb2lS8AEPAvDwDuGxQD386+gZMCiP4PgbBjYeCXQp3pCxMW9JJZ/k9KIxfTAV3vscjbG30Fq467cElGASjmd818sRKARtw/SUqAZB4G7R3ZYBCz2dfHzxFPQhBe+u9d4sth72QfN4J2BO7o+6wVsZDBQN08R8zFzP4PIHZ3yZegbxzB3Etk6UkoUzOD5vULz0J7fAM9DvgrQWtFChvaJAOl5T9T6+mfY7vEHn7L9gO3Yg0soXMaPGIK2sFP+UmCad0LW0fl3P/yrI+fYArBcjuP+ZM4DnQeYj2JCcpqe8WGqQvWrp7wWPGx+3/0g2niWDh8CXp1lvV3HA+clEQlgLnOgsFK0+4QhOdAk717w5H0AZaNn2GFgA0IeYbccrkY47eF0mkNs38UDkXqEb80lINj74njmuh2zODbysH6SWeFB8rUbLZ98AMfBGbsbLELhPYz3EZB8nnBsgKBPcUneMvDCyZwPE7AoO88GjhfuQxW7SkA+B3tGrUgsAVKSgN/y/HfpPvngIX2iUjwF/AMKMDGBsB/MyQScuUs69nmy8XnaR0tRONOSCSRKlEp2gXa5+A+Pq4dg1LwFmj/B/+HMH4VU5g1aUFr4BN+DfXTGrhvXYu0NZjbTMU78gf7wcujQpppont0GK0B54lQmJpWtFmRuIfeao6YkEnbio9vBcw3j7DlASWAutusW33nKQGI7ZPHkPylEiDBkxL0Wzl3sdgAbr8bM1lqaGiiRvwkMlDMmrACNALK/QgoQI34LaRhm3EIVgBSthLAAkEKhUrDzDWsGMDaPDIFOHhDmBxlOSBsBY3HvvyEvcTevm+Ygf6vYTgtWx0DoIEDbMC1fi39Nxp0qgb0wxclbp6DNfjmUVQQisyN+ImeHAUuLxxQkC6DEvBDr3Q/8bzsn1lHfwOtzX7gK4LJwTIgRZOiMAhtni8OgvHHgxXRUSpTlj7dPdP6RymQKNNY0EOaH482PAp4J4A/LYHwRzHwc4ESD79x81znVKv6xsSBGFFfwOctEgf1W+j/st24+hGE4VJ6e7MFMEz60ktnWR+uaLUOwSzhomFSpViqAQvbF6IoCIaPp+sW/kwnb6eM7xJHhqE500e/0yr8mbgUNUG63MuKaRhaOS+OHmoR0tkUbR+WNj/5O5aJTPtCcc4Ioh70t2vAm8n43+Inrz3QM2AEA75dnoonP6N8yRcdBqhqHBAj6EUd7Y+TSTsZBaBqzaqnYMxoLoBefwg6zId6ShhmWC38uEI+9q2JKZodEo3v7PBZ0OUb2AGIVQpeStzPEa3lE4PLpn2rqT0scj76GhaHW/50Tr8CwDf39a6jRzHYXoqZf367hYUwP37ectmX3xI+qjDwQSF53o03Ji45HLBvZwzb5lwd7j+yP+XDE4wCkJx2jowSdtCy3qKd0NzPRoZ0mCKChVnoGVBmFJ3Lwi4uFsEwcFt7xSFogXyPg0VXBs0WBh62Cz+I4vIdtFPkggrciGTrx4s/mPk3YZmV7/DY04aRg68czNVvBnCLl0J/6OCdH7vDxKM8bBn+y6bN/Ek2B+AkzCG8g7U/1072r4EwbEs+ZRSAZDd7xdTZs6Z19sBzTcVI6iAjzlWH3wLop7OrwKrAZTZvQAdgEIjXUBRbAU1Z2z9EKBZB6Qm9UjOEAIv+bUhchBGY+V+NeftuBZRewpwBZJo6SKvCXY2PKpzHH77/FypoAro4AGX1n659xNkXmAC135QIQ/kbYxQAXS2WALzsmhdGWGegQxwHS981CSApcSTghMGqMETheN4XceQvkAMcLOHfh9MNn0XbWPw/S/R5tNGSIHRAIO6I5fyWIHlgH/LlQPAAhhV6Z/8I2kTSihMTJ2P9OtiSfI6OCFquE170h2snJz7+xqrCRm7xUcS1LhaHA89JNi4epNXHOWh7DdIqnBdMmHjgh58J4/9fbZuEhlPcTrIflWpzpt8PHLc9O/JKaH0NWRFygI9jZQR9FkLmzxGiHRaoslk42QjxQIv+qu/ssIzHPvCXcOfA4d2zrPxVn8j8aqv1F7TRFKSd4BsXALMW7hUI8gjyf4QQ20d9gsbDHXG7ejdBzwzr5p5WaxyOrV3vt2j2MzCuS2zpF94NDoraR27xYeKgRAVS3IKUhZWlS4oGYs7MAzMP3n7D6kAfNK8feOCHb41Q/d+ui/mjnQNQvD8u6jtcoto/nGFOL9MHcLx2E6MAMKPq4GHPgRAye2LgDnWEbLixKpMKZywJBWB3vzzByH82jvDd7wWPtN/gR+3baA5GbPm9ZS+ESnzLPPEpCLxPKVElg+tTdNiqNqvHC+jVNus0zKD/6pXujAefvuCMC/KNVZIPgsD7gcUAGL0PBBTculB8EaJ+QtGAzQM0P2UG5QKME9Y5wDMefsLEAwduXIxcsbLpMn+i5YCFdlL7Tph2H8gLG4CNjAIQbTMlHhsG7suwHbANBo5HE09sDAT2jQg9A/IlVNlbY0+7dU25KsGg8KpyMIV0v0fJkKF/fYCLo3J0k0/L+8sLtJQJYKAZWwakZDJm1DpmqnpsACw6wK6MOmCXCjOwc0B3xpXKz3n58QsjceONWx4jV6wYvXmi5QD8YOS3cLmN+ZFvZ78JEI/flLEBiLaZagMbBNErWA3YHxrg1zB09NQG1XqoXHWu9U4YzFCmNvWTH+bWv/cDx/4cgPOPfmAhNFp8wQEo1RBAASB/nhFxhOxhv+VjtWC8X1g3OPDvQ7f4kHFabADgqyF/YZXfwZkr4Sa81cFcwvDbL141vxqWuIDnE6RFseISzBMhB0QaF79xu/OjvtV2DR7eNK9NREioQVU7HIDjoDtxZHA8lle/l9T7BJLOTb8GgNiv7/dbF/wofSklGA1G+8UJY68N/MJiv9EXrem1/m+jxC2DoWbbUDb6/NIfAE7LFgBsOTYOLaS9BnOuHKdJIRAy3DHJ6g3ALwNaLQ4IWl+Y9UsavPpIufjB/KONAiCZUcdvGKFdlRpJ28A+4JJ6Y0NoT3U+V1CwB+779jkI9vwMsnxjvFEeJA8BAerb2hvLjdv5wjvCf53gyd53+W5lQ6j6Vnbc8rvFaVN6eVm93CDMAjwBMOyoyI03Ji5ZHIC9yiibIme/4UjuR14KIad75/nAKADMIPNQ9zTrfdgHTF9PNA5D0031wpL+3oEfVqUV9nmMEEvYO46bLcoKdr5OF8Z6W/shB0vNvo8wYgnet7KA4eRYP+VjWfIbfuAYJtcfTgEAT/IDoN8CfcChTXTYFZB9ZMtrQI4znnngHPwdSkc6Gz1ffbDegATlgCDs1uApJezd+lbp9jcKQNB2GO7wbPyFbYFT+AgYhMZPoAwM6yXC3IiQA2DWvw1FagT4WeaBYc6VZUAKybDh6C58lAmUsugfkhXOgnBs77tD4pUInCrYFbOSkjAKOOG4Wbf6HTSsZQVA0/432uUPRfULOmj7hedCSg3wnO4Q+Byl5sHWUF6w2AnmT1I5gG250Xa7MYFB+kdp2I/MCkBSW7zKdLHA6GmzzsI1w1vYFwz5XOquMtmBi8+tCbe0nMuQ57E+JzEQmBObu8Tt9t0BjsSWDjEGl/w8hCtg93IkeX5iW2GhZ6JLAgTTIpdo16g00c/GzxWnuSXyKgVm9EuxUtDklu4Wt3qtf4NBt/yoqw5B9b5bWWHjmppw2RIN2Cy4zcpKD8p5Qy8/MKWEP+fnp0z5VlgF2C7E/ImBAxv4FvyyzeXbqy8RfZiJgXBTRA1zAN4EeZC8gP/bF8kI+ib2c4+p4SoVkY6Zaai9ZSgA9+Hudt8PRuWjGhppv/FzxG8xRP8eSkED3ntjP/oopAVyTDNiFDwKBnjggfB3cKgz1W8WwF4LheUMLGk/AGc+T2G2uAOW/SdBGE9FH/D/5OietzusUMvtoP0ToCHSB/XTcbKA2LCudZFYgLY9t9wMXJ2NBw7LgZ3fqsAPEIYjrFD9P9IGMcg8OYC+uiH6x+DsX7a5VAL5Ww2rmGQ8xxWHzQqAyicTLs0BvmQItw1+PTMSLlRzUAQsurvWXQzDOC6Uhzr2khdkZm1zOEWbQZidiT38X+NnewPiTvd7mqDQQuA9HxksfPsIrMvQXT7AikCglOwOYf8j1PFuvLts4V8E4ePDov/yAVUSxMqEayc35KhTKKXEDaeMw6mPixB+0/4uHnSjM/5j5HLg53AF5aAfbsFZzZNwDuTQ/7l9+VHb3Cus9gUvGBir4vdtHsOBYBxgwQNl4MbuGdZXUutoE5we+AoGUx7ktSypBqMuGDT2licEyzEUGscoLxgaqzcGjn1+FLSEN6dbb6G+lwXNFwYeCuLz7Io6DA47bzb6q3vBC21OcC6ZYrHr1iNs2p0DMEeqA3RUYWc5XgJDLT+C/m/X0fzRywELJ3NKta/aphxWYT36F8bsD40CoLfZhj12vnAIpwfuhk+B43FhzL9BR52E5exODHBLUHn/ludV4hRmtJ8OW/TKVuvPUILuDIvHb34YZ96ycpb1rF94FS7bQLPjXLXBKscMtfyKw6kARw59FoJl1R6foBWBdR5iPYmB+Bj8FnrtAZmxeAllr3iZhwf0cmFOVwd+r7AqEHLh+79Nl/mjmwOfLqk0culqe6ttrMarYUE9RgHQ3Wx1hh8rA8v5Ahm+3AYKwRa0lv4N7kYPxv7xdHTgm8GOp5PEEljd7xAFPen8HQv6V0By9Ba2LVorpZm3LPCj/16l+QPly9Jtpe4+8Itrqzki9CqNW1nwd/CCW3yUcZ2TrduhcG0HxXhJyQGcB2Z+1IFbVQrc0rzylItXhUAA/xQ2feZP7Bxov3+g/6vtVirMFKrpzj7FaQwi6EVjBMicMI82DgwYET6EAvh/4Rk7W+ySSdOOWIb9DGbhO0NJ2BLe4tjQZQy652YFQM0BzFAjES5QfLpbusQhGOiXgf4mHWRDkKzG/4NXtlu+z/+70cHbN81zxPawO2hzS48o7k+wgz85ClzwARB6lcaNjv4sPe8WH3XcvEOtlcA5pW2xOAH9+3IMzp8sDNA8GMvBulTYYxAfojAMDO5l4wfL3Dbq+hp80XIA1/buVGjPwXYrbfip9hePPoHf//9i7DWP4UBtcKBljpjBhmhRUwsr9+35tsQo8I7rFEekreDGduXKtpftM3REz3SrSJEql69UekunuAnC56RSMBWl4SphHB/df0D5qwiFmgntfiEbIqpxkYTX0kjewooEVwAk7YvFDlB4x1tZ2hX7sI1QfFdjVWcNBnm2SeiFSvABFMmPOC6Dy6pG9NPajinWW+0LxTkQBpfaRakDvFeYAb3SlHirn7afe1g0/d+mzfyJlAPoLz/GRGlmkaLIJShtWDbsAgt/36PNCkCkTWWQ6eQALKufjvgkmE0urkQ9CIFIFAC2h8A5+T2xxnY//m8aBT9g+rsKP/CDIfwjnbFim+bk8Z3iRQwuF2KWnV+CDkkwFJUHYBj6tSgFK4TeAVHPVMDTlT1VEP7M3rlTrH/gxf8X87ffB4rls/1yIHfOBN3iZRwX4BXmpDQdgFck/Z+LMk+0HMDv80Bb+DNaj9l82XhnfyHqYUPVSH700VbXYDMccOeAaKS/uKeEi4VwmRQOQ3FuNgrEQL0bBt1Hi1OCf+H8+33rUvRZ2FVEKvwlJdijvxjGcEdDIL4j4yp+Z+ki3DR5WJTCn50mYZvmixXT5JVR0D+9kpIaD0WVjQrzY7aXQFfj5aDPFfIKAx4K1sFJrXO909XxnGjAOLKbzQduW37UNvYb5nxKH4BS8SJHGQWAuWCemuAAG7CB0OhPFmTtGVCkPGBPinzlMpB+FT/YwLMrzKSfx8mC/Ve0W4fz8b1IiXMg41sh+9fiul4IcJQb6Gw84HOo3804CrkVfERc4EAd+jPdqEH4gyoYfwZuk9CVCYmg62DrA/D6dRuNMpirA3tR2I9wAB5sQUwMSZrJrokDa1dhcpKCszD14bbnx0/7esCgzXkFyigAzATz1A4HsGca+SkCdsLDRok6uICTEHdBEdgeM/kDcRLi6lI30EGYvgHN/DL83wcz6Z2wnfCoDprccK7qsNawAF+9jraC3/GTQcsDbnBK3J+goPwwi71s3krAjZKhDBMVvEVBeGqMdHVGIsf+euT9SOLW/H7Sxu8xsBcJBZ9KAn5TG89cInbVTLdBXwkHeHLCbc2P2p5+2r80zDOM0tgAMBfMUzMcgBB9Gt7LpkZNMATNl4GzorP1fmjBTP5hwPH/77ZcLsbgF71xri9vI4DjaO9A8L7zXkcwz35+yg0KwzRgmeVm5OP/tPl8sVnjetoU2wRj8H8NhP5buoS9K61Z+oqOaQr4z21Rcw+2Q56FwP6yLQyY+tKDvL8TBkCTzdn9v1aVopprR78E46jeMej/Q2f8YVcB+ukRpsEoAH5bwsAlhQNP6SAEs+6TgfdiHbidOPnqZcTx/1ecaUn7Hth+0LoF4VXn8fPE5yDgIvHToJaB1ZjXcJTyJTWuVsKg/a+2OJCCP6wg4IoDFxQLvtr5olrhQz3QyasycPrVUlDy5AqA+naGmTGyb3iFsY0kT33kNYt64Kap47DgQH8DLbf3nSOuDazgt+Vb7iJGa9CF4UCOTgiT3Ssvlv+XeaUlPV5ksHIhB3h+8yO/w4W3bVsoPm/jM38SwQGsyvCkpHjpXxX4nOZsey94NV4Mrn4ZBYAZY56a4cCqcy22Vv+TDoJhGHOcDrwGZwUc6BApLH+eWEHOslnQzkvLAiUUwDYEJHqiaOCXQoFp5jA/TsHgIx6K0fF2XvOn+hzg/k9QgKWS52zjMPHpQadsRgGoflMbCgJyAL+MewNm8QUOwWAGQF+c0g/UvAGMnzR5hFyfGhwA9ddESwl3Fwl6LkIVEBUIf85vCxwt5BqkQTlw3l7o/6rHSEagtrHfMOdz9Idc/2D/NwoAM8g8NcUBuHAtZ6FeWX0gcJrniZMqy2xyRckBeKc7O0p8Ehe2j155rdV2zSujau4NI8D7PGeGXBuncOA4hxCwYZzxRJu0LRGncLR5qsuBfoumebZxkNm/s91xAdCAa2q7gkYBqG47m9Ir4ADfhIfNTy3HznAWvuKLdiqoisniwoFxs8VncOLgSy5JoaOwrRDI+17oAjUg6JpqPQfh0OMqINyEg1MIsILAj1u8iOj2Rg31rheUrYvETqjroUMUObe2LdWWzLCh6UtUPhoFQOWGCdcMB9Bx79NBLIwBd2R//jpwG5z+OJDO0Cx/kBVApeiWCnIlLguW6+93GdwH6VSFe7AVge1hDPjVQUQmFDcHoKS2F8p0tp2bEqC2tTPMiJQ4rB79qoAbAaMAqNww4ZrhADryrbqIxZGo83ThNnhLc2DLTtGMZfpjSkNVlsrL/3B9/MfKcicrF1bA8v1fGdzVgb5IOWDSVUHilWcwXp8Cliw2Jo6aWUvFeLRV3hiZ24Mfte04zM9gWw1Nl/lsQPyR+XPU3XWI9XsZzW+jAKjcMOGa4QDc1y7jAV0HwfhR7I5VgP104DY4S3OgwaJZWIXRMi7Byv360qXXTqo9kLM7Yzm4M+lqWAoBNY7DTjgZVyxQPjt9idjfhjV/YuVAts/HrX/ONlTbTg072z5F1zkro+WH5izEfBsO6OAAZuo36MDLOIE7f+2qrgIM3iEc2GqOmACl7tQhCRFEAG8unaJfRoAqOSgs1Ecd8NWwc/DnNH7kW01X8w2E01nT/+Nu6Pb7xQQocafZ5bopZi7t5AnLCQ54nHIa0v+NAmBz0PypRQ7AUOw6Hth10I4fxu7Nc8XpOnAbnO4cwHW3N2D2n3FPDRkL5z/dM6w3QmJJVPb1jcqKhmOwtwlVhbwUKLIGKrwTjtNStFvbIvEdCW7e+jmAa5lvLJTCbcCPW9s4491g1fZFGFumy+ZMtfIXSdmI83+MAqAwwwRriwM8oEMJKLJqjbIGEEZdYy8TG0eJ0+By5wAfvwS/v+CeGj4WRnNDZj/hsVYXw6WTrHdwle9dNhV+BYVUBOTbTXgM4uqctsj0/zha2T5+adHetsDnAgfboHxYbUsZduT3Wi01CkAcrWvK0MYBaLY693XHZNbRZdqIN4htDvDlSKkszdfGjhy9ZfXSndrwVxOxGJg1OmZ8BUGixqtCobTgzwsdizZqJLMVoLt5Wx8UG2G+P6+wPeOnbcrBqO0u6O1+GlAUHZUxCoCDIeaztjjQ02rdgbUyPT4BmBUpOnl8pzistrhSW9SKdXQt+LyZLqrRPy7r7oAKMAyfrikWe8Xs8TVjVIWCqgx4hfPwp7QuFocPQ9Ylp0q8N89e/+Tj1R6l4jmvs31lHJS4S6ZYH0v06tsoACo3TLgmOYBOrG/2CI5g+eyWcV1iy5pkTsKJZjsL8PcojWS+37+OfqIRf/VRC5prE1FOQKjpqrDwCg/A41z6r2Y8IMZWv6LDj4L2ReLb4O+RRcLbqz1KxTNrnO2bZ9dH8Cr4Uy/OGQXAizMmvnY4sJZ+jlkeXxKk6xmTFvQ7wgUdugqoR7wtc8QOYOiVOuues+jyVR3WGp1lVBt30zj7NMDrJYUIE6kKEFVYeIUlPLYC0mn6ren/0bZ0+2KxA7YwF9hYvdqg0njOZzc5XeY1++d0M6AxF8xT0xzg5V2te8jMHYv2aBlFs2uaUQkivqVDNEE434sRqEkXWTghsrqhia7QhT8peDt2svowi7ykiB43wTEgFGxFgIHdYGS8fLMSgEcI2r11r4GVBo4wTygOdCwTTRD+96INmny1x0A7lGwzJ4yg1ZQurWAbBSBUM5rMieFAn61Jv6+TnlyWZsAe4HidZdQFbl5JaaK7YfW/rc76ptL005fOsj7UWUZScDc20VWg5V2bHqcg4MhSwl6FZ1j5zW+pNOCNkxTnti0WJzCIeUJwAP2/t5fuBp+3trH4bRvZLrJN1PZRwwOkQcG4auD6aE9ijQLgyRqTUEsc4FWArNBrCwCBlcJ+9a/HzxGH1hJvkkbr+JHwSGbRZJ10Yfa/pi9VPxbsHZNsI8dLbeFdiUCRwkUVJCqewfhbYLU+RWfbDXfcbXvh5FIK/V/lb9DwYHsUb+3IdiTq6yPqKsdLowCU45BJrxkOQKvm/TTtzl7gUvZ2rARoO7NeMwyvgNDmOWIuZpLfrCBr0CwXrTrX0mkXEpQe7fADxl5v2gWxQOGnlKBwg1EFkZpXibeydFf7QrG3jd/8CcQB3PTXBcF/SmGVReFrSYWAS3G2hzNOpvObqOPyqdZ7DFLqMQpAKe6YtJriwNsd1mr8SKbpJhorAaOwEnA/hNmOussaTvjBr7OwLN+mu06Y/b/Ss65+Zv+Sn7axl6DvFYSLFAgM4DfMsFIxUIWTmp+oAUrwwoFrazmHeXxwYMZicRbGjRm+20K2Q16gF2/juMUNwvc0Nfrr/0YB8NFwBqR2ONDdZt2KwWl5DBSPwY/5kZZ5YtcYyqr5ImDxPwOC5fI4KoJB7VvUYcH3Sf09nYdYv4OAeagiITMoQGzDvyIcahqHcTIARgGPzlxi+r+fXga3yq3wxZ/v/8y/0gJ80PZCVbzUsBcOwGTTdAq2hHz1f6MA+Gk9A1NTHMAS5TexCKbd8QvcEG8Kw8DHWuaKiTXFoJiJhc3EVbBG7mIbCt1FQ3Ld0d1uLdddTpLxw/H7t0BfX5GQYYJVAeInrAoZhudHicPJgDFYbXnM3Bxoc8bzD9z8Xg2+daq88wz7aReXtrDxgQJ2DT1/svWIJzGOBO0/SEd55tNwQDsHIAC6sxb9WHtBKABCbTRei1s6xbFxlFdTZXSIDGb+/22l6cw46GbDv3UpLIHX+TPvUGsljgXOKhIyfgULC3h+nEJGjZdhfls0GjcHLmlbKPJ32Nc579Xq46hfBqcmboPqdLod76cNJG/9wDphBPWOFMF+a0YBUFvMhIcNB15ts+ZAIDwfS4VS1ICB8L9ausRZsZRXA4V8skOMHj+KHsTM/5gYyb3ozenWWzGWl9ii5h5iXYZjYE/LmWGRMuBXyDiVAK4t55Xx8s39P0W/wTL39xPLkJgJO3ex2KC3D1sxREd7toHknxtP1Tg/4Xz9OjqmBOv/RgGIuWOY4mLkgMCPL4atAKVGV2I74MYtO8QoJa7ugmNni102aKKnMAudGFflRZb+AsM/rS6h46pLVOXkMnCxnHNsBUihw28WLPx4hZ2Cxwmr5uc0i34CJeAGFn78Wa8P20VkcvRX8HVfmwdheC7zOtvCGS/ob34N/9R2MQqAyg0THlYc6Jlp8QqA9lMBRUzD5UEjRtKz4+eJzxXF18kHVkF+kEnRExAGE2Ks8vu5NB0Bw7/8PnWMBSe5qPkHWi9jBeYMV0FfTqBwxZyKAcep+VQhNAh/SgYrD/VqHIjjkedg5fFxqFYTCrySipLKO6+wk+cyb6l4oo9gkHm4X8M/bir54EiueQwHhjcHxnWK36YtXLgR55OfeZ3f3QcXrXUgmDafLzYbmaVfYdCbHCebuaxsjqa82m4tibvcWinP3ocW9DVXRUAVLFwh57czzpkuv+VbMoX7v0U/6vwTVmXqoP93LBab9ebs/n/QEMEveSPf5XhaKt0FBwz/psLj32LJ+iBvswIQhFsGtiY5AAdBJ2NquDJW4nlfFJbv4xvoiWG9GgC3prgp8buN6+l/qyL84QPfCP/SPbupgU6CYO+xoVwESCGeA+rMlGGdcc50OUN1xuftYjrb9qQ/D+vVAPR/tn1YR+j/qnc/yReV3yqP3NIlv9U8ZcI4iXFFpcI/37R2C5s/hgPDmwNju8QeqRz9AVb7WKGM98GSYA5LdLesTdP04WSkxt4QYWh2LepWFYdIvO+/oo/2rIcZZtgey0IYR1afgJBqKJrllxEwdrleMJwo0+RbEjr0+8Ymi1qDGqlJdEl8szdE+By5FrR9uqA4eQl2Kfz9pnOFVR6qYZmGff/OJ2iPMP3fbAEwM81TFxwYP1ecirP711ersnxMDQPGVelemt3dYWm9uEhnHdn5EWYe7NJ3qs5ySuGGMHsPDk/+47VWK96VnVJEJTxt4CKfW2wyVYFSaVjNx0jlt3yrcflwLxTGBeyj3o+bWs6SxMdWpoR9M+ihQ+jzqrsE9JvuBSfjBX2A8eQzfORToq7kbRSASrhm8tQsByC85mKg0u6OtiSDBH2IgXD+ml66wnZfXBI4OYlbzxET+tMY+HJ0ZBxOfbxqbitSKdr/1VbrL14wJt6dA7iD/sfoe+fZqVKY8IdX2G+amt9GXgInhBcU4UuyRJeXuqteoknKu/1+MUFk6GLwaqg9hVp/NczEy2/5VuPUsJrO8fyocTLM1/wKOgBeH5/MA1X+1ygAlfPO5KxRDrBzmpjPp7tySuToHaxIzM6MpF8m+dpa8GuHXIpmYan/RNeKxBwJWg7umW7xGWvzVMABOO25BUvWx9nL1pxfCpZKwmr5Eo98l8KHNAif96BMzsZxxevLXVurFhN3GErTDvitnoftk8GrkP3UMSiMyi81rxqPcEbQwRdPjab/GwUg7t5kyqs6B3b7hRjx9nu0HLPYZNzoB18F8Fz4AATsrzcdQ/c+dYa1vtpMsq36c3Q89tlPgCe/3atND5fPthRQmI5e0WrdmQR6apWGjudEQ++rtBz07xlaCZCCSr4lU9Rvt7AahxMDIk33wYX3LU3NdH/HThZ2Car7sFX/uhydiNWS4yH4dysoSSrdUYdVfFx9+a2+BR1l3/cQEXuMAhARIw2a2uJAS4cYk2ukp6AEbJ0oynP0IQacW2F+/WBuBD288pzyV3pGRT/fboiBeCKOBh2JgeHAqPBGhQcKwBk97dY1UeGrZzzTFomNG8XAeXXJCClo+DtoWM3jJ683/Acom1foHoIAXhqnrQDfboh+vy+E/lG46Mu9/8u6ybdaj7BhNb+KX8YTfa9zqvVz/ozqMQpAVJw0eGqOA1t2iuYG3GgGwscnlXhc7PI83Ns8gkHpYRxfePaVmdYLUdDKrnobR9KOGAB2hy/3/aFwHISrejeOArcOHDA6PH9Fm3WxDtz1inPmIrEF+tcfsQrQHNlKgGSmKsDcwmqcW57BuOfgUXI5FNNHsC72zNzDoun/7K0Q3vp2RL15FWQ/VnjxG8v3f0mb13uQtvLeFCUOzlMurKY7ygBt53dNib7/GwVAMtq865IDvNTd2E/LsBJQlaNslTAdg8HLyPciBpTnIbjfhZOj1dhL/RCD+WpsI6xGWi+WyjeE0ByFuA1hcDUa36MxkLYgz3Z4T8Aqw2aVlF2NPEb46+O67cBG0MMoIX+UjYtSBZGfsCRPwsp3KVxqmgpfKl6WQ/QS+vsr6NfPY6b+Duj9AP2Z+/3HiOPfQS+u3t0QivNopI9G+idy/Bsg+nfAbI//20Lof3IQ3UDISQdHO+NKfatpQcOSGJlPvvPx53VOsWZLkCjfRgGIkpsGV01yYOxlYuPMOlqGQWSXmqzAMCUaS/79GMBPxsz/N8O0iomoVuuDYiPcHr8UQvGz+I8dIDyqAPIKq3AqjBrvFfaC94pnPGEfidvrzfidaeXi1PRKwmoeWbaM47dFJ0H4/5qDOh6jAOjgqsFZcxzYdoHYcP1qWpoUg7eaY2DEBPNRP7hsOsJY+0fMWA909pK4wO2NFu1dEIIM6xRKQRQEr7ySBpku36XiJUzYt7MMv99ucJIWTqs0rOZT8WAVA21xGIQ/r85oe/Lanjb0BrHhQG1wgI/hre/DXrjATMg8VeUAtjXegSK2rxH+8TUDn8fvt+hglPiAvQrAgokf6cEuijDjkHhVwaeW4YyXeaTiob7dYCUuFc5Ju5qPw37S3eBkWc78peIZVi1fhZXxgt7GluTeuoV/nmz+ax7DAcOBAgeaO8UC7KX/ZyHCBGLjAGb+L2FWcnB3u9UdW6GmoCIOwBr+R9h6udCOlEKJP3SHJRWyHPlWy5Zx8u2W5hanwqvpzjB/86PCy7B8e6X7iffCwXn5yVF3uoEmzj7QWpGP0PvXbAHo5a/BXqMcaJkrTsHU4Fpo4jC+N08cHIBx46I1a+noWvKOGAdfqlHGeYvEQf1Ed2AFYCNXYchEeQmzSuP95HOW6/z2wqHCecHIePlW83CYH680r3hnHue3zJd/LwLPj4nTO6JRALhBzGM44MIBXCO8HyyJf5fk43EuZNdcFGb9OVhvn/9qmzWn5ogfxgTPWirGZ9fT/VACdrKrKYUVf+gMB8EdBFZtq6D5KoX3n+9Huiz91Wo7w0YBcHLEfBsOKBxovlxsDXOce2vpmKBCfuKD7A4Z/tWPM/v9yWwqNg5ME12Jo6PftO0BmEz/Qs3/iQIVp2SFGucVDkqPF56o4p30OL+d5RB9hCXGo6Jy7StZ5/dtFAC/nDJwdcsBdh387rvwBW7hEiG+TtU8kXAABpd/xcz/cFzqsyoShAaJNg60LhaHQwngmzQ3iUURcApKadQXJp65I/PLtxqnI1yiHPT9Z9OCDp0z1Xqdi67GYxSAanDdlFmTHLBd5Vp0fTpFe9VkBRJENGb+s1e0W+cliCRDShkOsNOgtRZdDUXgyIIg5TwlhFzFyoIOvCqdsq5qnI6wRz0geC+eO8U6X5JRrbdRAKrFeVNubXKgQ6SaG+j7GNhmY1tgdG1WoopUC3oUM/9vwqf/K1WkwhQdggNtS8QpsFa/Ar+B+AwEmd4wAlrWV+KQb2d82HJUvO7hRyB0vwPh/w9ZdDXfRgGoJvdN2TXLAfsegRzNT8K1wjXBxBy9BYFxdnebdWtN0GuILMkB20Cwj2ZjS+yEUILZXUiGE/YqTq6F/JZvWTP5Ld8qbNRhuOxG/5+m06ufrFaQt1EAgnDLwBoOODgwtkvsgct0fmY8CDoYM/DJ7nwx8P10bS+db473ufOolmPbForPg/6r0cbuboS5cnEI2EptBCTzVRojphnHWxfguu/z4jzeJ6tV7m0UgHIcMumGA+U4gG2BliY6BgNdF2ZEzeXA6yGdXflir/im9SnqXNVm9dRDneu5jlAEjkP956D/t9h8kAJVvjkyqeGo6WJ8RH2o783ZBpo3/0CLL+9K5GMUgEQ2iyGqFjnQ0iGacEbgLNw8Ng32AZ+qxTpEQPP7lKUF/U105cpzrPciwGdQ1AgHOpaJpt51dDbI5f+bY1Vg6DFArkvUAjcsTr/5/cDhZkJ4UfxJr6DLL5+a/P5vFABuVPMYDkTJAawIjGuiw+FO+Duwdp8MZSA/EEZZRvJwrQBJl9Fauqa7w+pNHnmGojg5gBWBr6K870AJOMhWBKTQl28mptbCXvRyXeDCF/W8tKmRruuYVDv93ygA3HjmMRzQxIHmuWJrnPc9Ex4FTx1uHgWxzL8ag95dQtCvXl1HD1EHamkewwGFA9OXim1S6+l0CJozEP0JWxngdC9hWo14P2XKOhXDrkY97s5YdGOmkZZD8MOTb209RgGorfYy1NYoB9iZ0Dvv0+E4AncCO//AmkBTLVaF3fZiEF8G+m/uX0N3rOqw1tRiPQzN8XKg4znR0NtDh4k0nWhl6UvoPw1alACuVrGQ5v46dCtChZGsUOPcwhxno6dlVopu6Rd0exIN+2R1/LyNAuCHSwbGcCBCDmy7QGy4/mMYDabpBBjKTYwQtT5UOL+P4e9+XI10c/cM6w19BRnMw50DrQ+KjVJZOgbS9OvYLz+wUF83oSsTvdL8xDOOcnDl0okeAY6F0CRurqbnPsmOqN5GAYiKkwaP4UAFHBjXJbZM5WgqZhR7QsDuh7nKDhWgiT5LjnpgzHh32qKH1q2lh8xMP3oWG4xEMxeJLXBM7kvYRtod/JiI2fq2hRk7M6i8YC4P4weHWhbDE70J5fzOXIoWZ4kervWZPlfP7TEKgBtXTJzhQJU4gJMEY3CWYB8MfHtjhWAfDEKsEOg+UbACg/BLGAxehtHi/2Bpc8lrM60XqsQCU2wdc2DaIrFxg0X7YKa9B/rkvvgdTAA7wp0oYH6WUgIE9cBO52X81l6G8vE/WJV4KCme+nR3BaMA6OawwW84EJIDW3aIUSNG0Q4wsZuAGckEzE+2wwDZDGE9CgPXKKBvwkmDURjkRmEA25CLy2XpPYTfw6D2PlYX3kOe9zGgsjey9/CjX4lZzSv4fmVlu/VSSPJMdsMBrRzgGwmhFGyHPv1p9Pft0KcnYKVsLPr0aPTnJvT7DfBuBBHc//PuiXHLHuLfRNxH+P8u4D8A/P8h//vo//+CLcK/Un30r7mH1bei+/+y5lvsjNNa3wAAAABJRU5ErkJggg==;" parent="1" vertex="1">
          <mxGeometry x="100" y="380" width="60" height="60" as="geometry" />
        </mxCell>
        <mxCell id="TdYsnk3otMklXNJGHKcp-3" value="" style="shape=image;verticalLabelPosition=bottom;labelBackgroundColor=default;verticalAlign=top;imageAspect=0;image=https://static.thenounproject.com/png/2715035-200.png;" parent="1" vertex="1">
          <mxGeometry x="20" y="470" width="60" height="60" as="geometry" />
        </mxCell>
        <mxCell id="TdYsnk3otMklXNJGHKcp-4" value="" style="shape=image;verticalLabelPosition=bottom;labelBackgroundColor=default;verticalAlign=top;imageAspect=0;image=https://cdn.icon-icons.com/icons2/2415/PNG/512/redis_plain_wordmark_logo_icon_146367.png;" parent="1" vertex="1">
          <mxGeometry x="110" y="470" width="60" height="60" as="geometry" />
        </mxCell>
        <mxCell id="vxqm_vfET1SnWBlvzzhd-1" value="" style="shape=image;verticalLabelPosition=bottom;labelBackgroundColor=default;verticalAlign=top;aspect=fixed;imageAspect=0;image=https://cdn4.iconfinder.com/data/icons/logos-3/181/MySQL-512.png;" parent="1" vertex="1">
          <mxGeometry x="20" y="550" width="60" height="60" as="geometry" />
        </mxCell>
        <mxCell id="K3bekutCe8RFmnbDcUND-1" value="" style="shape=image;verticalLabelPosition=bottom;labelBackgroundColor=default;verticalAlign=top;imageAspect=0;image=https://seeklogo.com/images/A/aws-amplify-logo-D68DDB5AB1-seeklogo.com.png;" vertex="1" parent="1">
          <mxGeometry x="110" y="560" width="60" height="60" as="geometry" />
        </mxCell>
      </root>
    </mxGraphModel>
  </diagram>
  <diagram id="slLjz6VUDXeBncbR9ZpQ" name="페이지-2">
    <mxGraphModel dx="2237" dy="818" grid="0" gridSize="10" guides="1" tooltips="1" connect="1" arrows="1" fold="1" page="0" pageScale="1" pageWidth="827" pageHeight="1169" math="0" shadow="0">
      <root>
        <mxCell id="0" />
        <mxCell id="1" parent="0" />
        <mxCell id="JpnnjNjHdhXgqlGtXmuh-1" value="" style="shape=image;verticalLabelPosition=bottom;labelBackgroundColor=default;verticalAlign=top;imageAspect=0;image=https://static.thenounproject.com/png/2715035-200.png;" parent="1" vertex="1">
          <mxGeometry x="-230" y="247" width="60" height="60" as="geometry" />
        </mxCell>
        <mxCell id="5Q17wV7-Dyi51mpq7Eg7-2" value="" style="rounded=0;whiteSpace=wrap;html=1;" parent="1" vertex="1">
          <mxGeometry x="-100" y="20" width="940" height="520" as="geometry" />
        </mxCell>
        <mxCell id="5Q17wV7-Dyi51mpq7Eg7-3" value="AWS Cloud" style="text;html=1;strokeColor=none;fillColor=none;align=center;verticalAlign=middle;whiteSpace=wrap;rounded=0;" parent="1" vertex="1">
          <mxGeometry x="-70" y="20" width="70" height="30" as="geometry" />
        </mxCell>
        <mxCell id="5Q17wV7-Dyi51mpq7Eg7-4" value="" style="shape=image;verticalLabelPosition=bottom;labelBackgroundColor=default;verticalAlign=top;aspect=fixed;imageAspect=0;image=https://pbs.twimg.com/profile_images/1641476962362302464/K8lb6OtN_400x400.jpg;" parent="1" vertex="1">
          <mxGeometry x="-100" y="20" width="30" height="30" as="geometry" />
        </mxCell>
        <mxCell id="Wo3TOSMttci6oLouw8kt-1" value="" style="rounded=0;whiteSpace=wrap;html=1;strokeColor=#8351e1;" parent="1" vertex="1">
          <mxGeometry x="220" y="40" width="610" height="490" as="geometry" />
        </mxCell>
        <mxCell id="Wo3TOSMttci6oLouw8kt-2" value="VPC" style="text;html=1;strokeColor=none;fillColor=none;align=center;verticalAlign=middle;whiteSpace=wrap;rounded=0;" parent="1" vertex="1">
          <mxGeometry x="250" y="40" width="40" height="30" as="geometry" />
        </mxCell>
        <mxCell id="Wo3TOSMttci6oLouw8kt-3" value="" style="shape=image;verticalLabelPosition=bottom;labelBackgroundColor=default;verticalAlign=top;aspect=fixed;imageAspect=0;image=https://res.cloudinary.com/hy4kyit2a/f_auto,fl_lossy,q_70/learn/modules/core-aws-services/connect-resources-with-aws-networking/images/aa91e6b1882061229f9220f4160052dc_65-b-47835-0-f-72-4801-975-a-5-f-9-d-419-e-012-c.png;" parent="1" vertex="1">
          <mxGeometry x="220" y="40" width="30" height="30" as="geometry" />
        </mxCell>
        <mxCell id="wx3anejCj_4IOSJ6bFtv-1" value="" style="rounded=0;whiteSpace=wrap;html=1;strokeColor=#238813;" parent="1" vertex="1">
          <mxGeometry x="250" y="90" width="567" height="430" as="geometry" />
        </mxCell>
        <mxCell id="wx3anejCj_4IOSJ6bFtv-2" value="" style="shape=image;verticalLabelPosition=bottom;labelBackgroundColor=default;verticalAlign=top;imageAspect=0;image=https://www.mydraw.com/NIMG.axd?i=Shape-Libraries/Cloud/Amazon-Web-Services/AWS-Architecture/Group-Icons/VPC-subnet-public-light-bg.png;" parent="1" vertex="1">
          <mxGeometry x="247" y="90" width="30" height="30" as="geometry" />
        </mxCell>
        <mxCell id="wx3anejCj_4IOSJ6bFtv-3" value="Public subnet" style="text;html=1;strokeColor=none;fillColor=none;align=center;verticalAlign=middle;whiteSpace=wrap;rounded=0;" parent="1" vertex="1">
          <mxGeometry x="273" y="90" width="90" height="30" as="geometry" />
        </mxCell>
        <mxCell id="Eqh1VLrbr5NCSkKNSdUe-1" value="" style="rounded=0;whiteSpace=wrap;html=1;strokeColor=#e66f08;" parent="1" vertex="1">
          <mxGeometry x="275" y="130" width="527" height="380" as="geometry" />
        </mxCell>
        <mxCell id="Eqh1VLrbr5NCSkKNSdUe-2" value="EC2" style="text;html=1;strokeColor=none;fillColor=none;align=center;verticalAlign=middle;whiteSpace=wrap;rounded=0;" parent="1" vertex="1">
          <mxGeometry x="305" y="130" width="40" height="30" as="geometry" />
        </mxCell>
        <mxCell id="Eqh1VLrbr5NCSkKNSdUe-3" value="" style="shape=image;verticalLabelPosition=bottom;labelBackgroundColor=default;verticalAlign=top;aspect=fixed;imageAspect=0;image=data:image/jpeg,/9j/4AAQSkZJRgABAQAAAQABAAD/2wCEAAkGBw0PDQ0NDQ0NDQ8NEBAQDQ0NEA8QDg0NFxIYFhURFxUaHCgsGBolGxUXITYiJSkrLjMuFyAzODMsNygtLisBCgoKDg0OFw8PGC0gFSArKysrKy8rKysrKystLSsrKy0rKzcrKzctLSstKysrLS0rLS0rKy0rKysrKy0rLS0rLf/AABEIAOEA4QMBIgACEQEDEQH/xAAbAAADAAMBAQAAAAAAAAAAAAAAAQIFBgcEA//EAEkQAAICAQEDAg8OBQIHAAAAAAABAgMEEQUGEiExExUWIjQ1QVFSU3FzkpPSB0RhcoGDkaGxsrPCw+IyVHTB0TNCFCMlY4Lh8P/EABoBAAMBAQEBAAAAAAAAAAAAAAABBQIEAwb/xAA3EQACAQIDAwkGBgMBAAAAAAAAAQIDEQQhMRITQQUyUWFygZHB0RQVUnGh8CIzU7HS8UJU4YL/2gAMAwEAAhEDEQA/APSUQM+HPsyiiQEBYyRmQGAAIChkFCAZRIGWgLAQxAMYgEAyiQMtAWMkYgGUSAgKGIDIDKJGIChkjEAwEArAYYCSim0AyiBiAookBAWMkZkBgACAoZBQgGUiQMtAWMlDMgMZIxAMokBMCxkjMgMogYgLAQxAMZIxAUAgEBhQACoBQElGWgGUSAgKKJAQFjJGZAYAAgK1N7wN2sWqqMshKU2k5SlJqEZPuLlX0mhd86Nvl2Db5a/voqcmwgoVqs4qTgk0n/6flqTsfKblSpxk47Ts7dy8w6V7M8Cj1n7h9K9meBR6z9xzoY/ekP0I/T+Iewz/AFpffedE6V7M8Cj1n7g6VbM8Cn1n7jngfSL3rD9CP0/iHsE/1pffedD6V7M8Cj1n7h9K9m+BT6z9xz0YvetP/Xj9P4h7BP8AWl9950HpZs3wafWfuDpXs3wKfWfuOfgL3rT/ANeP0/iHsE/1pffedA6WbN8Gn1n7jx7X2BjumdlC4JRi5rSTcJxS1a5+93jTTf8AZ3a2PmJ/YzrwlajjdunKjGKSvla/7Kxz16VTDbE1Vbztnp+5oRRKA+YWhaZQxAIQwABAYYZIyoAwAYgGBJRloBlEDEBRRJ7dm7KyMnj6BBS6Hw8fXRjprrpzv4GOMJTezFXfUZlKMVtSdkeVDKysedVkqrFwzg9JLVPR6a86Pts7Z92RKUKIccoria4ox0jrp3X8IlTk5bCT2ujiDnFR2m8ungeZ8x0ffLsG3y1/fRoGdhW0WdCujpNJPTVS5HzcqLw8e/Imqq+Kcmm1Fy0TS5e6zpw9aVKNWjsNymtn5Oz4W6+o5q1KNV06u0lGDv1PTjfqPOM9G0NnXY8oxvhwOS1S4oy1WuncZ9Nn7LyMhSdMFJQaUuujHRvm52cu5qOewova6LO/TodG9hs7e0tnpvl4njKKyKJ1zlXYtJQeklqno/Kj7bP2ddkSlGmHE4rWS4ox0Xys81Tm5bCV5dHEbnFR2m/w9PA+AH2zMSyix1Wx4ZpJtap8jWq5UfEzKLi2pKzQ01JXWgxiAyMZ0HZva2PmJ/Yznx0HZva2PmJ/YyzyJz6nZJvKXMp9pfszQUMlDIS0RTYyiQARQhAZsBhiiQKjQFjJGIBgAhAWBJ98aidklCuEpzeukYrVvRasWy27IG0ldnzN19znmy/mfzmD2du7lWXVQtotqrlJccnFrhjzvl7/AHPlN8hHCw4qKdGNx83E1GVnD32+WWnF9ZU5Ows1UVaf4Yxvrle6a8yZyhiIOm6Uc5S6M9Gn5Ggb0dn5Px19iMr7n3ZF3mvzRNjst2VJuc5YEpS5ZSl0ByflbLpytmVtyrswq21o3W6Ytrvao6aeBUMRv3UWrdvnfr6zwqYpyobrdyvZK9ssjUt9+zZfEh9jJ3K7Nr+JZ9026/I2XN8dk8GyWmnFN0ylp3tWFN+y4PjhLBhJf7odBjJLyoPYV7Tv94rbV7f9uHtT9n3W7le1vpY13f8A7Io82/vM9nuffwZHxq/sZmLsrZtjTsswrGlonZKmTS73KOnM2fXqq7cOvi5+hyqjr5dD1jhorFvEbas75d1unyPKVaTwqobuV8s7Za3NF3h7NyfOMzG4P+tkebj94z07NlyblN4EpPllKXQHJvvtn0pytnVtuuzDg2tG63VFtd7kPGlgFTxO/dRat2+d+vrPWrinOhut3K9ktPvoNR3y7Ns+LD7qMKjom0NmY2ZVKcOhyk0+C+vRviXItWv4lyaaGkrYmZ/LW+gydyjg6qrOcVtRk21ZN+P3n4nXgsTCVJQeUo2TvkeID65OLbVJRtrlW2tUprRtd/6j5EuUXF2aszuTTV1oM6Ds3tavMWfYznx0DZvaxf09n2Msci8+p2SdynzIdpeZoCKIQyCtEU3qWMkYxAAwEBhRkjKgDKJAy0BYyRmQAyGwtoLGya75Rc1Hi61NJvWLX9zwFQi29IpyfeSbZqEnCSlHVZmZxUouMtGdD2ZvdXkXV0KmcHY2lJyi0tIt/wBjwe6N7z8l/wCmYXdXHsWdjt1zSUpatxkkutkZr3SPefz/AOmVpV6lbA1JVNbpaWyvF+ZKjQp0cbTjT02W+nhI0wZIyHZFgookBWQFgIZmyAYAArIVzo+53YFP/n+JIx/VtV4iz0omQ3N7Ap8tn4kjn6xrdP8ATn6Mv8F+via1DD4fdcY55X0UbfuyNRw1KtWr7zhLptxkZDeDakcu2E4wcFGCjpJp6vib1+sxoThKPJKMo/BJNchJCrVJVJuc+c9eBWpwjCKjHRFnQdm9rF/T2fYznh0PZvayP9PZ9jKvIvPqdk4OU+ZDtLzOfoZCKIa0RTeoyiQE0IoBAKwGHAQyoAxkjEAx6/8A2p0Pc7Z9FOHHJlFOyxTnKxrWUYJvSMe9yLXk7vyHr6stn+Nl6qz/AAd8cBHYjKrVUG87P+0TpY+W3KNOk5KLtdf0zmXEZTdzPrx8uq+zi4IqevCtXywaXJ8pvPVjs/xs/VWf4Oe4uJZk39CpSlKxycU3wppay538CPKpRVGcHRqKcr8LdVuL1PWFV1oTVWDhG3Hoad+C0OiYG9OJfbCmvovHY2o8UUlyJvn1+Aw/uke8/n/0z4bA3ZzKcum6yMFCuUnJqcW9HFrm+U+/uk+8/Jf+md9apWng6jrK0rrg1leJwUqdGGMgqLurPjfO0jTAJKIDRbGUQMQFFEgICxkjMgdH3N7Aq8tn4kj5dWOF/wB70F/k+m5va+ry2fiSNWW6Wd4EPWRPpJVsTTw9D2eN7xV8m+EbeZBhSoTr1t87Wk7Z24u/kLefadWVdCdXFwxrUXxrR68Tf9zDno2ls67GmoWpKUo6pJqXW6tf2PMfP4mdSdWUqitPj4ehZoRhGnFU3ePAZ0PZvatf09n2M54dE2Z2rX9PZ9jKXI3Pqdk4uU+ZDtLzOeoZKKIa0RTeoxiABDAAM2AwwyRlRgUAhiA6hsHtRDzFv5jmMeZHTtg9p6/MW/mOYLmRR5Q5tHs+hOwP5lfteoz27Iz5Y18L4RjKUeLSMtdHrFrueU8R98XGstmq6oOc5a6RjzvRav6kTY7SknHW+R3zUXFqWnH5G67F3vuyMmqiVNUY2Npyi5NrSLf9j5+6T7z+f/TMfu1sXMrzaLLMeyEIyk5SemiXDJd/4TIe6V7y+f8A0ytKdWWCqOre91qrcY9SJUYUoY2mqVrbL0d+EjSwACKVygJKMtAMogYgKKJAQHSdzX/0+ny2fiSMF1b5HiKvpmZ7cvsCny2fiSNJWwM7+Ws+j/2XK9TEQoYfcX5udlfhG3B9ZGoU6M61fe252V3bjK/ENs7Vnl2QnOEYOMOBKOujWrevL5TZsTdDHnVXN2XJzhGTScNE2k+8afl4dtMlC6uVcmuJKWmrjrpr9R9o7Vykklk3pJaJK6aSXe01J9KvCNScsVDak7ePyyO+pRk4Rjh5bKXfl9TcOovF8bf9NfsnuzlXiYE4OTcY1SrjxacU5NNJfSzQem+X/NZHrbP8nyyMqyxp2WWWNcznKUmvpZ0+8cPTjLcUrSatwt35s5ngqtRx3tS8U76HzRSJAiWKZYCQxAAAIQGHQyRlQChkjMsDqWwO08PMW/mOXrmR1DYHaevzFv5jly5ihyhzaPZ9CdgPzK/a9Sj37D2gsbIrvcHPh4utT4ddYuPP8pjyq65SajCMpN80Ypyb+RE6MnGSlHVHfOKlFxlozouyt8I5GRVjrHlDoja4pTT00i3zafAeH3Svefz/AOmYbdTDujn48pU2xSlLWUq5pLrH3WjM+6X7y+f/AEyrKrUqYKo6ut1wtxj8iVGjTpY2mqemy+N+EjSxkjIxXGAAICgJKMtAMZIxAdL3L7Aq+NZ+JIxfV1H+Vl61eyZTcztfT5bPxJHP1gZGi/5F3q5f4LlevWpUKG64xzyvwjbg+sjUMPSq1q+8V7Syza4yPbvBtdZVkLFW6+GCho5cWvXN683wmNCyqcHpOEoN8qU4uLa7/KIiVZyqTc58568PoVqcIwiow5q0GAAeRsoZBQgGUSBloCgEAgMMMQFMChkgIDquwO09fmLfzHLVzI6jsDtPX5i38xyyPMihj+ZR7PoTsB+ZX7XqWZTdzaEMbLqvsU5Rip6qCTlywaWmrXfMWBOhJwkpLVZnfOKnFxejVvE6fgb4Yl9sKYRvUrHwx44w4ddO61Jk73bCuzXj9ClXHoXROLokpR14uDTTSL8FnNYyaaabTTTTT0aa5mmdG3J2xkZSvV8oy6D0JRkoqMnxcWuunxV3CvQxXtV6FZZvS2WmfkSMRhXhWq9HSOqfXl5mD6hc3xuL6dnsB1CZnjcX07PYPVtve3LoyrqYRpca5JR4oSctOFPlfF8J7t0t4cjLusrtVSjGvjXDFxevEl3W++ZjRwUqm6Se1e3E3KtjI0969nZtcxHULmeNxvSs9gfULl+NxvSs9gyG8+82Ti5LqrVXAoQl18W3q+fl1Qt2t5snJyo1WqrglGTfBCSeqWq5dWLc4Lebqz2r246hvsZu97+HZtfuPB1DZfjcb0rPYDqGy/G43pWewZjezb9+JbVCpVtTg5Pii5PXi07jR6N0ts35cbnd0P8A5coKPBFx509ddW+8bWGwTq7mz2u/ovqYeJxao778Oz9egwHUPl+NxvTs9gfURmeNxvSs9g++197cqnJupjGlxrm4xcoyb0+HrjIbqbevy7LYWqtKEFJcMWnrrp3WzzhRwMqm6Se1e3Hh39RudbGRp717Oza/iZTYOHPGxIVXODdfHKUoNuOjk5c7S7jMf1bYfgZHo1+2YjfLbF6usxYyUa+GPEorrpJx1ab7xqgsTyhKhJUaCyjk79WXTw+osPgVVTq1s3LNW68zN7z7VryroTqU1GNahJWKKevE33G++YgkCNVqSqzc5asqU6cacVCOiLGSM8jYwABAUMgoQDAAFYDClEDKYFDEBkDquwO09fmLfzHK48yOp7v9pq/MW/mOWLmKGP5tHs+hOwH5lftepYyRk0ojNq3H2vjYqyf+Is6H0ToXB1s568PHr/Cnpzo1UZujVdKanHVdPysedakqsHCWj6PnfrMjt/KruzL7apcULJJwlo46rhS5ny9wyO5e0qMa+2eRPocZV8MXwzlrLiT00in3jXRhGtKNXerW7fj/AGKVGMqW6fNtYze9ufTkZbtonxwcIJS4ZR5VrrySSFupm1Y+XG26XBBRmnLhlLla5ORJmGAN/Lfb7/K9+r77w3Md1uv8bW6/vuNj3z2nj5NtM8efRIxrcZPhlHR8WunXJHq3L2xjY0b1kWdDc5QcetnLVJPX+FPvnw3Y3bry6p2TtlW42cCUVFprhT15fKYPPx1VfdUm2qrJwTfO1GTjr9R7ynWpzWLcV+Lw0tpe/wBTmVOjUg8Km/w69Ot+i30PvtvIhbl5Ftb4oTk5Rlo1qvIzK7mbTox7LpZE+BSioxfDKXE+LX/ama6I5IVpQq71Wvdvqz/s6Z0Yzp7p3ta334GZ3ozar8uy2mXHCUYJS0lHVqOj5GkYkko86s3Um5vV5m6cFCKgtErDKIGeZoookBAWMkZkBgACAYCAQGGGICoBQyRmWB1bd/tNX5i78xytcx0LcvbmM8SOJdZXXOvijpZJRjZXJtrRvu8umnPyGS6V7G8HD9bH2itUoe006bjJKyt+3oRqdf2arVU4N3d1ZfM5YUdR6V7G8HD9bH2h9LNjeDh+tj7R4e7ZfGj395w+CXgvU5cM6h0r2N4OH6yPtB0s2N4OH62PtC92T+NB7zh8EvBepzADp/SzY3g4frI+0PpZsfwcP1kfaF7sn8aD3nD4JeC9TmAzpvS3Y/g4frI+0HS3Y/g4frI+0HuufxoPecPgl4L1PL7nPYt3nn9yJpe3Ozcvz934kjof/HbNwq5OFlEItuThVOMpzlppyRT5XzHNMy92222taOyyU2u85SctPrDHqMKFOjdOS/oWBbnWqVdlqLtqfMZIyQUxgAABQElGWgGUQMQFFEgICxkjMsBgIBAYYZBRUAYxAICh6eUkZlpDKAAMbK6AuVoh6IkBbK6AuVoPRCGLZXQFx6eUeghmdldAXGhkjC1hDKJATQFjJGIBgAxAMCSjLQDKIGICiiQEBQgAQGFKIGU2gLGSMQDGIBAUUQMyBQxAZAoZIwAoZIzNgKAQCAoZIxAMokDLQFjJGIBgAhAWBJRloBlEDEBQCAQGGQwApsBjADIDAAEAykACYDGACAEMAMgUAAZYDQ0ACACgAQDQAAmAxoAEAwADIDQ0ACAoAAyAAAAI/9k=;" parent="1" vertex="1">
          <mxGeometry x="275" y="130" width="30" height="30" as="geometry" />
        </mxCell>
        <mxCell id="j2sKBPcfD1ept0JRhkVq-1" value="" style="rounded=0;whiteSpace=wrap;html=1;strokeColor=#1f97ee;" parent="1" vertex="1">
          <mxGeometry x="305" y="180" width="475" height="320" as="geometry" />
        </mxCell>
        <mxCell id="j2sKBPcfD1ept0JRhkVq-2" value="" style="shape=image;verticalLabelPosition=bottom;labelBackgroundColor=default;verticalAlign=top;imageAspect=0;image=https://static-00.iconduck.com/assets.00/docker-icon-512x438-ga1hb37h.png;" parent="1" vertex="1">
          <mxGeometry x="305" y="180" width="30" height="30" as="geometry" />
        </mxCell>
        <mxCell id="GYx54OD_Bqpt31ngXkpA-1" value="" style="rounded=0;whiteSpace=wrap;html=1;strokeColor=#6db33d;" parent="1" vertex="1">
          <mxGeometry x="320" y="247" width="150" height="60" as="geometry" />
        </mxCell>
        <mxCell id="GYx54OD_Bqpt31ngXkpA-4" value="FintAnts&lt;br&gt;Service" style="rounded=1;whiteSpace=wrap;html=1;fillColor=#d5e8d4;strokeColor=#82b366;" parent="1" vertex="1">
          <mxGeometry x="330" y="257" width="130" height="40" as="geometry" />
        </mxCell>
        <mxCell id="yD2_yf12TeScq3eep4Tz-1" value="" style="shape=image;verticalLabelPosition=bottom;labelBackgroundColor=default;verticalAlign=top;aspect=fixed;imageAspect=0;image=https://miro.medium.com/v2/resize:fit:700/1*hsoJdzT9TbYrNCRQW_z9Bw.png;" parent="1" vertex="1">
          <mxGeometry x="360" y="217" width="70" height="30" as="geometry" />
        </mxCell>
        <mxCell id="3EF7vFXIZ6-XAWNn4q-B-1" value="" style="shape=image;verticalLabelPosition=bottom;labelBackgroundColor=default;verticalAlign=top;imageAspect=0;image=https://cdn.icon-icons.com/icons2/2415/PNG/512/redis_plain_wordmark_logo_icon_146367.png;" parent="1" vertex="1">
          <mxGeometry x="508.5" y="250" width="60" height="60" as="geometry" />
        </mxCell>
        <mxCell id="GDzNBDOTanh4cMILEuBZ-1" value="" style="shape=image;verticalLabelPosition=bottom;labelBackgroundColor=default;verticalAlign=top;aspect=fixed;imageAspect=0;image=https://cdn4.iconfinder.com/data/icons/logos-3/181/MySQL-512.png;" parent="1" vertex="1">
          <mxGeometry x="600" y="250" width="60" height="60" as="geometry" />
        </mxCell>
        <mxCell id="GVP9QbDABz_EydaPx-wG-1" value="&lt;b style=&quot;font-weight:normal;&quot; id=&quot;docs-internal-guid-f66bfbdf-7fff-c250-3b74-2aeafc4c4101&quot;&gt;&lt;img width=&quot;59px;&quot; height=&quot;59px;&quot; src=&quot;https://lh5.googleusercontent.com/XypVSEdNwdzdn0ii9BWXSbNGzQVvTug84saBizpWeQTWpqMReOMR2vyu7BlllDCezaZWzzNB6V4fu87Bw9N1kNqinYdNYYAS48EVxeHwJNwZAx3HBVjC8QakR5qvJ0KAoSCK1rCVv2ss3AUYZrcojlWJAQ=s2048&quot;&gt;&lt;/b&gt;" style="text;whiteSpace=wrap;html=1;" parent="1" vertex="1">
          <mxGeometry x="-108" y="595" width="70" height="70" as="geometry" />
        </mxCell>
        <mxCell id="GVP9QbDABz_EydaPx-wG-2" value="" style="shape=image;verticalLabelPosition=bottom;labelBackgroundColor=default;verticalAlign=top;imageAspect=0;image=data:image/png,iVBORw0KGgoAAAANSUhEUgAAAgAAAAIACAYAAAD0eNT6AAAMP2lDQ1BJQ0MgUHJvZmlsZQAASImVVwdYU8kWnluSkEBoAQSkhN4EkRpASggt9N5EJSQBQokxEFTs6KKCaxcL2NBVEQUrzYIidhbF3hcLKsq6WLArb1JA133le/N9c+e//5z5z5lz5965A4DacY5IlIeqA5AvLBTHBvvTk1NS6aSngAhQQAZmwI7DLRAxo6PDASxD7d/Lu+sAkbZX7KVa/+z/r0WDxy/gAoBEQ5zBK+DmQ3wQALyKKxIXAkCU8mZTCkVSDCvQEsMAIV4oxVlyXCXFGXK8V2YTH8uCuB0AJRUOR5wFgOolyNOLuFlQQ7UfYkchTyAEQI0OsU9+/iQexOkQW0MbEcRSfUbGDzpZf9PMGNbkcLKGsXwusqIUICgQ5XGm/Z/p+N8lP08y5MMSVpVscUisdM4wbzdzJ4VJsQrEfcKMyCiINSH+IODJ7CFGKdmSkAS5PWrALWDBnAEdiB15nIAwiA0gDhLmRYYr+IxMQRAbYrhC0KmCQnY8xLoQL+QXBMYpbDaLJ8UqfKENmWIWU8Gf5YhlfqW+7ktyE5gK/dfZfLZCH1Mtzo5PgpgCsXmRIDESYlWIHQpy48IUNmOLs1mRQzZiSaw0fnOIY/nCYH+5PlaUKQ6KVdiX5RcMzRfbnC1gRyrw/sLs+BB5frB2LkcWP5wLdokvZCYM6fALksOH5sLjBwTK54494wsT4hQ6H0SF/rHysThFlBetsMdN+XnBUt4UYpeCojjFWDyxEC5IuT6eKSqMjpfHiRfncEKj5fHgy0A4YIEAQAcSWDPAJJADBJ19jX3wTt4TBDhADLIAH9grmKERSbIeIbzGgWLwJ0R8UDA8zl/WywdFkP86zMqv9iBT1lskG5ELnkCcD8JAHryXyEYJh70lgseQEfzDOwdWLow3D1Zp/7/nh9jvDBMy4QpGMuSRrjZkSQwkBhBDiEFEG1wf98G98HB49YPVCWfgHkPz+G5PeELoIjwkXCN0E25NFJSIf4oyAnRD/SBFLjJ+zAVuCTVdcX/cG6pDZVwH1wf2uAv0w8R9oWdXyLIUcUuzQv9J+28z+OFpKOzIjmSUPILsR7b+eaSqrarrsIo01z/mRx5rxnC+WcM9P/tn/ZB9HmzDfrbEFmIHsDPYCewcdgRrBHSsFWvCOrCjUjy8uh7LVteQt1hZPLlQR/APf0NPVprJAsdax17HL/K+Qv5U6TcasCaJpokFWdmFdCbcEfh0tpDrMIru5OjkDIB0f5F/vt7EyPYNRKfjOzfvDwC8WwcHBw9/50JbAdjnDl//5u+cNQNuHcoAnG3mSsRFcg6XXgjwK6EG3zQ9YAR3L2s4HyfgBryAHwgEoSAKxIMUMAFGnw3XuRhMATPAXFAKysEysBqsB5vAVrAT7AH7QSM4Ak6A0+ACuASugTtw9fSAF6AfvAOfEQQhIVSEhughxogFYoc4IQzEBwlEwpFYJAVJR7IQISJBZiDzkHJkBbIe2YLUIPuQZuQEcg7pQm4hD5Be5DXyCcVQFVQLNUQt0dEoA2WiYWg8Oh7NQiejxeh8dAm6Fq1Gd6MN6An0AnoN7UZfoAMYwJQxHcwEs8cYGAuLwlKxTEyMzcLKsAqsGqvDWuBzvoJ1Y33YR5yI03A6bg9XcAiegHPxyfgsfDG+Ht+JN+Dt+BX8Ad6PfyNQCQYEO4IngU1IJmQRphBKCRWE7YRDhFPwXeohvCMSiTpEK6I7fBdTiDnE6cTFxA3EeuJxYhfxEXGARCLpkexI3qQoEodUSColrSPtJrWSLpN6SB+UlJWMlZyUgpRSlYRKJUoVSruUjildVnqq9JmsTrYge5KjyDzyNPJS8jZyC/kiuYf8maJBsaJ4U+IpOZS5lLWUOsopyl3KG2VlZVNlD+UYZYHyHOW1ynuVzyo/UP6ooqliq8JSSVORqCxR2aFyXOWWyhsqlWpJ9aOmUgupS6g11JPU+9QPqjRVB1W2Kk91tmqlaoPqZdWXamQ1CzWm2gS1YrUKtQNqF9X61MnqluosdY76LPVK9Wb1G+oDGjSNMRpRGvkaizV2aZzTeKZJ0rTUDNTkac7X3Kp5UvMRDaOZ0Vg0Lm0ebRvtFK1Hi6hlpcXWytEq19qj1anVr62p7aKdqD1Vu1L7qHa3DqZjqcPWydNZqrNf57rOpxGGI5gj+CMWjagbcXnEe92Run66fN0y3Xrda7qf9Oh6gXq5esv1GvXu6eP6tvox+lP0N+qf0u8bqTXSayR3ZNnI/SNvG6AGtgaxBtMNthp0GAwYGhkGG4oM1xmeNOwz0jHyM8oxWmV0zKjXmGbsYywwXmXcavycrk1n0vPoa+nt9H4TA5MQE4nJFpNOk8+mVqYJpiWm9ab3zChmDLNMs1VmbWb95sbmEeYzzGvNb1uQLRgW2RZrLM5YvLe0skyyXGDZaPnMSteKbVVsVWt115pq7Ws92bra+qoN0YZhk2uzweaSLWrrapttW2l70Q61c7MT2G2w6xpFGOUxSjiqetQNexV7pn2Rfa39Awcdh3CHEodGh5ejzUenjl4++szob46ujnmO2xzvjNEcEzqmZEzLmNdOtk5cp0qnq85U5yDn2c5Nzq9c7Fz4LhtdbrrSXCNcF7i2uX51c3cTu9W59bqbu6e7V7nfYGgxohmLGWc9CB7+HrM9jnh89HTzLPTc7/mXl71Xrtcur2djrcbyx24b+8jb1JvjvcW724fuk+6z2afb18SX41vt+9DPzI/nt93vKdOGmcPczXzp7+gv9j/k/57lyZrJOh6ABQQHlAV0BmoGJgSuD7wfZBqUFVQb1B/sGjw9+HgIISQsZHnIDbYhm8uuYfeHuofODG0PUwmLC1sf9jDcNlwc3hKBRoRGrIy4G2kRKYxsjAJR7KiVUfeiraInRx+OIcZEx1TGPIkdEzsj9kwcLW5i3K64d/H+8Uvj7yRYJ0gS2hLVEtMSaxLfJwUkrUjqTh6dPDP5Qop+iiClKZWUmpi6PXVgXOC41eN60lzTStOuj7caP3X8uQn6E/ImHJ2oNpEz8UA6IT0pfVf6F04Up5ozkMHOqMro57K4a7gveH68Vbxevjd/Bf9ppnfmisxnWd5ZK7N6s32zK7L7BCzBesGrnJCcTTnvc6Nyd+QO5iXl1ecr5afnNws1hbnC9klGk6ZO6hLZiUpF3ZM9J6+e3C8OE28vQArGFzQVasEf+Q6JteQXyYMin6LKog9TEqccmKoxVTi1Y5rttEXTnhYHFf82HZ/Ond42w2TG3BkPZjJnbpmFzMqY1TbbbPb82T1zgufsnEuZmzv39xLHkhUlb+clzWuZbzh/zvxHvwT/UluqWiouvbHAa8GmhfhCwcLORc6L1i36VsYrO1/uWF5R/mUxd/H5X8f8uvbXwSWZSzqXui3duIy4TLjs+nLf5TtXaKwoXvFoZcTKhlX0VWWr3q6euPpchUvFpjWUNZI13WvD1zatM1+3bN2X9dnrr1X6V9ZXGVQtqnq/gbfh8ka/jXWbDDeVb/q0WbD55pbgLQ3VltUVW4lbi7Y+2Za47cxvjN9qtutvL9/+dYdwR/fO2J3tNe41NbsMdi2tRWsltb2703Zf2hOwp6nOvm5LvU59+V6wV7L3+b70fdf3h+1vO8A4UHfQ4mDVIdqhsgakYVpDf2N2Y3dTSlNXc2hzW4tXy6HDDod3HDE5UnlU++jSY5Rj848Ntha3DhwXHe87kXXiUdvEtjsnk09ebY9p7zwVdurs6aDTJ88wz7Se9T575JznuebzjPONF9wuNHS4dhz63fX3Q51unQ0X3S82XfK41NI1tuvYZd/LJ64EXDl9lX31wrXIa13XE67fvJF2o/sm7+azW3m3Xt0uuv35zpy7hLtl99TvVdw3uF/9h80f9d1u3UcfBDzoeBj38M4j7qMXjwsef+mZ/4T6pOKp8dOaZ07PjvQG9V56Pu55zwvRi899pX9q/Fn10vrlwb/8/uroT+7veSV+Nfh68Ru9NzveurxtG4geuP8u/93n92Uf9D7s/Mj4eOZT0qenn6d8IX1Z+9Xma8u3sG93B/MHB0UcMUf2K4DBimZmAvB6BwDUFABo8HxGGSc//8kKIj+zyhD4T1h+RpQVNwDq4P97TB/8u7kBwN5t8PgF9dXSAIimAhDvAVBn5+E6dFaTnSulhQjPAZuDv2bkZ4B/U+Rnzh/i/rkFUlUX8HP7Lz0YfGATnigUAAAAOGVYSWZNTQAqAAAACAABh2kABAAAAAEAAAAaAAAAAAACoAIABAAAAAEAAAIAoAMABAAAAAEAAAIAAAAAACgwl78AAEAASURBVHgB7J0JnFxFtf9P3e5ZEmJeDBH5h2RmjCEgICAisklAkFUWEWTfVQSeYIBkZhKVQV4yMwmyqSAgssgui4Ao6wMiAiIg8jCGEOLMJESWGGIMySzdt/6/6syEmUz3THffW3fp/vWHMN237z116lunb51bdeqUEr4CJVDXpKtlpGyttUxSaZksjmyqXfmYcmSTtMioBP5BoWrRMkbjmBLZxHVllOPguCudriNrHJEPXS0fQsZqHP9QKVmDc/7jKFmLY2tw3b8ho025srgzIYvfna7eC7SSLIwESIAESCDyBNC/8GWLQO1cvZOkZUetZEd02jugU98aHf5mtsrLJRfOwRqUu9DRskCU/AWOxKuru+SVlU1qda5reJwESIAESKC0CdAB8KF9xzfpkclq2Qkd6054Ct8Jne0OELujD6KtioBjsATOyaso5OWEllfWJeUVjhZYRU7hJEACJBAZAnQAimgKM4yfrpYDHFcOQAc6FcPw2xQhJpKXuCLLMY3wAkYLHu6pkAeXX6hWRFJRKkUCJEACJOCJAB2APPFNbNXjceoRmFc/BB3+wXleFvvTMErwHGIMfo84hfs6ZqoFsa8QK0ACJEACJJAhQAdgCEOYfJUe3fOhHIWn/OMxf78POn5M5Zfxy5XXwOG2dEJuXVqvlpcxCVadBEiABGJPgA5Aliasa9VHIFjuVHR2h2f5mocMAS3zsRLhNqdLbmlrUp2EQgIkQAIkEC8CdAB622v8pXpcZUq+iY7tLDzn18SrGcPT1k3LSixhvAlxAz/raFRLwtOEJZMACZAACRRCoOwdgNoWvbsWOQvR+ycWAo7nDiaAEYEnES9wdXu9um/wtzxCAiRAAiQQJQJl6QCYKH5dJcdjbv+czLK9KLVIaejSjvwHV8sIua5tmlpVGlViLUiABEigtAiUlQOAjn8MOv4LMVx9lpOQsaXVlJGtzXXIj9Dc1qjaIqshFSMBEiCBMiRQFg6AeeKXSjlXEtKINh5Thu0cbpVd6cZoy08RKngJAgY5IhBua7B0EiABEsgQKG0HoEk7dVVyMvLnX4L1exPY5iETwN4FiBOYg5UDV3LlQMhtweJJgATKnkDJOgATW/ReSss1pZSlr2Ss1ZUOV8msjk65XZqQWokvEiABEiCBwAmUnAOwxRw9JZmQK1GxAwOnyQILJfBqSuTMZfXqxUIv5PkkQAIkQALeCJSMA5DJ2rdGWlQC6/j5ihUBDAHcg62Qp71dr5bFSnEqSwIkQAIxJlASDkBdiz4WCXyuRAKfwLfajXHbR0p1s2Uxpmtmta2Tn3JaIFJNQ2VIgARKlECsHQCzQQ+2sb0RaXv3L9H2KbtqYTTgJZ2S05bOUq+XXeVZYRIgARIIkEBsN7epa9bfQfjYm+z8A7SWAIqCQe6cSMr/1czVPwygOBZBAiRAAmVLIHYjAGauP/Wh/ArD/YeVbauVScWRsOnZlJLjGBtQJg3OapIACQRKIFYOQE2L3hOpe38NQpsHSomFhUcAuQMQIHjy0gb1QHhKsGQSIAESKD0CsXEA6uboi5HJrySHhbEZ0VswrTYEMn6AOfB/Yxj839rBX5M4R8lK8xfpdFchm94mOO+/cGwMYh9G4/3HMQUyBnn3x+gEPqdlHDbj2Q6jI9WlZ6rYV6BenVmC9WKVSIAESCAUApF3AMY36ZEVI+ReKBrrdf3alRXo6Bdh69w38P4NRLy/gQ57YVu3LEbUO5bD+/faolVPSDiyNcqZknBlKzgTUxAvsQ2ciwkoN7ZxHyD0QndCDl1+oVrhHy1KIgESIIHyJBBpB6CmWU/CkP/v8ZQ7JW7Ng2VtS9DZP4On9qedtMyPwmY4n2jSo0ZWyl7Qayp47o20vDvBIUjGiS24voNcD4e0z1CvxElv6koCJEACUSMQWQdgYrPePyGY73cyQ91R4zZIHzOMD5hPolP9AzrVJ9pmqHcGnRSxA2Z0pbJK9oLOU+Go7I1Rg10jpmJOdaDzSR0N6tacJ/ALEiABEiCBIQlE0gGoa9Xfw5PevKg/nULHBYhLuMtNy+3LGtXiIUnH4MtMNsUP5Sg4A8cjHmFq1PljZKilba3MYuKgGBgXVSQBEogcgWg5ANi9r3aE/AJKnRY5Uh8p1I4O/w4nKXfhKf/Vjw6X1rtPztObVafkGxjZOA412xXOQCRjB+CE/Q67C369rQmbDfNFAiRAAiSQN4HIOACZ9f1r5SE81e2Vt/YBnYgOfyW6v9sA6872BvVcQMVGppjxLbomqeEIKDkZMRnbREaxjxR5FbodFIdpl49U5jsSIAESCJdAJByACZfpsckueQqd7Pbh4hhYOqLo38aSu8vSnfLz5U1q7cBvy/NT7Rx9MNqpEcsN94wUAWwx3OPIHkwaFKlWoTIkQAIRJhC6A1A3V2+ONe7P4AkuOpH+WhYhC13ruLHyq5fPVD0Rbr/QVEOcxq5wkGZhiuDgqEwPYJnjckwJTC2FeIzQGpYFkwAJlA2BUB0A5POvA+ln8ERZEwXi6EBegh6tHevkPgaW5dciNXP0NmZEAEGDx0YhaBBOyYq0K/sum6Vey68GPIsESIAEypNAaA7AFnP0lAolf0DnEf4Wvq68hxGI89oa1J3laQbea41MjVujLa8Fx728S/MowZXVyIy4D3MFeOTIy0mABEqaQCgOQCZTnSt/xhNjqDn9MVycwlz2VWs75aL3m9Sakm7pgCpX26KPB9Mfo7hQ29aMBCBd8h5LZqpFAVWdxZAACZBArAgE7gCMv1SPS/bIn9D5TwqTFDr/55Bj/4y2mWphmHqUYtljm/To0VVyCaZUzg5zWgDlL8dGQl9kYGApWhnrRAIk4JVAoA6A6RhGVcnz6BTCW0qG4X5E9l/ALHJeTWf46yfM1tsnE3I9pgV2Gf5sO2fA0VviJGQPLhG0w5dSSYAE4ksgMAegrklXuyOQJldk57Bw6bRcUzFKGhafq1aHpUM5llvbrE/Hqop56IjHhlF/OAELKjeR3djuYdBnmSRAAlElEIwDsD7D38MoLJQd/TAUvAIBasd1TFdPRLUhSl2vzHJPLfejnruGUVc4IM+O+7h8mcs6w6DPMkmABKJIIJD0rjXVcnNYnb+58Xc5si07/3DNzwzBt62TPRCcNxtP5PDJgn2ZxEX/Win3BFsqSyMBEiCB6BKwPgJQM1f/EMF2F4eBAHP9F3XMUD8Ko2yWmZtAzTy9n5OS28JYAgqH8DKkc74gt3b8hgRIgATKg4BVByCzpa8jjwaOEoF+2NHua+WYtz9w1kUWmNlsKC33mifzIkV4uexrbfXqN14E8FoSIAESiDsBaw7AxFY9PiHyNwAaEygkLY+lKuW4ZeerlYGWy8IKJ2BiQ6plJp7KLwp0uSASBXUr+ezyBtVRuNK8ggRIgARKg4AdB8Dc2CvlTyoRbMS/ifJvn6nOLo2mKZ9aICW0CQ69H1MC1QHW+tVNx8guDAoMkDiLIgESiBQBK0GAdSNldpCdfyaoLC317PwjZVt5K9PWqB5B6t49Mtsu532V5xN3RFDgpZ6lUAAJkAAJxJSA7yMAeJrbGyHeT2JI14pzMYizK92uIyd01CtGeA+CE68DNc16EozGbAtdE5jmrhxkHJDAymNBJEACJBARAr46AJnArpT8TTkyLoj64cl/LYL9DlraoOYHUR7LsE8gkyo6Jc84KrBskauQLnjbpfVquf3asQQSIAESiA4B/57SMe9fbaK6A+r8sZL8PTgAu7Hzj44x+aHJ8gvVinWd8kVsLxyUUzcGmwbdL7BfP/SnDBIgARKICwHfbnp1lXJRUEu6zFyxWy27cc/3uJhZYXqanRmxNfNUJA36bWFXFnk29iqoqZTZRV7Ny0iABEgglgR8cQBq5+qdkHTn+4EQwBIuV8s+HdPUkkDKYyGhEVBdcjRGAl4MQgHsU9Bg7DiIslgGCZAACUSBgC8OAJbf/SqQoD8E/CFA7AA++UfBdOzr0NakOpMj5StwAhbZL01EpeVGTgUEQZplkAAJRIGAZwegZo4+F52/9e19zVI/BPwdiQxuL0QBHHUIhkBmBz9HpmJlif0gPUe2n1gt3wumZiyFBEiABMIl4GkVgIn6r0rJW3AARtmuBqYYTkFe/1tsl0P50SSwxRw9pSIhf4J2VjNLmpUlXUn51LvT1XvRJEGtSIAESMAfAkkvYkb0yE8kYb/zl7T8qGNmtDv/Ca16F8DcHbp+PMM0IR8gxe2bCGT7B3Rf4IUzrxV5e6ZaVNeqDwKL523ygDM7ssqVn6GMo22WQ9kkQAIkEDaBokcAMju6ufK47QqktdyHpX5ft11OofIzHX5a9kZMwr4IStx9uFEQM4SNXRFfRzk3IsL9zkLL4/nrCdS26OOx2uQ22zyQXOor3ELaNmXKJwESCJNAcQ5Ak07WVMkb6PQmWVa+/cN1sp1ZFma5nPzEY614XZWcjJMv9pStzpUOBLb9LDlKfp6Z486vdJ7VS6C2Vf8ShnuaTSCYCljS0SVbSZNK2SyHskmABEggLAJFBQFiB7eGADp/wZ33G1Hp/PHkeQg6/7+h47/RU+dvWtqkuk1Ia/eH8s+aFn1VXZO2Oq8dlnHZKletk7ORCGqhLflGrrFvBATOsFkGZZMACZBAmAQKHgHYolVPqHDlTXRitndum4aI/yvChGPKHtukR4+ulOvRYX/Dli6IE1ghSs5rb1C32yqj1ORi9ck2YPZndNQjrdXNlc4eR7Z8u14ts1YGBZMACZBASAQKHgHAPHaT7c7fZICLQuc/YbbeflSV/MVm52/a3aRPNvPadS360fEtuiYkW4hVsSawEt7rd60qDSc3Y+9WC6FwEiABEgiHQEEjANjprw6d/z9sqopguWVOpXy2bZpaZbOc4WRjnvlI5SLYzP5Ix0BV8NSJJ9uLESjYMvALfspGAO10O4z4uGzf+XWsW0vt8gbV4Zc8yiEBEiCBKBAodASgyabSmWQ/Il8Lu/P/VKs+DKMQdwXe+Ru4xuFQ0gxn669MTTu8tSEe4HSc1T78mcWfUalkVvFX80oSIAESiCaBvEcAgnj61yKz2+tVMHsK5GiPutl6R0li2D8qL1eu6u6SxuVNam1UVIqaHkG0GUcBotbq1IcESMArgbxHANK2N/vB0riwO//JV+nRWP99r1eovl7vyLkVVbKodo4+2Fe5JSSsbZZ6FftRXGOzSgh8bbApn7JJgARIIGgCeTkAJuWv0nKKVeUcOc+q/DyE93wotwWxvDEPVQacgiDBLVRCHq5p1b82bTHgS37IEKgYlemgrcWNIEjzNC7XpLGRAAmUEoG8HIDqlJgNfzylDR4KGob+H0HU/2+GOsf2dzVz9cnoaL9quxwv8tFYR41Iy5sTW/XZXuSU4rUmoRLiNi6wVjfEZuhq+W9r8imYBEiABAImMGwMAJ56qt1KeRv7pY+1opvZ4ldkq7ZG1WZFfj5C12f4+wcC8OK0BO8F7DtwWttMZTUhTj74onQOpkr+jNGSna3o5Mp7m46VCS+fqXqsyKdQEiABEgiQwLAjAOkRcrq1zt9UVEtLqJ0/VKiplCNj1vkbcrsiP8Hf6+boi80HvnoJJOVMaywc2WzFSjnJmnwKJgESIIEACQzrAOCE863pY3Lid0uzNfn5CnbkO/meGrnzEvJDJBB6Y2KL3ityuoWgUPsM9QqKvc5W0VpZnGawpTTlkgAJkEAWAkNOAdje8c9VckrHjHC3+c2kNhZZmoVN7A5h58QbqkbK+eW+wZAJlBzhyrsWG3A3xKy8YFE+RZMACZCAdQJDjgCotMXhVDz9d6yVW63XcJgCsLwr0oF/w6g/4OuEkjNSH8qbGBE4dsAXZfbh3enqPWzR/BNr1XZjPGJkDQoFkwAJxI1ATgcgs/RPyVEWK9SMrVaR+Tfkl5Z9QtbA3+IxT41MgncgRe7vzeiGv8LjIw15K+Za1PaYusu5g6NFvhRNAiQQAIGcDkBlWr5pq3z0+isQTX2DLfmFyMU0xHaFnB+XczG3c2DCRZBgq/6eYJVDXPT2S0+zgx+Wl97ol7wBcky65m45ecAxfiABEiCBmBHI2TEg8c8ZtuqitTRHZSkV8htsY6ueYctF3UZBh8trK+VPdXOR4rjMXom0WNtQCU4sVwOUmT2xuiRQagSyOgCms7CYEW9VolOuLjWQUa6PWRfvpuXPWCkwz+R1iLKufuq2ZKZahFwJd/sps08Wfjg7l/MUSx8H/iUBEogvgawOAPKqW5v7R6T6vLYm1RlfZHlo7srqPM4K9BSTyRFBghdKlbxhVncEWniIhcHeLrFVfEVajrclm3JJgARIwDaBrA4A5o+tDG9iu981WKb2U9uVCls+1oqfhY5nlrgSPUcH2Q4dVx5HkODt4y/V48JmZbv8pbPU62iHB22UgxiDo23IpUwSIAESCILAIAcgswe9vZS4d5bDGnXkpO9e2qDmoAE/A2fg6SAastAy4OQdl+yWN2qb9emFXhu389MiP7Ohs5la4TSADbKUSQIkEASBQQ4A5kyPtFUwOsNf2ZIdKbkOEgvjZVIcIzPdPliTfpJZ+RApHaGMSfGMDZBuQN6AZ+qadV3U9PNLn6Vd8gRGAd7zS15/ORXYoKn/Z74nARIggbgQGOQAoJM+yIby6ACX4al4vg3ZUZfZ0aBuddbJluiEbo6krkr2gl5/r23R3//8tRp9Wom9kG8Cyz1vt1ErOHclk0jKBh/KJAESiC6BAQ7AhMv0WEfJTjbUhdzQs/7ZqFe+MhH4uAojAqeiw/gSNkBalO91gZ2Hte3Y8/6S91fKqxNa9S6BlRtQQXBsb7NSlJap45v0SCuyKZQESIAELBIY4AAkuuQIa2WlIvr0a63C2QVjNODZTT+O5ENp+RFGBMxWyJF6mbwICBJ8HtvqXj35Kj06Usp5UGZpvXoJQaiLPYjIemlmdUW1fCXrlzxIAiRAAhEmMMABwDDpIVZ0deU17lv/EVmTBAk8LkqJbIvRgMhNi6BTcxDgdlb3OkwLtGprMSEfEQnoXcJODAqWVx4cUA1YDAmQAAn4RmCAA5DQYmV9ODL/lUfwX4HNsqxRLW5rUFOxauAMJOpZWeDl1k+HcYzHaoF7sVLgISSH2tx6gbYLqLA0DaVlb9uqUz4JkAAJ+E1ggwNQM0dvg9h134d8MezqdlbILX4rXkry2hvVL1OVshXWld8RxXphpcBXMWVhlgz+d5z3FeiYppaAr//b+CqZYuJnoth21IkESIAEchHY4ABgB7k9c53k6bgjr5jtWT3JKIOLl1+oVrTXq+MRF7AP/nVErspwDuEI/KRmhPxp4mwd2w2UkKDpIRtsK3os/X5sKEuZJEACJAACGxwAvNndBhEM/z9tQ26pysRKgaelS7aCQ9aC0ROECUTrBTvZOeHIyxgxao7jvgLQ/2kbRLHKYDcbcimTBEiABGwR2OAAoMOxcgOzdcO1BSQKcs1eCW0zVCNiAz6H/AkvRUGnATo4UokkQg1ulfwNCYT2HvBdxD+0d2IKwEaKZteOAx1xnFSPBEggxgQyDkBm/hLzmDbq8Z9O+YMNuZGWibgHP/Qzeew76tUXkMr2HLOPgh8y/ZSB1QKTMIb0FJyAmzAaMMZP2dZkISkQnN35fstHfoed/ZZJeSRAAiRgk0DGAUj0yA42CsFN8ZWVTWq1DdmRltmbCtgvHbGG/Wo8cW8Jr+Iev2T6KseRU9wR8mZNiz7RV7mWhCHY0nenFM7QyElztBUn2hIGiiUBEihzAhkHAEu9rDgAkPt0mfP1rfqYEngHowFHY6vmQ+AILPNNsE+CYEjjkO3xV9hM6qnxLbrGJ7FWxMABeNqG4HQCCZ74IgESIIGYEMg4ALghbm9DX3RU823ILWeZ7TPV71LrsGRQy2VRDBJUWBOf1PL3ujl6RlSXDHZ0ynM24gBU2o4jXc72zrqTAAnYI5BxALDG+7N+F2HW/6c75XG/5VKeyPImtba9QV0Axp8Hj1ejxsQMh0tCWuuq5fmJrXp81PST9ZsD/dF3vZJ0AHxnSoEkQALWCGQcAGwCY2Poss10VNY0j7Jgn4IAh6vislnqtbZ69TmcNw3OQPRYK9kFT8X/h3TC+wxXl6C/h+G/7HuZrnzGd5kUSAIkQAKWCDhbtOoJiOSu9ls+5oMX+y0zNvJ8DgIcrt5wAq7QjmyJZYO/He7coL9H8OJY6PUYtho+PuiyhyoPAapvDfV9Md9B5qRiruM1JEACJBAGAQf5/+tsFIz5/zdsyKXM7ASwUmA5Ugofik7oGJzxTvazwjmKKYEkRpluy6QSDkeFQaUicc/CQQc9HjD1jHoApMcq8nISIIESImCeVe08tVjYerWEuFurCrYbvjs5QraCI/ATE4dhraAiBCPY9MoJrXqXIi71/xJLI1QJseNQ+w+AEkmABMqdgOOk5NM2INh4wrKhpxWZIXe8i89Vq+EInOs6shucgAVW6liEUDwh4z+5d/JV2vdNpwpVx4yYgI3vyZWwX0JdobrwfBIgARIIg4AZAaizUbCSMo4BsAG0CJnL6tWLHY1qW3R0DTaWvRWhEsxNJnSvlf8p5lq/r4E3YiNOpc5vPSmPBEiABGwQwP1YfN/nHR1OCh3PEhsKx0JmwEGAwzFBW7R2K2wwpOWx4c4N5Hst50yYra3knihEf8yP+O4AqJT/v6dC6sRzSYAESCBfAg5uguPyPTnf8+BV+H5jzbdsnpedwPIG1dHWoA6AE3AcRgNC3Z7ZTAVgR8HZ2TUN8GjafzvFyNemAdaARZEACZBA0QQcR/vvAOhEtKLQi6ZTghfCCbgzuYlsiapdh5Ga0IIEERB4cGYJaoiMsUTxn34XD9unA+A3VMojARKwQsCMAIz1WzKSv5TfBkB+Q7QozwQJInfAmdgVbypcAN+Xw+WjuhkFSLrynXzOtXWOq2SV37I5AuA3UcojARKwRcDBjXiU38JxY6UD4DdUC/KwUuDZTcfK9thX4AdwBDotFDGkSIwCfG3IEyx/iX0LfF8FAI6+O9SWMVA8CZBAmRIwQYC+v7Dj+n98FxongSEOrReK6eUzVQ/2FfgfTAXtgKWbTxd6vZfz4XxuU9OsJ3mR4eVaZE/03VG1MaLmpY68lgRIgARyEbDiAGD9+Ye5CiyL4xFbBZAP8yUz1aL2GWofjN6cgtS9K/K5xo9zYIB7+SGnGBmY//J9BMCMqNU1ad9TaxdTP15DAiRAAkMRsOIAQOi/hyqU30WXQMcMdUtPBTa10XJLEFpi1MH3nSjz1TuVsrSB0kgZk68OPI8ESIAEwiJgxQFA3nffn6zCAlSO5S6/UK3AaoFTMEf/ZawUWGKTAeIPtrYpfyjZbsL/IEBTnptiHMBQ3PkdCZBANAhYcQAwhOz73Go0cJWXFu316imnS7aFIzAbwW3dNmoP2aEFzTmVdhxVxBb4nlvDBnvKJAESKG8CVhwAjABEb2/6INs5RkGAw2Fpa1KdcAS+jymBHTAa8Nxw5xf6PZbNhbYvwLLz1cpC9c3z/I/neR5PIwESIIHQCDgmba/fpSMIsNJvmbGSF8MgwOH49mBke7hz4va9rWA9Rwk2BeSLBEiABKJNIIkhAOMAJP1UE/O6vucW8FM/ysqfQKaTHCkXSVrOx04+Nhw735Px5Fu7dZvI6BE23Jp08DkV8q0zzyMBEiCBPgKm4zdzu74uW0qky9wBKJEpgLpmfSBs41oM/9eYbfxsvCA2sCWHG+s/IiUjbdRLV9iJl9hYf34mARIgAS8Ekq6WlIV7+yZelIr9tTGfAqibqzdHIOdPkCr4KNttgWWAoW0clXJltBkC8/3FEQDfkVIgCZCA/wQczFb6ngIWUdCcAvC/rQKRWNeqv+em5U0Eclrv/E2FsArgL4FULEshiYQdO0UyJSsrJrJUgYdIgARIoGgCSYR2rcIw6PiiJWS5EJ1HeTsAMZwCmNCqd8HmPNejObdHNrvAXkhB/GxghW1UEEa/RiWwDMHvl5O2s7zQbz0pjwRIoLwJmBgA34Ow8FT3sbLGGqMpgLFNevSoavkfOILnwBEMsOvHsgJXFnQ0qrawbEU5dpYgOkmxtbwwLFQslwRIoAQJJPEA5PvNCpsBlXcMQExGAGrm6KOcBOb6RTbHfH/gL3TA9wdeaP8CFYIA4a36/Wqbod7xWyblkQAJkIDfBJIIwlrl970feQB8nVLwu9LW5QX8JF1ofca36BoM/fwS69X3LfRav87H07+LWJGr/ZJXjBxsBjTeguPj+4haMXXjNSRAAiQwHAEz5Ov/Miw3vPzuw1U4kO8jPAJQM1f/sFJJe5idv2kDjDw8tLReLQ+kPXIUAud3So6vij+s5b3iL+aVJEACJBAcgSSG69/2O2+Z2RL1k/P0Zu9OV7wZBteWQ5Y0sUXvhfR012PI2/9Ob8iSs3+JkfcfZf8mwKNatvR7BAD1os0H2IQsigRIoHgCSczDLiv+8txXVqUzHU153gwjNAUw4TI9Ntktl6OjOzl3awX+zXXtM9QrgZe6UYEYAdja7+kvOABtGxXDjyRAAiQQSQKYBrXjAKiIPGlGknpAStU062+j8/9HlDp/JBh6GwmF6wNCkLOYusv1GMx/+b5rH35QS3IWyi9IgARIIEIEkliHvczvYVBTP+wHsGWE6llWqtTN0VtjQd/NaNddolRxE/iHHBHfaJumQg+US3XLFLMG1veXgsPFFwmQAAnEgIDTZmkdNiK8IzHXHEobhBQEaDbuwdK+ZsR0/D1qnb9pBzibje0N6rlQ2mSjQhNaJm90yJePacURAF9AUggJkIB1ApnELyYhi98lYQpga79lUl5uArVz9MFSJW8gur4h91mhfjOtbaaaG6oG/QpH8OtW/T769hZpgDkF4BtNCiIBErBJIOMAYFjWdwcAKwG2sbXfuk0gcZM9sVWPR4T/vSohD2PYvyZy+rvSmdZyRFu9uiJKuqUd2c53fVxZ/Xa9shJU67uuFEgCJFD2BNZPg2p5w0ocwAjZDYSfKjvKQawCaNJO3Qg5F6M3l5hll5Fk7EoH8u0ftLRR+e5geq0vRgD29nv5KwJqX/eqF68nARIggaAI9I0AWLlxqTRusuX4shwDYDbuqavK7KJ3eVQ7fzz13yDVskPHzOh1/hNn6+0wVTLWb9PEtNdf/ZZJeSRAAiRgi0BmBABPka/hhuj/yylTB8DSCIDZuOdjldKCpXRnBr1xT77GgXXwb2Ft/YlLG9QL+V4T9Hlwmva2Uaab4AiADa6USQIkYIdAZgSgo1sWwglY63cRGP7dXTBU7bfccpRX16KPHT1C3sBc/1nowKLHFHP9WPr5g3Fj5DOY749s55+xHSVTbdgQRgBesyGXMkmABEjABoH1MQBNynVatbl57epnIeiokhOrZc+lIvP9lFtOsszGPZUiv0KMxl5RrTccvSdTSk5f3qA62qOqZD+9MILyZThSvr7gQLtOl7zkq1AKIwESIAGLBNY7AChAp+UvuCn66gAYvZFqeG/8oQNgYBTw+vy1uuL9f0ujk5ZGPO9XF3BpYKei03sHmwpN62hQdwZWqMeCbM3/w9l9ra1JdXpUj5eTAAmQQGAENgwl66TYGbZ1o/vkao2yxyDA2la9z78+kNeROOfiqHb+cBivWdMlW7XFqPM37Y2Oem8b7Y5RkD/YkEuZJEACJGCLwIYRADxpzrcxs4xO7Esm73oU0r/agjhIbpFz9GbjHqdbrjRBdDaWZQ7Ss5gDCBgVV05pn6VeLebysK9BzotDbeiANrPjQNtQljJJgARIAAQ2jACYlMBYx7zcdyqOVLqd8g3f5ZaSQARKmo17nE55E0PqJ0ayakhyA72mtXXJ59pi2vmbLarxpP5lG3wRABiJFMc26kaZJEACpUlgwwiAqR6e1p/Ak+fJflcVsQXHQeZ1fsuNrLwCpgCQu38bML8eQ9O7R7Y+Inciac60thnqnQjrOKxqI1w5Fi7vAJsf9qI8ToDjvKzD0p4aeRTPU0iABEigKAIDb4YaWftsOABa9jYpa5fWK/9HGIqqdvgXjW/SIxPVcjGe+C8MX5scGiCTH745E6NDj+Q4I26HjSPq+wvDaL/zXSgFkgAJkIBlAhumADLlJMTejV7j6atcXsPEAExs1vsnR8ibiah2/q50wxFsERPkVyKdv3FAYX67WjLB31uSS7EkQAIkYI3AgBEAM8Rb06pfglews98lIkjqBMi8zG+5cZJnOiF0+leLlsOjqjeW9j2HNL6nvT1DLYqqjsXohemt0+HU+P4CrxTW/9tznH3XmAJJgARIYD2BgSMAOIZgpgdswMFQ9041l+tJNmRHXiaC/LBj3/nYgOaNqHb+SI6zAv/OwFz2Hm/PLK3O39gHshSeZsVOlDzD9f9WyFIoCZCAZQKDHIB0Wh60VaazTk6xJTtScvsFAda16l1rquT/8OT/YwT6RXLXPrNxT7pKtmpvVL+MFEeflJkwW28P9nacT9fe78Wn6lMMCZAACWQlMMgBWDZLvYZhzSVZz/Z6UMmpXkXE5XqzcU/tHH019H0enc82kdRbyyJ0/lOxcc83l52vVkZSRx+UwkZX3/RBTFYROiH3ZP2CB0mABEgg4gQGOQAZfbXcbUVvR2pq5mrflxla0dWDUHT4h46ukjex/PEsD2LsXqqlEVn8tkLnP99uQeFKH3+pHodplzNsaIFphWe5ssUGWcokARIIgkBWBwDbmt5vq3DHlVm2ZBcjF6Mdvu+CmFlK6chmxehj+xqzcU+3llp0/i22y4qC/Iq0fA8O2UgbuiCr4L025FImCZAACQRBIKsDsKxevYh0rx1WFFAyBfPiR1iRXYRQAFhTxGWxuwTJapa7aTkaG/fsZ3bti10FilDY5FpAYON5RVw67CVwHN11jtw+7Ik8gQRIgAQiSiCrA2B0xZOitZsbOqPIjAK4SpZFtG18UwttecWadfKZjpmqrOarKyrlbDz9Wwm8xPTO/Henq/d8ayQKIgESIIGACeR0AJAg4EZbuqDQneua9d625BciF8O4bxRyfqzOxcY9qZTsgKf+aSublMnlXzYvs50yAvTqbVUYSzqvtSWbckmABEggCAI5HYAlWAtugpxsKaEdezfnQnTG0/FLhZwfh3MxPG2mNc5DFr8dzKqOOOjst47vr5TTYNzj/JZr5JmcCXHbBtkGB8okARKIN4GcDoCpFpIC3WCrekjKdmBmIxxbBeQpF09ypZXFLS13Y9nblm316qo8EZTeaUi8BMO2Ns2EaaObSg8aa0QCJFBuBIZ0AJAL/s7ep0krXDCPGnonhXnxBVgmFvu0t2inJa4jX2mbqY6J+659Xo1t4gj5Dnb9q/EqJ9f1GBnj8H8uODxOAiQQGwJDOgAmxalW8nNbtcEowL4YBTjKlvx85WIa4Jf5nhu587BxD4akZyMf/bYd09UTkdMvYIUmXKbHJkRm2ypWizyyrFEttiWfckmABEggKAJDOgAZJZRcblMZBOFdYZZr2SxjONmpCrkBT9D+5wMYrmCv32uZj9GLHZDC9/vMR78eZrIrs+HUGK9oc12P2JUf5/qOx0mABEggTgSGdQBMpjM8Id9qq1LKkS0S1XKxLfn5yF1+oVqBkQ5rT4356FDIOVhGuQJ5Gk5DINpUDPkvLOTaUj7X7LuAoX97+01gqoijLKVsQawbCZQXgWEdAIMDCWTm2cSCjXIurJujt7ZZxnCykRJ3ThxiAYwz5lbIVojwv2m4OpXd97aX5mlpLjumrDAJkEDJEsjLAcgsJVN2tgneQNYJP7AK87unbdAnYm8wRbEAwWd7YE3/SaW8cU+x2PH0/z08/W9f7PXDXufKe3S6hqXEE0iABGJEIC8HoLc+TVbrpWSvmhZ9otUyhhHe3qCek7T8aJjTAv06E5uAjXs6ujDXb/TjaxCBT87Tm2FKxOo0EkZeYjNFNAgQD5AACZBAFgIqy7Gch+rm6t9gmPzwnCd4/ULL6h4l275dr5Z5FeXl+roW/Sg29Nnfiww/rjUR5ymRb4XNw4+62JRR06wfxsL/g22VgZiLZR31aqIt+ZRLAiRAAmEQKGQEwOjXZFVJJaMrtNxmtYx8hHfCyTER9iG98NT/jtm4p71eHcTOf+hGmNiiz7fZ+ZvSkSzqoqG14LckQAIkED8CBTkASDDzKqp4p9VqYiqgtln/j9UyhhFultRt+nHZD9MBdw9zqq9fo+NPYaj5inVdsmW5bdxTDMiJrXpnZKtsLebafK9Bmyxp75Kb8j2f55EACZBAXAgUNAVgKoVNfOoQbPUP2xU0We2isOQK9TVZ5a6xXl+Rlxwl3+p1smwXF3v5dZfrMdIpf0Xb1NisDKZhvo6RmPtslkHZJEACJBAGgYJGAIyCiIRuQ8CV9RS+KiV3IOZg8zCg9C8T9f252VFPp+1sGoQnzDVpkXMwx/wFdv79yQ/zvgdP5ZY7f7TNc+z8h2kHfk0CJBBbAgU7AKam3RVyCZyA1TZrjQRB47Ds7VabZeQr2yyDbJ+pvoDh+ZPSrryQ73VDnWc6fszzt7hVUotkS1cPdS6/G0gAS/7OtRqM2lscsv6dN7BkfiIBEiCB0iFQ8BRAX9VN8BUS+FhPi5rWMiuTpKev4Aj8nTBbb48d98x2s6djtcDoAlUycRQ3JkfITYvPVVadqAL1isXpdbP1jpKUv9hW1iRcMjkXbJdD+SRAAiQQFoGiHQCjMJbLvYEOcIpt5eEEHAEn4AHb5RQj36SfxdP8VFw7GXP4Zj66Dp3HBDgHKbB5B0+Ry1VaXsNSsr/hqfXZzO6DxRTEawRBf+MTrjwfwND/WrTbliYNNrGTAAmQQKkS8OQA1MzT+zmuPG4djtnxTsk+TIRjnXRkC5h8lR6dWit/DsLhBIRpbfXqisjCoGIkQAIk4AMBTw6AKR9L9h7CfP1XfdBlaBFIEoS4gy9y85uhMZXit3VNuhqxEk9ivf/u1uun5UVssvRF6+WwABIgARIImUBRQYD9dcZyvTNNQFv/Y1beY67dTciTUVgZYKV+FJqdQBMG46vkriA6f9hxCk7mKdkV4VESIAESKC0Cnh2A3nnSC4LAAmXH4wb9jBkODqI8lhE+gYnVch3m/A8LQhNHyxyOMAVBmmWQAAlEgYBnB8BUoqNRXYcle88GUiEEHWIu+HEzLBxIeSwkNALYIvpirDQ5IxAFXHmtrdvuhkKB1IOFkAAJkECeBHxxAExZPSInBDIVYApTsgu6/8cz2eDMZ75KjkAmHXRCfhhYxbQcI03I+s8XCZAACZQJAc9BgP05ITfA4Xhi+03/Y1bfu7JQErIPMui9Y7UcCg+OAOb8zbB/YE/+62vGqP/gWpglkQAJRISArw6AqRNy51+JOdtzA6ufKx1utezTMU0tCaxMFmSFwOev1RUrVsmDMMoDrRSQTSh2fUTUv8njwBcJkAAJlBUB36YA+qghd/55tvLm95Ux4K/JB79O/jyhVe8y4Dg/xIqACez81wfyRJCdP1Ixr+xRckKsQFFZEiABEvCJgO8OgNErlZCvmZurTzoOKwZpecciIdFTJjHRsCfzhMgR+OQ8vVn3WmT4w1bQQSmHeBUXI1WHv12vlgVVJsshARIggSgRsOIAZG6quLlmbrIB1RbrxEdiFffvkZ742ICKZDE+EKhp1pOqXHkZaZS38UFc3iKw5K8Ruf6DWbmSt1Y8kQRIgASCI+B7DEB/1YPaMKh/mcbpQNrgy5Z2SiOiulP9v+P7aBGonaMPRhbJO/DkH2heB+3Kb9sb1aHRokFtSIAESCBYAlZGAPqqgA18LsP7O/s+B/EXIwEOIsgvrKmSZ8zmMUGUyTIKJ1DToi9XCXk46M4fA/+v9XRhyR9fJEACJFDmBKyOABi2mcjuf8lzuNnvHDRrE4eAoeUTEJj4SNBls7zsBLZo1ROSabk/FHsQWd7lyOfena7ey64dj5IACZBA+RCw7gAYlOMv1eOSPfJ/eDrfPGi0mTgELXM7umUWE70ETX9geZndI9Nyb+BP/evVWNWTli++PVMtGqgVP5EACZBAeRIIxAEwaCfM1tvDAXg+E6wXAms4As+llBy3vEF1hFB82ReJeJB5ZmomFBCudCLifx9s8ftCKOWzUBIgARKIIIHAHABT98wyPUTqwwlIhsECTsBaBAjO3uzjMu/lMxWyF/NlmwBS+n5Zi1yPNp9ku6xs8tHmKaXkiPYG9XC273mMBEiABMqVQKAOgIFc26qPRBT2r9EhWA1AHKpB0SG9hY7h7KWN6rGhzuN3xRMwc/0VrvwMrXxY8VK8XYk2djMxIA0q0EBUb1rzahIgARIIhkDgDoCpVs1cfTLWYd8cTBWHKEXJAz1a/pvJYIZgVOBXZpdGd6TMkLTUhzXd06cyHIAzzU6VfZ/5lwRIgARI4CMCoTgApngs0Ts7IXhCjMDLVXJRxwz1owioEmsVsA/EgdhO72dhDff3h5fWMgvLUOf0P8b3JEACJEACHxEIzQEwKkTKCcASMSctV67ulp+vbFKrP0LEd0MSwO59tSPkCEzrXICOf/chzw3uS+7uFxxrlkQCJBBTAqE6AIZZGNkCh2wrV1anlVyHpWqXL61Xy4c8t4y/zAz1V8nJmGO/AKymRAFFZs5f5Bzkffh5FPShDiRAAiQQZQKhOwAGTt0cPUMS0ho5UFpuQafS2jFTLYicbiEphI5/DOb4z8W+C+eZTZhCUiNrsZjKOQVTObdk/ZIHSYAESIAEBhCIhANgNML88amIGL9xgHYR+YBVAyaT4PXt9eq+iKgUuBqYrtlZaTzxa/kW2qk6cAWGKRBt9PVybp9h8PBrEiABEhhEIDIOgNHMBJHhz/1R7GCMfpnUwgm5BwFmt2GzoWdLPbPg+BZdUyFyMjr+E9AmWxsGUXthhMbkdjgIAX/zo6Yb9SEBEiCBKBOIlANgQNW16l0RSf4QkgSMizI4dDzviJaboOfNbTPVwijrWohuEy7TYxNdcjx26TsB1+1ayLVBn5txyLTs2zZLvRp02SyPBEiABOJOIHIOgAFqdvGDYg+gcw18A6GiGlTLIkTBP4k58Ue61skTy5vU2qLkhHSRcbqwbv8g7ciXkTVvz5DUKKhYOGBLMBHxlY5paklBF/JkEiABEiCBDIFIOgBGM7OL4PsfyC8RZX5irNrKlW6dwO6HrjyKYfNH2tbKa1GbKqibqzfXaTkYQ/sHYLRlv6gF8w3X3nC2fvufLjmByzWHI8XvSYAESCA3gcg6AH0qIy7gO+hIr+n7HLe/Zpga+v8Ojsyf064sxBLDhUFuSDS2SY/+WLVsh85+CsreNqFlf+izfdw49ukLnudhVcZVfZ/5lwRIgARIoDgCkXcATLVq5+qdFPaQR8dVU1w1o3eVq+UVx5XFGC14U2tZiCj2DgSzdWJ5XWcl/nY6+OtIt1Tg2L+ls61JdZpaTL5Kj8bTb3XSlcqqtIxEKuNKbK1UjQ6+Go35X5C1Hebvt0J8wpb4tzXeRzqWooCWaQefI9tnqFcKuIankgAJkAAJ5CAQCwfA6G7Wn+sRcgcUNisF+CojAnCO7vjPOvlOOQ/5Z7bTTsoULMOcbBw7OI61cPZG4f1I/DPLMkdilGmkKBltTMOsjsDxTuTXWItrMu/TgveOrMLxBfj3D0z/LEI67kVInNRmruGLBKJKoGD7x8irSsgHuHd8APtfKS7sPoF/Cu+1/BO/nbcwTftWKQVwF9N2sXEA+iqH7WX/G0+1P+n7zL+lSwCd2Br8aM8pp+Q+ZoSn60PZFTevXTFCtAduVlsHMfIF1gtwo3w9nZBnEil5jisrSvd3FeWahWH/cISXIfh5MX4Db+E3txC/gfnL6tWLUebkl26xcwBMxSc068lQ/FcJJ9rL1PxqpLKUo+VFdH7HlPrTaWbZZTdGtVzZEzehPaISn2GcL4woPAe9XnAr5A8d09UTZWmHrLRVAlG1f9h9J1ZFPY2p2j+gr5nf0aCetQoiJOGxdAD6WEU2hXCfgvxbOAH88NAJNrbVqysKvzgeV4xv0iOT1XIkOvwT8AOMxZQWVl6sQAzGHXAKbkfbvBAP0tQyigTiaP8Zjloew2jBr+AM3BpFrsXoFGsHwFR4izl6Cm5KN3M0oJjmj9Y16GCe7nHllCBXSQRGoEkna6vlAMxBnoDO9FDMxY8KrGyfC8K86lsIyr0tpeRXyxrVYp/FU1wpEigh+8fowHsYGfhlCqvT4n6vir0D0Pdbidyugn2K8e+wBDIZ/bCrIIb7bxr25JidsEWrnoAVG9/BD83sobBZzNQfVl0EU5mh0WvaG9Ttw57ME8qOQMnbv8iTWIH1i7YGdWccG7dkHAAD3+Sur3RlHgLHvhHHxig3nTHP7OKp/8ZElVzYNk2tKpn6N2mnrgr5FkTOwpDhwXjaT5ZM3XJVpPepCAFUP3u7Xi3LdRqPlwGBMrR/jOq9jZilK9Z2y8/fb1Jr4tLKJeUA9EHHaMBeSHjzk6gEVPXpxb/9CJj0ySKn4cnxuX5HY/8WaZW/B8fmu+j0J8W+MsVWQMkDKS1zyiWSulhMpXhd2du/K6sxPXC1k5Qr22aod6LexiXpAPRB791iuAmfa/uO8W/oBN6Btzy7vVH9NHRNfFSgZo4+Ckv3WvCD+rSPYmMtCg7eHSmRGRwRiHUz5qU87X8wJuwaewOmyFqiHCdT0g5ApkkQfILh2BOxpOP7vDkPNtLAjrjSgbKaNx0rN7x8puoJrFzLBZkEJchLcS2DUHOANsupRH7c0yVz4rZJVo4a8XA/ArT/fjCyvDXTnBgN/AXytdZHcZqz9B2Afo1SM1efjF3vfoAGmdzvMN9aJIAfwBIYWTOe+H9hsZjARZsNlRAN3Iqo/pMDLzyOBZoYAZEfdDSq6+KoPnUeSID2P5DHcJ9g+yuQZGh61AKdy8oByDSSCVCplm+YmxGWD24zXMPx++IIoONfgM6xuaNTbo/abojF1aj3KthPTZV8E7YzD/XLpN31JK/8Ln4h5cpJUR4WLb8mKaDGtP8CYA0+FffF55Bx84yopCAuPwegX5vUtuojMUdzNm7m+/Y7zLceCGCb4ZcwFz4byWJ+40FMJC81OSeSjtyABD57RlLBGCmF390PEAD6PzFSuexVpf37ZwKID7g00Sk/6NvkzT/JhUkqawegD9Uk3NhdJefgie5UPtX1USngr8neJ3IXll9egcjXVwu4Mhanfv5aXbHiA6nHet9ZWFlSHQulY6CkGSWCs3gSd3iMdmPR/i21D1ZCIfHZoW/PVIsslTCsWDoA/RBlUlQiYBAxAmfh8I79vuLbLASw3GUBRk+uR4DLTVEMcMmicsGHMrkltDzEJaUFo8v/grT8CEOiF+V/Ac8MigDt3z5pOMJnhhUbQwcgR/tiPeuu6ODOwXzNYbj5c663j5OW+dhW9gFVJb/pmKaW9B0uxb/GBrBk8SFE+Y8rxfpFqk7IHdC9Vo7nSoHotArtP8C2SMvdq7vlW0FveU4HII82rmnReyLi+xAnkdm4pbxGBpDYAhmuHnEdeahypDy4+Fy1Og9ksT+lN4fEjbGvSIwqAIf7FWSGPHRpvVoeI7VLUlXaf/DNipGAJZgSOzrIKTE6AAW28yfn6c2qtBzopOQQrCTYD07B2AJFRP50MzeLWIjHMOf9EJbv/W/kFfZZwdoW/WME+p3vs1iKy4cAlgtik5VDmUUwH1h2zqH92+Gar1QEyH4VAbIP53u+l/PoAHihh2sntOpd0FHumVDyBXScu8QyBawrr+HJ6wl0+n9MV8jTy85XKz1iieXldU26Wo+Q+/GjODCWFSghpeFcH91Rr+4poSpFviq0/wg1kZbjgthgiA6Az22OH9EYt1ruiezSQnT2qPJfzHArYhteWdcpr8Zp8wqfm2uDuLFNevSoKvk9HLjdNxzkm3AJuHJa1BKnhAvEXum0f3tsi5WM+KNv2U6gRgeg2NYZ4rq6OdosiQtnR0IMoUK1d5D6eDmGkt5E7MJiOCOLerQsCXO5yRC4Qv9qwmV6rNMtj4PTTqErQwUGEnDlLDgBPx94kJ/8JED795Om77KmIafKFb5L7RVY+tuU2iIXhtz1T+/nDSralVVSIe/EYfepQbqHfMDEdDhd8hSe/GOTFRK59d8CtjcRnLkAQ+X/wvTTGjh6ZheyNXBizFaknVi5MBoO4EgcG43pnVH4PApTVXW4Zkv8nYLRn81CRp9f8Y5cA4d6NJYJzs3vAp5VCAHafyG0Qjn3ciSsG9der75vo3SOAFigamsEADEGa7Be9GMWVC5LkWaNc1LLk+j8I7s3RG9A5pMISnw6kZbXl/iUNOQTTXpU1QjZBjeAnfFvH+Qp3yvKTkHvDpJWboJlafyoNO0/RvZvKXMmHQALv35bDoBRNSXyRUZIe280E6uBgL+X8AOI1va9ZtmlI3fiyf5xZ508gVShq7zXNj8J2NJ1G52QvTFCcGQUY1jgDDXAAW7NrzY8aygCtP/BdKJu/xjl8306jA7AYDvwfMSmA4Ac0hcsbVCXeVayjAWY1Kb/WiXzgWDXSGAwW+Yq+S1WYdwxbow8FIXtkjO7vWk5FlMIJ0UlNgIOgIupjKMxHHpfJNotpkrQ/odvuKjaPx4OjvFzdQwdgOFtoeAzbDoA6CQewFz/EQUrxQs2EKhp1b92RI7acCCkN3jKX4b5/GYMxd8a5QRLsOetEdQ6DZi+HRKqj4o1+044sg8Co1746CDfFUKA9l8ILZFI2T9UR1K2r3RMV08UVovsZ9MByM7F01GbDgCegtYiaG3TsHeR8gQoxIvrWnQrnKgZIaogZl4fDsi8ti65FVslY1YnHq9MEqwemYYRgbPRCYeWHttNy0okC/rc8gbVEQ9y0dGS9l98W0TG/hELhgR0X/Jj4zU6AMXbQ84rbToAmUIDShKRs4Ix/aK2WX8TQ8jXh6b++iWa9XFf2967bKwJjsB3Q2OJndQwFvDFIGMkQqurTwXT/v0BGQX7N05wOiE7vF2vlnmpFR5E+IodAUeOjZ3OISs8sVXvjOH2a0JRA8PW+MG2dHfJp+Le+Rt+JlNkR4M610nLVmD6ZChMlUxBECczBeYJn/afJ6g8TouC/ZsU9BVa7pUmZHzx8OIIgAd4uS61PgLgSveHmAZgBr9cLTDw+OSr9OieD7H3vCNbDPzG/ifM89+TQuBmKQ9X187RB4Pt5ZhamWKf6EYlpKWeOQI2YrLRR9r/RkB8/him/ZsHi46ZqrHYKnnyHootlNd5JOBIZfUIOdmjlLK5vGed3BV052+G6HRaDkHE7tGl3PkbI2qfqX636cdlO6wYsJaxLJexukpmm/04cn3P4yK0f7tWEKb9m3gmTO18udga0gEollzI16HhuFtdHm2Atb3nYpgr6M19XnCSsq25MeShYkmcYpYuYlpgmolQNs5PUJVCEqckfgv3msRGQZUZp3Jo/8G0Voj272AS4C4ToFhMTekAFEMtAtegU/t0zTy9XwRUiawKE2br7RGoNi8oBc06dcyJz25bJ3uUa1pmszzJOD9IQ/xsUNxxE5tQXS03B1VeXMqh/QffUiHZ/7jqdHHxAHQAgrcR30p0UiFGYftWC3uCkgn5NZarVdorYaBkPI1+PZOzu0lh6r98X8b5wX7mX8K+A7cERQH7IRxZM1dzWqwfcNp/PxgBvg3D/pEqfM+6EXJuodWkA1AosSid78hhmSQVUdIpIrqAy8WBBaWZKH8MfSM5zW8iUv1IqIH9zE/BkMhPAlMmJZePv1SPC6y8CBdE+w+/cYK2f4xAXpLJYFhA1ekAFAArkqcmpSWSeoWo1BZz9BQEh80MRAXk7kdSmql+ZeYKROcACzHLBSUtPwqiSLM0qrJHLg2irCiXQfuPTusEav/Y8RNOQEFTnnQAomMrxWmi5fDauZr72Pejh+HgG01wWL9DVt5ih7qyrWmnAABAAElEQVQVaVf24OZMQ+PFMr2LcIZJJWz/5cgpda06Gns82K9t1hJo/1mxhHYwSPtHzNOJtS1693wrSwcgX1JRPs+VK6OsXpC6YUnM6ej88/4BFK0bnvwR6DZ16Sz1etEyyuhCTI+YJYLBOAEaAYFN2roDGMXmo/1HsVVEgrR/7OZ5Q74JgugARNNeCtLKBIDUtuojC7qoBE82KTrRKRc0BFYUhvUb0hyABBwLirq+TC8yN0HsZml/iB4JiSZWh7vfQxhNTPsPg3r+ZQZm/45sXVMp/52PZnQA8qEUg3OwLPBnJuNXDFS1pmIyJdPNPLC1AnoFY+veo/Bj5m50RYDGVtbTERh4axGXFnQJnoIazZ73BV0U85Np/9FvwKDsH1MBl+TTH9ABiL7N5Kvh5t1r5Wf5nlxq5xljRwKavLxeT3XHRkxY4vawJxllfnFHp5yCfAmP2MSAaaBR7sjCl0XZ1MmmbNq/Tbr+yg7C/s1unT1rh7d/OgD+tm2o0jIBIB7SQoaqvMfCU2vkAnPT9yhmyMtNqlss7blzyJP45fAEkCdBrZOv4cT24U8u/gxHy7TxTXpk8RLicyXtPz5thS3AA7F/BClPwyhY9VBk6AAMRSeG32Eq4I5C14LGsJoDVDY3eSz7s5sa2ZXX4LlPH1AwPxRNANv4dqZScphgY6uihQx/4ZjK6uGfgoYXE+0zaP/Rbp9s2gVh/2Y6NF0tZ2crv+8YHYA+EqXy15HNsBb04XKKgq6olvNtPv2D59puJYfCc0+ViplEoR7LZqnXMFRZb1MXOIYXDPcUZLP8IGTT/oOg7H8ZQdh/Qkv956/VFbm0pwOQi0yMj2MqYCekhSyLeADz9GOGumw2F3ieUeo7+tnkN5RsExmN9vvtUOd4+Q43uHEyQr7jRUaUr6X9R7l1htfNtv3Dwd7svVXyrVya0AHIRSb+x79d06y/Hf9qDF2Diio51mbkP5at3cd5/6HbwOu3nUk5A1MBq73KyXU9RnDOyfVd3I/T/uPegiK27T/h5h5lowMQf/sZqgbXlHp+AOXk9m6HApPXdybHv5Lz8jqXJxVN4N3p6j0EWP6gaAHDXIjpockTW/Rew5wWy69p/7FstgFK27Z/jALUfKpVHzag0N4PdACyUSmRY7jxORhevatUtw2ehJz/aCpraV/TWEv7dr1aViLmEOlqdHTLTzEK8JotJTEXerot2WHJpf2HRd7/cm3bPxzsk7JpTQcgG5USOgYnICkpeaCQ/NBxqX7akTNt6Yp16m8hacccW/IpdyMCWBqFBEtnbXTUt4/Yn/noTzRpq8tEfVM2T0G0/zxBxeE0y/aPbLFH1V0+ODFWWebLjoM9+KkjnICRmAd9HE7AN0oqiY2Wk7Hlr5WXdko3cCxfYBOa9WQ8IXwZjLeDDdXotCREy1I3Ia+rtDztdypk2OZzdc36ZgxZnpKvjvmeZ34DI6rkeJx/Xb7XRP482r/VJiol+8+A6pRj8ffn/aFZun32L6L83mMv7rtwq/xG1GoOJ8CFXqd1zFC3RE23QvWpadVHoXP6daHX5XM+nkSfbp+h9snn3FI8Z8JsvX0iIT8ze0wMU79XsffCOabjHua8vL+e2KrHK1fa0WH7/nCCnRtfWNqodstbmQifSPu31zilav8YBXupo159oT85TgH0p1Hi73FTdZAd7WYERM0sgaoeY6sOeLpttSU76nLhvF6cTMpf8+j8TVV2xHl/rGnRV/lVr6X1ajluSrf5Ja+/nIQju27Rqif0Pxbj97R/C41XyvaP39XOqN/W/bHRAehPo0zeY7/w2WaUwqwhjmuVHVf2t6I7AtHaGpXVPPVW9PZBKLaSfQgjRD8sVBTyJHy3rkU/U+h1Oc/X0pLzO49fVLjyVY8iInE57d//ZigH+8fo5on9ydEB6E+jnN5jigJpUv9i5rniVu3MqgZsdmFDb/xAyu7p32QKw3LR32NJWfGdo5K9MH9/pR9t0jZTLbSVHAixHYf7oWOYMmj//tIvJ/tHDM8B/enRAehPo9zeY990GMBf4Pl+M1ZVT8shVvR15T3MZ99uRXaEha5YKfchGOhAzyo6cq5fq010UnxxJjauk6lnnEe+MvWh/W/crJ4+l5X9J2TnsU0fbRtPB8CT6cT/YsQFjMKT3/UTm/Xz2ERox1jUSGMTGQsvJP0pu87fDHt6evLfqB0QFDhvo0NFfeyYrp7AKMDbRV08zEXInR/vAE/a/zAtnP/X5Wj/H6uWL/URogPQR6LM/5oAKQwP/aWuVV874TI9Nqo4TBALnJZJNvRDR/grG3KjKhND9g/42fmbeqJtdq+5XPvSPnDI7rDBDoGLVhxIG7puLJP2vzGR4j+Xq/2D2Jf7qNEB6CPBv30Evp3skbewUuD8vgNR+ptOfGS8vuqlZRGW/r3iq8wICzM3P6y3t9MRrvMQS9CPGfIOWHHIsBx2v37FxOot7d+f5ipn+0eSs737KNIB6CPBv/0JjMFKgR9jM6E3MSJwRP8vwn6fENnBhg74UVjpbGzo6kVmX8CTtc4fymGefcBSo2L1NdulorNeXOz1ua4zI0j950FznRfF47R/b61C+wc/LTtii+wxhiQdAG/2VNJX40ZpVgjcD2/5r2ZnwSjsq44OYTsb0NNpedCG3KjJ/NdKuceXgL8hKuY68skhvi7sKy33FHZBfmePrpLd8zszWmfR/r21B+0/M03npKtlqiFJB8CbPZXH1Y5sD2fgWqmSd03SF5MpK6yKw2B9dwCQIWuFedoMq05BlWt12LNfJeBgrO330dvbCnnSm4DsV2O5587Zv4n2Udp/8e1D+/+IHWJ/MiOpyY8O8R0JDEMAa+9xA/quk5TvIhXpMrz/HYbOH127Th57v0mtGeZqz1/jB1wHl3W0Z0EbCUDk+vyNDpXWxybt1FXJ/TaH/fsDgwPwXv/PXt47H8qzbpWk4ID6eq9SWgakRPWiY1DX0v6LJE37HwQOGWE/Yw7iHs4XCRROAIZjUqp+Gzf7e7HJygcYGXjZjA7g34l+RYFvrBW257Uy/48fw1Mbl1UynwO++RlucAr/5Be/tibVCVkv+iWvn5xd+72PxVvafxHNRPvPBS0Tp+OrV52rJB73TgBzf7/D8qXReeZo915gARJ6n852wiXmn0i3CJ5WVmNo/XUMNb2B3PoLkYHtb7iBve+kZQ0imVePGCGrF5+rVmfOz/9/2+Z/av5nYgTgf/M/O15n1o2U+9Aj24n2z4ICdrrW6fI3ngJOpnHQ/J2zd2Qz5L3YvG2GeidLNaJ6iPZfYMvQ/rMDw+90ivmGDkB2PpE7iqfUNZuOlSNWrJIHcUP0nrXNdg3XTxeYm/buyC+f2bU3Y2x4b4adUuvgJLTiWTHslyudfm9rG3aVMuX3PfkE2PlnylVyXe9Tu38YHHnFP2H9JGn5ZyRssJ9Kgb+l/fuLPCb2j4e2keNbdA2nAPxtfqvSXj5T9bTXq4NcLbdaLai8hC8qxepmnnxsrfPPASzz9O/4v5cC8gEszFEkD3snQPv3zjAjIW72n0zIFI4A+NT4QYrpaFAn1c7R/1EJOSvIckuyLG2nc0H7HIxpj69gtGZnTDFMhse9ubjSgWNvYkrkj5gGeQhb375kgymGtn+DYf/AN73B08TXbQypmxGasn9St2EoRibt3zeycbN/lZKt6QD41vzBCmqfqc7GDm4r0cHMCrbk0ipNJ+RNP2uEIMg9sT3uTyBzR7RN5oW4jfUvR2rwtgZTIvtiJuSHiJN4EF+ch+2H23rP8PwnrM4fHclxNrdRxtPVEjhRkzwDooABBGj/A3AU/yGG9o8HyC04BVB8k4d+JaYDvm9uvGboKXRlYqoA1oP7MwSKOfeaufqHaI9ngCK/TZXWD9H/9VOt2nuQnpnzN+l9A37yh+2lEMnx9bYGdadNE4BT5XtGQJv6xkU27d9bS8Xa/rWMpQPgrf1Dv9rceBEg+HnzhBS6MnFUQMlyP9SuqZTZaIeL8ZRa2G8KwZLoQB9A5/2dovXoC/gLfs4/hVUex8ARva9o3fO9EAF7+Z7K8wogQPsvANbAU03nH2v7T8uYwm5WA+vPTxEh0DZTLVzTJZ/DHLMZUuarAAL4ERe6FHGQdGycdLiTkIZBXxRywJFrJrbqswu5pO/cidXy66CS/PSVaf7iqfykQDr/9YX+u3/ZfO8PAdp/8Rzjbv+Y/jGJ3fgqBQIrm9RqzMEejojp6cYzLYU6BVEHk5fASzlmcxHM8V/tRUbftYgL+BlGAk7t+zzs395hf2zcdOSw5/p4grGvIIb9+6uM8v7T/zPf+0OA9l84x1Kxf2TD5BRA4c0f7SsQHHgp5vX2RRKeFdHWNBramaREXjR57wOkRhYZ70XGgGsdubG2WZ8+4FiOD2Es9TOqBPzkk6k9HYAcRuDxMO2/cIAlZP+cAii8+aN/xdIGNd+tkK3SWm6AtwpfgK9cBCoqvY0AwIv+ei7ZxR5HZ3d9bYs+Puf1JR7wl63eWD7JEYBsYDweo/3nDzCMJ/8+7azYv2YMQB/fkvu77Hy1Eo7ANzE8/SUY7oKSq6BPFWqbplYVK2p8kx6JoL/di70+13UmkBDtdlsuJ6C2Wu4qgzn/AXjgaHkaqRkgjB82EKD9b0Ax7Jswnvz7lLJk/4wB6ANcqn/bG9RzHV3yWdRvGsYCeBPdqKHrmnT1Rofy/lhdmdkQKe/zCz0RCYRuRq6Hj+b3e5/84RwcVagsL+eH+eTTpzdWWDBnSR8MH//S/oeHWar2j6Fhl0GAw7d//M9oUm5bvboCCWi2QqPfE/8K+VeD1GgZWaw0NyFji702n+swEpBE4qB7+5yAcnzy7+OURu7yvvf86x8B2v/wLMN88u/Tzob94/6ymg5AH+Ey+GvStHbUq6MRJPh5VNdq4pa44HS7ZVSxuqZSwSRgyjgBLfoPQT/5Gy7Yd+IY20l+8uGfSBffTvnIL9dzaP9Dt3xJ2z+m1egADN3+Jflt+wz1CkYETAbBT6OC12FqwOy5XpavpFt8x5KskPeCgobOf8+gyjLl9A17Yt+Ju4MsN1dZcFpH5/qOx4snQPvPzq4c7B+jwWvoAGRv/7I42tGolsAROHNdUmrdtLSUY4wAhvGLHgHo3fjmnVIzFnPzCyzDWZ7w4ABskuepPK0AArT/wbDKxf7R+dMBGNz85Xfk3enqPey41ihd8kkz5KVd+W25UEB07f/zUlcstSy5rZmjMOe5cZtAp803PsbP3gnQ/gczLBv717KKIwCD279sj7Q1qU4z5NveqA6VdfJxOAJnwCF4Eh5xKecSMNMgRb/SIj8xTwxFC4jQhaYeQWf4y7f6sMMp+Z7L8woiQPvvxVVu9o/cAh/SASjot1I+J8MZWAVH4JdwCPar3ATOgJav4mn3UvxInislCo4rk73UZ3mD6sBT1PVeZETl2ig++WxgQwdgAwo/39D+P6JZbvaPe/q7XFv7UfvzXQ4Ci89VJn/Aw73/xKwd1iNkN5WWvZGQZldsQbsj/m6W4/JoH07KZ7wqqLrlfLdKdrCRFMirbnlfb/Yzt7ylb966bHTiJ+fpzdBRFR2rsZE4fuxPgPa/nkYZ2j/iat6kA9D/x8D3eREwUwU48anef5lrJlymxyZ6ZAcsWdsBBz4D73IbRK5vh/djMidE9H9wYiZ5Vc3wmHyVPqhnjTypErKzV3lBX2/iPqIS7Z+t7lVpDP/DsPjynwDtf/1S13K0fwT6LqID4P9vqiwlmtTDqPgAp6APxNgmPbpiE6nGWu7qalequ7VUJ5MyElMKlQmNsYM8X2klJ2LnuzPyPD2/0xypMU+YJhAyvwuyn2VGSeAE7Nu9Tp5EhWLjBES98ze0MTRrhSec1BMwfbM8e4tG7yjt3/82KWf7T7uykA6A/zZFiRsRMFsV45D55+mFjHgm856/DgAEVrmyF/7c40k5XNznBMRhJMAEPJmlfnjyuc9rva1frzDVhOhEX1+udLd3IRkWsmT6KteiMNq/f3Bp/9L5dqNalvfTl3/oKYkEiiOgK+XV4q4c5iqdcQCGOSm/r40T0NMtU3VaXsrviuDP6rv5tdfHoPMHHjclX/KdkoItxajzN/Wn/ftjBbR/cHRkoaFJB8Afm6KUAAh0TFNL8ONd63dR2Ghmqp8ylzeptVF1AszND7/64+LS+U+Yrbd3bOy5YByAmL1o/94bjPbfyzAti8w7OgDebYoSAiSA+WD/n6wd2d4EMfpZDeMErO2WfTDP/Kyfcr3KMkudsB+E5+kOr3rke71K2kmBjI7g5Xx1iNJ5tH9vrUH7X8/PTcrfzDs6AN7siVcHTAATtn+1UaSTkq/6Lff9JrUG6yW+gs4m9NwJ5skH0+hfj+pSv1zsESR6eK7vvBzHPqixGwEw9aX9F9fqtP+B3DBF+YI5QgdgIBd+ijgBRG3buXG7crKNqpslgk6X7BumE2BufibgLy7D/n3tMP5SPQ5R2vv1ffbrL3i4y9bJK37JC1IO7b9w2rT/gcwMj83GZlZs0QEYiIafok4AT7FPW9FRyz5mOaAN2WE6AebHjl95bOb8+/NPpORkJFfy/SEFNvQiAgBjmb6Z9t/fQoZ/T/sfzAj5WV54+UzVY77x/cc1uDgeIQH/CJgdDLEkLBPA4p9U/BDQ0YzokVP9lNlfVp8TgOxbT/c/bvN935NPnOb8+/PA8P8p/T/79R7zwCarZSxftP/8m432n50VFr7+b983dAD6SPBvbAjgKcjKboWustPh9IE1TsC4/5L9g3AC4vzkY3hNmqOn4PFk+z52fv7FdIgV+/FTx6Fk0f6HorP+O9r/EIzU+uF/cwYdgCE48auIEtB2nuAwCrBNXbPe22atzdCbbScg7k8+hj92WfyejXYAm3faZig7cSQ2FM4mk/afjcqGY7T/DSgGv3Gls61L5vd9QQegjwT/xoYAMrg9jR/5GhsKY4vMehty+8vscwIwlfFY/+N+vDc3P7j1sZzz76u/WZKJeUrfMz4a+XDyHuwrJ65/af+5W472n5uN+Qb3tz8i/gWLSda/6AD0keDf+BAwBuzIIzYUxp4zB9bM0dvYkN1fpnEC2jrlED+dgFJ48jGMkt1wwhyp7M/Lr/fIyxB7ByBzA6f9DzIJ2v8gJIMPuPKb/gfpAPSnwfexIYDsfffaUhY/iotsyR4gF5HoWJd/gHZ9mpNWckLclvoN4IEPdZfrMVj6d/bGx335rGU18jI86YuskIXQ/rM0AO0/C5SBh9JVcnv/I3QA+tPg+/gQ6Mx4sqtsKIxgwKPGt+gaG7KzycSQ7te8jASYJx8Ehn09yluaZqt3tmPpLjkbw/Sjsn3n9RgcrdtMIKZXOZG4nva/oRlo/xtQDPkGo1/39O7auuE8OgAbUPBNnAiYGzmyWd1hQ2ezJDCp5Mc2ZGeVaUYCOuUgbI98adbvhzroynuSlIPi/uRvqmjm/rH0z14MRlJ+MRTKOH1H++9tLdp/IWZ708Yn0wHYmAg/x4YAsqJdZ0tZ/DCOqm3WX7Ylf5BcxDUsbVDTsUf3ARgNyC/PgSs3S0J26JiunhgkL4YHEj1wgBwZbUV1V15rn6Fimf0vFw/aP+0/l20MOg5Hqb1BDcp/QQdgECkeiAuBtllYzoUbuy19EYl+jS3ZueQubVSPIS5gKzgBx2EufPB8tSurMfJxTSolO7Q1qlOxpO2dXLLidLyuVe+KAMzTbOmMKZLrbckOSy7tn/afr+2lldyS7dxktoM8RgJxIWBu7Og4fmJFXyVTapp1PbKvtVqRP4TQ3k177jSn1M3RW+NJfwxydy57u1EtG+KyOH9l1dlS1XJrnOHk0p32n4tM7I7btX9XbsxGBPdOvvwmgBv2Xbhhf8NXuWm5u22mOsZXmSUgrK5Jj5Eq+SeGjqttVcdNy7YdM9UCW/LLXW5ti/4+RlsuscUBIym3IkDyJFvyw5RL+w+Tvj9lW7d/V36Hh5hDsmnLKYBsVHgsNgQQDLUKqXWvtqkwggLvx43WmoNhU/eoy8bNb3dEJ19sS09EiLuOK7NtyQ9bLu0/7BbwVr5t+zfaYevrnL8vOgDe2o9XR4AAcrvPQyxAtzVVMBWQrpafWpNfpoInX6VHI5DtfrPqwhYCjCzch5GzhbbkR0Eu7T8KrVC4DkHYv9l3ZFm9ejGXdtZ+eLkK5HES8JuACYTDU+QNfsvtLy+B1LQIVDui/zG+90agZ53cha7fyhbMfZohZ+QP+t6X6l/afzxbNgj7RzDxj4aiQwdgKDr8LjYEVFJ+ZBKC2FQY8n81Yba2skOdTb2jKLtmrv4hApAOtKqbKw+W+tN/Hz/afx+JePwNxP5FXkB+kKeGIkIHYCg6/C42BHqXw91kU2GToS6ZlEc/OU9bfWq1WYcoyK5t1UcilW3OeUnfdEwElNLZN4WLF0T7L55d0FcGZv/u8L8xOgBBtz7Ls0YgZTGSvJ/Sm49w5dHxTXpkv2N8mycBE/SEJ39r+zhsUMM8/cd9298NlcnvDe0/P05hnhWU/WNK9FnkCRl2wzQ6AGFaA8v2lcDyBtWBPP4X+So0u7AdK6vlfmnC5pp85U3A7K+AfPwP5X1BkSdiqmZt2pGzirw8tpfR/qPddAHafwpLl/Oyf97Aom0z1K5AAh0zlIkFWFzgZYWfrmT/uhHBZwosXNFoXGGmTbC/7+NOQsba1shMLyytV8ttlxNF+bT/KLaKSJD2L8hgunSWej0fEnQA8qHEc2JFAEb9rYAU/vbEFn0vRgKYUXMI4MimOGlESv6MG9OUIU7z5Ss4fwvauovYVMmX0qMhhPYfjXbo0yJQ+xdZsa5TZvaVPdxfOgDDEeL3sSOAua+nsfzlliAUx/LAI2tHyuOMCchOO7NqQqPzd8T69sro/F2VkJMEGytl16Y8jtL+o9POQdp/ptZKLni/Sa3JlwAdgHxJ8bxYEUhVyjQovCoIpZHMZu9ktfzBbGcbRHlxKaNmnt4PKyeeD2LY3zBBO1xbajv+FdvWtP9iyfl3XdD2D6/3JUwBFfTgQwfAv/ampAgRWHa+WomNUs4ISiVHyU7JLvmL2dUuqDKjXE5di25ACt7H4QAEsloCbf1WT7dcGGUmQepG+w+S9uCygrZ/o4GbKvx+RwdgcNvxSIkQQBKM+8zWuYFVB8PcGIb+A+ICzg+szIgVVHe5HoOb36OY728OTDWkgU6n5MjlTWptYGXGoCDaf/CNFIr9o5pYXfPdZbNUwVuj0wEI3kZYYoAEVLecj93gFgRVJJ54k4gL+DGSffw+s1NbUAVHoJwJrXoXt1P+js5//yDVwdP/BcXc/ILUMayyaP/BkQ/L/vF7e6C9URW1VwkdgODsgyWFQAC7pXXCATgcT+aBPh1m0txWyRtI+XlyCNUOtEjz1FM7R1+NIf/n4QBtHmTh6PwfKfbmF6SeYZVF+7dPPkz7R+3aP1wrJxZbSzoAxZLjdbEhsKxRLYahnxO4wtjoBmvSb8YyoD+W5B4CSIRU26xPl055A9H3Z6HzD/R+gmHPtytGyDGBt2vMCqT9W2qwkO3f7ICaSslhhUT9b0wi0B/sxoXzMwkERQBLo27CKMAvgiqvfznoGHfHHgJ/rWvWV45t0qP7fxfX98ahqamSP2Ar2hts7+iXlZELtyMhhy0+V63O+j0PDiBA+x+Aw/OH0O0fNfBj6gsjlXz5TaBujr4LN6dv+Co3LXdjZzM+7XiE2hugFugcdX+VkaJzJfaovwZPzD/t3cCl/9eRf1/TovfEjWeayX8QprK4cR3+j3r1YJg6xLFs2r+3VouK/ePp/2Y4dad6q40IM5h5JcjrY0UgOVKO7v4wM1e9TRiK966JnyVpmY4RgTsQnzC3Y6YKLEixqDpjqLNmhByJ4cILcH0UljlOY+dfVEsK7b8IblGzfy2PtXXJ6UXUZNAlHAEYhMT7AY4AeGdoU8LEVj0+IfIyygg0YC1XndKuvJBw5I7uhNy+/EK1Itd5QR+vm613TCfkBIxYHI/Of3zQ5eco77q2enVmju94OA8CtP88IOGUKNo/pjGfc7pkXxPcmV8thj6LDsDQfIr6lg5AUdgCvcjM4WFu3kStB5KoJt/Kmah2ZLS7GZncHjPJXPK9zq/zDJcE5tahwwmY29/aL7m+yDFb/Daqw32RVeZCaP/ZDSDi9v/a6i750som/+Je6ABktwNPR+kAeMIX2MUTm/X+ePJ+NLACCy3IldewvfEzmO+b31Uh89+drt4rVMRw50+crbfDROBeiCjaFxn09w4qbe9weg36Xsv87k45iMl+BpEp+gDtXyQu9o8Hg7c6EUzs9z2ADkDRP5/cF9IByM0mat8ga99eeNp9GCMBo6KmWxZ93kFHvSgt8iZ0flMrWYih+ffTaVmTdGT1uqSsHfGhrDbDg5Ov0qNTnTLSScnodFJGYehwFCL26/D505C7NYJUp+DY5DjU24yKIKvdQVl48JBHArT/GPzuXelAM0/F6Febx+YedDkdgEFIvB+gA+CdYZASaufqnVRansKQd0ks0QuSnfWykOWsbS1WHJT5Dn82OdP+bdL1JttkMe1KyD5+P/n3aYUHCL5IoLwJmB3kUq58CYllIhOAV94tsr72uPndys7fviXQ/u0zLqoETHut65Qv2ur8jU50AIpqGV5UagRMLvmElj2wpebyUqtbHOtjNnHqaFAn8ck/mNaj/QfDOd9SMO11R1uDmuoly18+ZdEByIcSzykLAktmqkVdjnwOT56vlEWFI1hJxCWkoNa09pnq7AiqV9Iq0f6j0bxay2WIeTk+CG3oAARBmWXEhoAZbnM6ZQ/jgcdG6VJR1JXVWJFwENb5X1EqVYpbPWj/4bYYHOAz2xuUSbgVyIsOQCCYWUicCJgoeuOBp7XMwg8SswJ82SYAzovdavlcx3T1hO2yKH9oArT/oflY+vYdDH19saNRXWdJflaxdACyYuFBEhBZ2qDmYKndkeicAt1KuOzYI9ipchP5fMc0taTs6h7hCtP+g2kc3F+eQxbQzy6rVy8GU+JHpdAB+IgF35HAIAK4CT6AH8m2+OKFQV/ygCcCxrHCKMsFbZ2yD3f184TS2sW0f2toM4Jh/5d2ILtfWCnAuRmQ3fal9BIg0JuAY7faZv1N5MX/sSjmC/DarAi0fDKl5PTlDarDqyxeb5cA7d8K31WIMzoDDtZ9VqTnKZQjAHmC4mkk0N6ofoGFs1shX8BvSaM4AibXAtIbn4Ilfvux8y+OYVhX0f79IW/yW6zDfQRxRqF2/qY2dAD8aVNKKRMCbTPUO7gRHoof8THozN4uk2r7Uk088dzYUyGf6ZihbvFFIIUEToD27wG5SeOtZarJb2EzuU8hGtIBKIQWzyWBXgL4Ed+tumQycvM3Yp3AaoLJTQDrmp9107ItnnhOD2uuM7d2/KYYArT//Kkh1mWNpKUesS7bYsh/fv5X2j+TewFYYMy9ACxAjbDIT87Tm41w5RKo+O0Iqxm8atjEBCMlF3TMVPcEXzhLDIoA7X8I0q7cnHZk5tJ6FckMoxwBGKLt+BUJ5EPADOchec2Z6ZR8Ft7+7/K5pqTPceU97Fh4DoLHatn5l3RLZypH+x/YxuaJH47vFfgNbIHfwKlR7fyN1lwFMLDt+IkEiiawdJZ6HRcfMmmOnpJy5CxHyan4PKZogXG7EOv5ofI1m46Ve18+U/XETX3q641Auds/Ov538Ju/ck2XXL2yScViWpBTAN5sPuvVnALIiqXsDtY16Wq3Sk7GMNs5CLfdvhQBZOY3ldyIOIif42l/QSnWkXUqjkA52H8vmRfwO7gx6Cx+xbXKwKvoAAzk4csnOgC+YCwpIRNb9c4JV05CJPzxypFxca8chjifVFpu7+mSO5c3KWZKjHuDWta/1OwfDm8HAoBvckfIzXHOYEkHwILh0wGwALVURDZpp65K9sda+BNwAznCcWRUXKqGTv8VODC3JRy53SwHi4ve1DNCBOJs/2lZ6STkHqxquRkb9jwXIapFq8IYgKLR8UISKIJAk3LbRB7BlY9khkir5Si8PwDOwO5wBiYVIdHaJb3D+3/C9MV8LOO7fVmjWmytMAouDwIxsv/eBnkVtv8I5vYfxRTX06XWSBwBsNCiHAGwALUMRJrlVNWu7Ikn7d0wvL47Ygd2RudbGWDV2/GE/xy2P3w2oeS5trXymuCGHWD5LKqMCUTA/jGyLyvQKT6Op/zfdSXksagk7LFlFhwBsEWWckmgQAK9NxuTHnR9itAmndyiUiYlHdkSexBsqdMyRTsyBXsRbIU71XiMGMBHKPCFpEWYfliMJ5pFSE6yyHXkTXxetHadLIxL5HKBNebpMSEQiP0bFlimio5+MX5HSxxXlrhJeQtu7mLE5ixBlsqymtqiAxCTHwfVLEMCTSqFXMOLUHPzb9DrE016lLOJjEykpRojB9W4kY3EVEI10o1WYhvjTpWStWqkrHV6sJ1xhXS2TVOrBgnhARKIKgGP9i8p6azE7wBP8mt1Qjp71kjn+01qTVSrG4ZedADCoM4yScAHAr03M97QfGBJEfEjQPv33maFDyF6L5MSSIAESIAESIAEQiZAByDkBmDxJEACJEACJBAGAToAYVBnmSRAAiRAAiQQMgE6ACE3AIsnARIgARIggTAI0AEIgzrLJAESIAESIIGQCdABCLkBWDwJkAAJkAAJhEGADkAY1FkmCZAACZAACYRMgA5AyA3A4kmABEiABEggDAJ0AMKgzjJJgARIgARIIGQCdABCbgAWTwIkQAIkQAJhEKADEAZ1lkkCJEACJEACIROgAxByA7B4EiABEiABEgiDAB2AMKizTBIgARIgARIImQAdgJAbgMWTAAmQAAmQQBgE6ACEQZ1lkgAJkAAJkEDIBOgAhNwALJ4ESIAESIAEwiBAByAM6iyTBEiABEiABEImQAcg5AZg8SRAAiRAAiQQBgE6AGFQZ5kkQAIkQAIkEDKBZMjls3gSIIEiCYxv0iNllIxUaamWtIysSMpI0VLtakm6aVmtk7JSr5OVy5vU2iKL4GUkEFkCFz6qN9GVMiKxTqoTGr+DChmp0zLCFUmIkg+0K/92E/LBpQeoDyNbiZAVowNgoQFcR7p9H1pRuMnzVXYEapr1JNjSFHTqU8SRyXi/FW5uWwFEbQZGuhdJAn/1+veOEnH6ftkjROpa8YUr7+G6Vfi3Mq1lOU5fjPP/4SbxNylLOqapJb2S+IcEIkNg+pP6044rk9GZb5VwZQoseUsoZ34LdRklu/F/GLMxfW3+hx8IzD/zUjhu7sMNj+ILLe/j3wf48l/akX/i97AY5/0DP5PFXRXyj3n7qrd6LyurP323ibKqtO3Kwty6/C5DJ2S03zIpL1oE6pr0GF0te+BGtRtuanvgyX5X3MEyjp+5kXl6ObIZrjf/JLHhDokbJB6XBDdR4yS4rhgnYKGj5RmUP7+tXr1gzueLBIIgMO0RPbZSyR6w9V1wD/0SypwqqfUlG5NFx138S8kn0Pl/wghQxlHo/Q0Y8Qn8L+MkuNKG39sC/P7m45z5zQep5835pfzquxWUch0Drxtuptei0G/7WTDu0y911Ksv+CmTssInUNuqj8SP8AA8keyFm8/W4Wv0kQZwCNbiRvk87pf/i6PPLm1Q8z/6lu9IwDuBht/r42Bj+6PT3R32P8W7RB8laFkD2/+TUvJUWsmz8/ZXz/goPRKi6ABYaIaaFn0VhmG/66toLYvaGpQZ+uUrzgSatFNXJXvBoTsBN70jnYSMjU11XMQVaLkNN8WfdsxUC2KjNxWNDgHYf8Nusjds/yQo9TV0/v8VHeWG0UTLv+Gk3IHpiJ+2Hqj+NszZsfiaDoCFZqqbq5th4A1+ikaHsRwjAFv4KZOygiNQM0dvgyHM0/A0cSxGMicEV7KdktKuvIA51muctXJ3W5PqtFMKpZYKgZmP6R1hM6egwzkGnf7/i3u9UI8XtZJrqivkzqZ94mv/dAAsWGLtHH0hbo7zfBWNp6+2RhUfb9nXysdXWG2LPh5Pzec4DoY4S/CFaYI1qNvtWIVwedtMtbAEq8gqeSDQ8Jg+FfPpZ+E3sDM6fi+z+B60sHgppgnwsHe7cuTy5gPiZ/90ACzYRl2zPhWmfqPvotfJCD5t+U7Vd4HjW3RN0pWzMA10OuwgE3jneyFRFOjKg1DrcjiqT0dRPeoUDIFM5H6PfBv2/010/GNKsuPfGCViaFHPRxArMDdOsQJ0ADZuSB8+f6pVH4Z50gd8EDVABNZ2b8u51wFIIvWh5nI9SXfJPETZHxkpxQJWBmuxX8J0x7yOBnV3wEWzuBAJND6sp2C10jx0hIeFqEboRfdOD1zasr/6dejKDKMAHYBhABXz9YRWvQvWV/6pmGuHugZOxdfb69V9Q53D74InMOEyPTbRLbMwv39+8KVHt8TeZYWtHY3quuhqSc28ErjgKT2uolNmY7TL15VPXvWKwPWLMf0xt/lAdX0EdMmqAh2ArFi8HUQQ4OaYF/qnNylZrtbSiJUALVm+4aEQCHz+Wl3xr1VyDkZmfhCraP6AWcERWIA4gTOYVyBg8JaLa/qbruxcKtNQTCOe+hmflIu3lr/BEfhWFPMK0AHI1WgejyMOYB084kwSF4+iNlyOEYAbMQJw+oYDfBMaAQR6Hown/mvQxjWhKRGzgpGB8Aakbp2x7Hy1MmaqU92NCNQ/qg9F5/FTHKb9b8Qm10fcv2/o1jLj8gOjY/+lF5WZi37wx9v8LtKkw/RbJuUVRmD8pXocEj3dgVUeD7PzL4wdYiPOcDrlTTjH3xGsBy/sap4dBQL1j+v/anhE34jO3wR8ru/8TQCcefHvkBzA7IwqkSXgFxn7548wY7n+/w+WsMRvqTCgaGXK8ruCEZdnVndUpuVNqHlsxFWNrHqZqRJHrqmtlD9NmqNpz5FtqcGKIV3ul5Ge+u8Y7j91w7fro9/X9yNmmd/Gn82JPL6ez3oH6WP/v71rAZOjqNanZya7mxAhFxAEks1eHgFBuCjIQwQSHkkAEUVAXgIigqgXDJLsbgKyIEl2E55RQXnIQ/RyAZF3HhASQEVEFLjCVV5ulhDeXB4h2Wx2pu5/erZma3q7Z7qnu3p6dqrzZbu66tSpU6dq6pyqOnUK/Li6fW96nI0mC3ysUsAoAJoYDycRkXtKw1nTTc2gqanBSqDlY33j54llGN5uANiYEqAmyScHsIKye79Ff7OPzPrMY8Cqw4GOZaKpfaH4KYT7gxBeWxTN9OXZfjn7l8KeSZVxqlKgxjFMPcFzXQf4xX4RcGLiGfaTwGyo1mMUAE2ch7D+Hx2o16fpIB14DU53DkBATc3kjXgmukOY2Eo5AMPAUaxUtcwR/42LkCK1l6mUJpOvmAOti8ROvb30DCY0Z0rhVRDaA8KsaNavCnsp3CWcilqmcZwMSzj57ZY2HPBLPvANr4JuwH0It/DVxjI6zrdRADRxO7WentWBGvuok3XgNTiHcqClU7RhK+d+CKrRQ1NNTGQcSNMxYiT9fexssUtkOA2i0ByAYPoqth3/AiVtQkFIM1ZVCJcKM6wqzEvBSuHPMM58Kg417MRXaT61bDXsxOcsT4VVw858apoM81vWNUUn4Nj40+wumbPG+RgFQBO3u2dZT2tBnaVJWvAapEUcgPC/CYPXXAh/8xsp4oyeDwiabTIZemb8XPF9PSUYrEE4gJn/5ej57HOkwc6nCj8pxNQ4P+FK83nhrhRfmHxMCz+MI0jYWQcnDkFb5wT9DQaCsfZ//O7Mo4sDsBb/G3BHrtXh+uo9V7Zaf9ZFdz3j3Xy+2KxpPd3Pe9T1zIdq1h0D4RXwIsjny80TMwc6FovN1hHdiyNrewwpWgox+WaAIGEv2KB4VHgvnOXiy6WrZYQNc35+vMrMpxbSYR9wBW4bjKX/m9mNZL6Od44e1YEWTiWMHYAGxo6dK7Yd2U9PGuGvgbkBUMKH/A/gZ+GqAFkMaAQcsPf7Bf3dFv4srPhR33LmHHT2K+Flfqcg5HIkjN8ww/HjhbNcfNDySsEzHc46qeUHTId/kR9g++UXnE33YxQAjRzGTOYxHeihAJygA28944Qh2g5posexsNdcz3xISt2hhJ3JxoHGX0A8LcL7z1gO/gNK28QuUQo8KcjkNyeWEnYSXjdMWHq4HiqOMGE/dS2Hn9P5YVz8wK0yjl3eprv/my0Am9t6/rCP+Mx6elcH9v5++o+VsywthoY66E0yThzx+xyUqqWg0RzxS1pDWXR39xo6ijos7HyZRwcHcMRvb1j5L4FAzBu7ugk0NU4SocbFGeby1fKc32pa0HAluPzkCUqHhBd0T1Mjfa1jkp7+bxQAbjyNT3OneA5LmjtGXQTcql7yaps1PWq89YZvfKf4AvbcFteIpf8bGPheyBK9CIXlRQza/8C04e1sllZnUvTh2gytGfkxfchXRm+7QGzY30ujUv20YTZDo+GPfzSOprbAkcsE5N0Oy7xbI/+O9lG8hDc66FxuraFDzFXY0TcUPPtNQZ+4C8Kfj6TxlbaDM1EZ5mJlmvOtpukO8/0qFr2AvsuX7LzIvwUIsDewWrQW//9vRD+tXU308SVTrI/ZY2E6S6NwM+UnrBE0CquxG4O8LQC/A/Jvj5puje+dgS/jWmdZTz918gNbCk+ptDzux5oaaCqUgF4GjfIxCkCU3HTBBWvyLnSwGS5JoaKwTrSqp9XaKhSSOs/cPF8cRP10d2KFYI6ehXLyB0rTQ9kRtFyHD/3mOWJHOCSZiMFy/1yaDsDov2kSuwXcYN+3ot06PIm01SpNA/787ykId66ImzBT49TKqvFRhxkf0f9C0C+HwF66zqJHdPjQZ7sHCMFJGKP3Q90nosxNyioEzAO1vs5vNU2G5dsPrAozmO+BzinWYZwU5WMUgCi56YILjmQmQqde5pIUOiqXooN7plsPhUZUhwh42R+zg8eSJvwx2C2C0P81fObfhxnv+3E3zbjZ4jNw1/sVDAzfwEBYdVelav0xi7sFpwO+ocaZcGUcsJf9U/THQu5BQTNUuDGQTHe+1bQowoIewnh58zpBC3UIfCax1MMKAdK/BsXjBNCR7/+yzpzRK1wurVR6KZxqvhz9uvMQ60SOiuoxCkBUnCyBp3mu+AiCJnpnMoJuxvXAJ5co2iS5cGCrLjF2BNGTSPqUS3LsUVie/yNm3r/qG0F3rDrXeid2AjwKHNcldk8JOg5L8MeCvi09wGKNNkcEw7N7+lKxTXo9PQUFbyNPgSaFknxzsWrY+e03TYUbCEMI/RlK76+aLLqtY4r1VvgaRoOBDSOzOToZ9H0dvMq7QJbbIi71sEt1i3eLK8U/CS/fCqyVo5/hWuHIfAUYBSCavlISC98eB4DIL5CB4OjHbG1c9wzrjZIEmMQCB+y98Y/pCWj3OxQiqxCw207QnVjnvLBnphX5vRGRVgk397U00TEYBFuBN3K/FoFpFdQOxbczcD6TgXhvHOZkT6P/txQJdBdhY7NLxss3R5YLl0sfxPFbCP4Lceb9ObusBP/BsbzjcH/lDKwM7ILfAfRhPH7qqcL5gVdh1Lwclo+gts6pVpf8DPM2CkAY7vnMO75LHAlG/9YneCAwLGNfvWKm9d1AmeoVOC/IluEHvF/VWJCjXgwfN+Ne8Nmr2qyeqtFRYcF8NwL4115VHoJ22AR8CzYBv6ywGnWZDZf6ZHrXwTeJRXsXMUAVOl5hzuA3TSJX4WV+AasbohvTDTRn9oHWCglaK2/baDKH/k+0v02zWke3sBonK6nGBQmrsBZ9s3OydaNEWenbKACVci5gPm3bAKADVuFbvdpqrQpIUt2Bj+sU1/Gd9NWqOGY7d+AGvGmvtVorq0VDVOWyAWUqSz+DMKmanQC2A/aFTcDvo6rTcMdjnysnOrogyFWBooaZEep3ubBbuksctpLuFP109rxDa7//n7dIHNQv0P/ZTsClrkV9SabLt0xUv/2EHe0CJXjfrkPC9f/8UoYkyLy1cQBHsO7VhRzLUm26cA8XvPAxf1q1hD8E1fMQ/vusaLOOHg7Cn/sEG5929xIbTE3DAPhhNfoJjtfezr42qlF2rZUJo79zQPOg8OcK8FI2Cx5n2I8wUmHclsRV3GzNn6MvdE22vjYchD+z6+Kp1kNNzbQz6vVDfH7EcUMUAWecyhOVf37DjE/BAY+Bt01bFK7/GwWAmRrDg45ys65iYKh1Rss8kQiDNl11DIOXvfxhqesnYXBUkhca+jsYXs/s6aWdIfwHLa4rQZbEPHDO091qXdGXoW1g03Ad/ueFSXy0fgrGbLfFV1xtlsTGbDhdMtemXhEgQwQWp/GjwvgJswBz5svHfYQyzoQjm11huPa4DTOM/nTsZPWhXpfBeHECOHBNoWqqQFf55xUv+a6m+wnDMLGBwvV/swVQaDX9geYu8Sp+YWM1lXQNBuMzNOGuWbR8z3yukZ7CKYzInTGVYgoG3KW9KTr+zenJsWouRW8UabB1mYR634Y+Hq8vgSy1ds+05kVRh+GGg++Zz+To7xDqzQXBLgUOV9ZN0LjFecFKhg3N8xiO8h1ZjaN8kqS439OXiP3TObodfP5kga8qX1QeqvGVhmW+EEaBeY0vbk7VaXlYBbhJV9Ux+zqNz7brwl+reLNN9NM4hT/PgnMWXbBiLU2uJ+HP/WNFq7VsXQrbAkLPJVhefRD8nj22Swy9vc4rQx3FZwT9BvP6Flv4c729ZqRSmDhhpLKgpjvDah6kQQm8EE5rJtaT8GcWzJ9sPYLVgM8g+EiBzyr/JJ/km/lYabg43xycUvi8jSvgH7MCEJBhYcBhCLg1hNHLYXCUyotf3l9hFLVbKZh6SoMXxmPxQ+QjmPE8OXora9HRcNH8aDwFJrcUbLtcCA+GP4qLQoykK1MNtHP3tPidJ8VVx6DltC8S34Yw/nmRMFKFt0SoxrmF3eI4rzOe6N1sio5mQShR1+u7fbH4MXh/nl1/J5+kEqYqB5WEVbwwy8ExxV26DrY+CMJzswIQhFshYXvarVfQKRaFROOZHUZRn4Nr17M8AeooYfP5YjMoRNfGVWWU9Tx88e9shH+e41iSvwDzm0PwvzeONsBANpb6KJKz0XHQq7uMGQ+IsRhrFhQJfy5UCh8OswDhp5zwUfN4hWHox7NfI/xtjtLcKdb5EMhTweG+Ip5L/pXjuSrcvcISV77IZvh3CLwNZhSAPPPi+5uj+ToLgxLwYxZ+OsuoBdwj19NPtHhfdKk8lv3/uLaX9qy3JX8XVhRFdbdbi3DPwD4QNLGcEuBtsLGzxS5FRNTpB8aB61F12IjhUQWFKky84lUYDjtxqPny4cdxvHXPJHnxs2mu8h/MxheDhC+i/39QVsly8pz5yk+peE4vbovTBlwZc4qvxygAvtgUHRCclzzMS/XRYXRgStGGI4VikepIrodP21lNGp7rYnj4bD9WdvZ5u8PCRWTmcXJgxQzrrxAhe+JExGvOtKi/ofClUhlb8EWNuqbwtS0RR0N8THYIh/xYrwoMVbio8cHCDzSNo4l8A19NMSkmYuG7/0nctrgHBPnrJYU585wftU3KhTmdH5kXbxwJD2RnZhQAm4Ox/9G7VCnoCNgbnB57rRJQIFv9g4xfxETKNXy2P6ayarYYbAf8A9e17o4ZunaXxxjQdofPh1NrllkhCWerf4iFK21BwrhUYS4FhixDCg4Zr8L6CQu6jm+o4+NwEqV5D+XA3MOsF7A9siva5CU7tZxgZyA/MM724zwp2g0K4Cl2OT7+GAXAB5OiBsG58DswGOY7Q9TIB/ChYa/kq141oU8sWlj9/xg/gmbdBPLM3xy79M9lvq8C91YciCnLKv+5KoPE3msX3/lQWe7azjUiBzsIvrjGKcC5WjLOKThkvApTJsxe/TC7NceOmU8+Ht4ewbbMRAj21wvtwPnUtgga5vyqosDf/ORoHt/5kP8o/dcoAKX5oye1w8qhM5yvB/kA1hQ1YUn0d1t2iFFay0kQcnb4A29/5+omCcZVS83MPziX7UursnQwBi2tNgEY1DbtW0MXB6ewtnPYDn9S9D1bKHBVVMHOgsIZp6YHCEP5Xcpe/Wx85o9vDsyZar2OsYP7f7FNQJh2cVMa4Icg1U+z/RBmFAA/XNIAg9vMbtW+JAoPVQ2NdJUG8pOJMk0XaCcsR89aa+lL2ssZpgXwzYcwGDsY4kjv6QBB39uyU2hfCUpSM+FOkPykwk2YuwkKdfboNwxr/5GNpv9X2u72zYfC7v99hdm7l3LGhfhtF7V9OZtFZ85aKsaXo9MoAOU4pDEd9wPoXQVg2lN0cvM8cZLGaiQC9VZzxAQQcqxOYnJZeg9n26d0d1h6hZfOSiQA98pW68+YnX5TJylsEAgnOPp/XzorEQA3zp3vAAOwI11n/6pwqDScp+Vd7GUf0DHJ9P8ATTMElA0DMY6cWFj+5zZxUwIqEf6yfVFqf3/5/m8UgCHNE18EPKfdiYZ/VHuJWbp+3FwxWXs5VSwgrVmZwmpNDnvLX7WXsatYz+FSNK+AoS6D/tP1VOyUerkjA0vLF9ks1CFMWBDlhdGx5qhfNB0VV/neDq7m+7+XoHe2JRftBesSD8+z35i5SGxRimKjAJTiThxpOToDwqVfZ1GYDWXSRHeP7xRf0FlOtXBv1SXG4odxvM7ycfPWBcbJT8QcXktn69wG434P/DMjpjpx6KYvFdug/+f35F0EgU2wU5gwHD9+4gEGBYPd+z5s5zF/IuFAUxOdDcY+V1gJcLYdl6K2jzOd0/jxik9RA+w1ZtkwHn+MAuDBmLii+YgUGkH/Pj2MArFEuHA4ngzAbYgdvOSrq82wn7YcRn91Z1Smi58Sr72V0kSHQxRpMwrkmzK3vETEezmRrGBM73QfXVgQFF5CgWlRhYnfcD7fY9i7viim6tRNMbyVkh1BR0CAr/YU4qpwd7YZc0pNd4btZPr2D5d5939tg2bdtGIEFf14Hc2COq79eBRE5IY4fbCM7ySIgOxEoBjXJbaE5f+3dBHDDmyymYHZla5C6hhvzzS4x05ptAfALKihn6YPVxbbs3+LjrPr5xQQLBD48RvPsE4hgmNrfKsfJ5kneg7MP9B6GePyqb7ayNk2TE65tkX/z6zz7v9GAYi+TQNjZC9yWKr5buCMlWRI0WbI9oet80ZzlWBIVB7M8E7VSRBWFr678hzrPZ1l1DtutoWBpLpDFx/gefO7G3cMT78AmX46pawQYMaWExQM4xQwyIPVrzPq7VY/ZkWcj20PQPY1wnl57NIONj1+2tAFBjf+neXlF8AoAHG2dImysL98d1bQnSVAIkuCUPsUbq37w3Dwm45tjW9HxhgHIux7Lv1Xq3WPI9p8auAAjrBNw3xVy+kK9PfRoxv1nhDRwBJfKDFxyK9+uQz8NoJS8QygChuGVeLs8/5TrHvtOPNHKwfSGczS+eIgfrzaTG2rIGELPmGy7q7RjQKgtVmDIYclOzvx0LYfqlKDI4ibZlL0WC0bBjbPFwdhyGpW6xVlGD68vx8lPoPLmwOvtVor0fcD32bmjbE4BUac3yiOqf0vzOqmQFhsYQtxro6X4PCKdwoRxiHj8M6M0Le1xkWZZ5ADsw+0VmC1Je+8R7YBJ6thr3bkeCesmg9hTGZcj90aBcDmXDL+2EfMBH09NmpgEwAt/0H78pzYCo2uIBxzOTU6bA5MOVrABpqOWPOpkQObbEIXw2r/DR1FQAH4Ivp5iw7cVcMp6HS77FKCgQUBP25Cwi3fABwExgIWSnZe8ycWDowcR50Q+HlXwVyiQ4jbRLi1mRusbG87E/5YtLebYyCjAEgGJeTNV6jiJ7sgLnKwPDoK+uPCli7xg7jKjKIcXPozBntbeeOnKBA6cPSNwJ0C5omVA0+dYa1HgRdoK1S4z4K0lacR8bRFYmOsUA16pPQSybVj9QAAMnNJREFUDGq8X4GCpWisRZv+r7H93FAPXKp0kS34GUAKcWe7ucWr7ayGlby5fjrNWa5RAJwcScA3lICzQcbTMZNyeUunWLz5fMFGgol/siO1nvu/ZtW51juJZ8IwJDC1jm6GAvyWlqpZMJgbJs8IC57kYOFtV4cHeX7UgT+IkBia70Zj+GdzNPY/TY10Iwp91y7Yq13d4hVBX7RyoLQtTjSd6KyQUQCcHEnIN6ZCh6MhY7EHKFTZoslN/fRcLXgNxHFGLdfwYgma/80t8MQEYuUA+wbIpelnWgqFvQiuCj5AC+6YkWLg9nb7KwWEUygwjYpAcA0jT7qB5sRcHVPcAAfYNwC2X35qf5ZrKwZiGPmW7a7mU/tAilraFhf3f6MA2NxL3h82isKpAC1CrlRt2TgQxoiLmzvFgqTeJPjJDjEa1v8TS9Wj0jRcWXsvVmC6K81v8oXnQH+KroIitiY8pqEY0L/js7EZWnwkMfaRLkH7FgZ/dZBXw6og8Bsmus/s/UfSTBUjGWnRz4u2AdwEuxT8Mk1tdzWstjvH54r7v1EAKm4m/RlfbbeW5OCCVn9JQ0vADPs/MyPpxSSuBmzQpOx9DiU9VAwEzyWhEJjMoTnA2y9Q8G4KjcgFAdr3AJfomoqy+lEHVQB4hblWqgDwEYZR8PyaYsYwJNa+b0HQdWWVAC9Br7az7APynSru/0YBSHgH6pkBF5xZuq0aZKJzbMmrAbhQ5S72uFcNGtzKxIbnYW7xoeNy9I+eNuv3ofEYBKE5UFgGDY2pGAGMXretFTuXYsoHv+A5Md//VQEQRThHL3QdYvr/IKerF8KRwAVllTxV8WNSVcGvhrlv8JN/b9uxeNDOyygANmeS/ae7j47DQc6lVaNS0BE4cvfPcZ3iHOrA8FPlB97/vqyFBEvPrFMLrcMcac9M63kMW8/qqGZjlibrwBsXTqyO5Pu/Osj7DTORXsqCRb+Mqw6mnNIcwN0Lz0EJzhuCe7WtFOxe6TKe38oDb1sHy8+iBBlp3gnjQIeV6++lL2P58vlqUYaZ02j43L+0uZH+2TxPnFQtRcB2XAT/BVHzAbzN4WdyY9R4Db4QHBD06xC5PbPCJ8ABnokJT5i5ROyKmd4nyy4Py8Gf66OGvYQ/4iEMbk549euKPCh6t5ZsZynYS7SpxyrCQZKRRgGQnEj4e1WHtWZdhiZBUL1STVJ5CRUz8JugCLwIi+pToQhk4qQHZ//301EebB5+bzti0oHc4KyIA+vT9BtbMasot3cm9KGaVQD6xUD/V4W63zCzxBv2sTlTrde9uWZS4uYA+v6gAhxcyOc8hH8OSsVEWRf8FsxTSxzYqkuMTRM9Ds1tbCLozlEPNphm8/lt+3pXzUThdMKvIKyHnGcNWyzOyH57Rbt1XVg8pfLztbSZ9Ti+ZdGnAbcpZqL2NbUwvGKfA2z49ly2ke5MwuVDLbPFrtk0HZrK0VgMEptgergJlL/V2Ry9AwXwDcT93nZaVarCEaShvR9Cex8YAapiFDn691o87dG2SNyAipzkObjLWSHX1k1ouMUBFH3v9LlTrWs5m3mSwwEc21sOavYvUOTRfq5tzZk84HH3QAuf9oh19laohAlUzAE+Hoib/A7E6YDHsGRdfac9OFsNZeQXuUa6FN4Ef4OK3dDdav2p4gqWyQjhswsGv8if3gzdEznSAYRwsHQsLCfOgOe2icW7cXkAKAIDASIoCNdC6C3FhsTPsQ9+x0BKLK9tF4gN+3rpBzA6PRl0bg1Fk8j+Q3mysSmJbSCeRdoPXOt+COXvNmqiuXytbz422r8o8gFgjFwBwO/ni8DbHS21+rHBOGxXCOv84zG4FwZ9Odvntxrm3I68aNL7BrCaV4I4ANure9Dm+SOfjjYrqwSWgM/22/1/BcZu89QaB16Zab0AQbhvLkvvJYV2zA5Hg5bT8f/x5rniOTYY5BlvpPTBABEC5zOR4mRkgl54c7oVufc5tldo7hJP4of6Xxi0J/qlm2e88EdwO45gPj5+nvic33wVw2EbB8rbWX1r6WX0qwvRllv7wgVbDMCehjv8/sl+I8ZeJjb2lS8AEPAvDwDuGxQD386+gZMCiP4PgbBjYeCXQp3pCxMW9JJZ/k9KIxfTAV3vscjbG30Fq467cElGASjmd818sRKARtw/SUqAZB4G7R3ZYBCz2dfHzxFPQhBe+u9d4sth72QfN4J2BO7o+6wVsZDBQN08R8zFzP4PIHZ3yZegbxzB3Etk6UkoUzOD5vULz0J7fAM9DvgrQWtFChvaJAOl5T9T6+mfY7vEHn7L9gO3Yg0soXMaPGIK2sFP+UmCad0LW0fl3P/yrI+fYArBcjuP+ZM4DnQeYj2JCcpqe8WGqQvWrp7wWPGx+3/0g2niWDh8CXp1lvV3HA+clEQlgLnOgsFK0+4QhOdAk717w5H0AZaNn2GFgA0IeYbccrkY47eF0mkNs38UDkXqEb80lINj74njmuh2zODbysH6SWeFB8rUbLZ98AMfBGbsbLELhPYz3EZB8nnBsgKBPcUneMvDCyZwPE7AoO88GjhfuQxW7SkA+B3tGrUgsAVKSgN/y/HfpPvngIX2iUjwF/AMKMDGBsB/MyQScuUs69nmy8XnaR0tRONOSCSRKlEp2gXa5+A+Pq4dg1LwFmj/B/+HMH4VU5g1aUFr4BN+DfXTGrhvXYu0NZjbTMU78gf7wcujQpppont0GK0B54lQmJpWtFmRuIfeao6YkEnbio9vBcw3j7DlASWAutusW33nKQGI7ZPHkPylEiDBkxL0Wzl3sdgAbr8bM1lqaGiiRvwkMlDMmrACNALK/QgoQI34LaRhm3EIVgBSthLAAkEKhUrDzDWsGMDaPDIFOHhDmBxlOSBsBY3HvvyEvcTevm+Ygf6vYTgtWx0DoIEDbMC1fi39Nxp0qgb0wxclbp6DNfjmUVQQisyN+ImeHAUuLxxQkC6DEvBDr3Q/8bzsn1lHfwOtzX7gK4LJwTIgRZOiMAhtni8OgvHHgxXRUSpTlj7dPdP6RymQKNNY0EOaH482PAp4J4A/LYHwRzHwc4ESD79x81znVKv6xsSBGFFfwOctEgf1W+j/st24+hGE4VJ6e7MFMEz60ktnWR+uaLUOwSzhomFSpViqAQvbF6IoCIaPp+sW/kwnb6eM7xJHhqE500e/0yr8mbgUNUG63MuKaRhaOS+OHmoR0tkUbR+WNj/5O5aJTPtCcc4Ioh70t2vAm8n43+Inrz3QM2AEA75dnoonP6N8yRcdBqhqHBAj6EUd7Y+TSTsZBaBqzaqnYMxoLoBefwg6zId6ShhmWC38uEI+9q2JKZodEo3v7PBZ0OUb2AGIVQpeStzPEa3lE4PLpn2rqT0scj76GhaHW/50Tr8CwDf39a6jRzHYXoqZf367hYUwP37ectmX3xI+qjDwQSF53o03Ji45HLBvZwzb5lwd7j+yP+XDE4wCkJx2jowSdtCy3qKd0NzPRoZ0mCKChVnoGVBmFJ3Lwi4uFsEwcFt7xSFogXyPg0VXBs0WBh62Cz+I4vIdtFPkggrciGTrx4s/mPk3YZmV7/DY04aRg68czNVvBnCLl0J/6OCdH7vDxKM8bBn+y6bN/Ek2B+AkzCG8g7U/1072r4EwbEs+ZRSAZDd7xdTZs6Z19sBzTcVI6iAjzlWH3wLop7OrwKrAZTZvQAdgEIjXUBRbAU1Z2z9EKBZB6Qm9UjOEAIv+bUhchBGY+V+NeftuBZRewpwBZJo6SKvCXY2PKpzHH77/FypoAro4AGX1n659xNkXmAC135QIQ/kbYxQAXS2WALzsmhdGWGegQxwHS981CSApcSTghMGqMETheN4XceQvkAMcLOHfh9MNn0XbWPw/S/R5tNGSIHRAIO6I5fyWIHlgH/LlQPAAhhV6Z/8I2kTSihMTJ2P9OtiSfI6OCFquE170h2snJz7+xqrCRm7xUcS1LhaHA89JNi4epNXHOWh7DdIqnBdMmHjgh58J4/9fbZuEhlPcTrIflWpzpt8PHLc9O/JKaH0NWRFygI9jZQR9FkLmzxGiHRaoslk42QjxQIv+qu/ssIzHPvCXcOfA4d2zrPxVn8j8aqv1F7TRFKSd4BsXALMW7hUI8gjyf4QQ20d9gsbDHXG7ejdBzwzr5p5WaxyOrV3vt2j2MzCuS2zpF94NDoraR27xYeKgRAVS3IKUhZWlS4oGYs7MAzMP3n7D6kAfNK8feOCHb41Q/d+ui/mjnQNQvD8u6jtcoto/nGFOL9MHcLx2E6MAMKPq4GHPgRAye2LgDnWEbLixKpMKZywJBWB3vzzByH82jvDd7wWPtN/gR+3baA5GbPm9ZS+ESnzLPPEpCLxPKVElg+tTdNiqNqvHC+jVNus0zKD/6pXujAefvuCMC/KNVZIPgsD7gcUAGL0PBBTculB8EaJ+QtGAzQM0P2UG5QKME9Y5wDMefsLEAwduXIxcsbLpMn+i5YCFdlL7Tph2H8gLG4CNjAIQbTMlHhsG7suwHbANBo5HE09sDAT2jQg9A/IlVNlbY0+7dU25KsGg8KpyMIV0v0fJkKF/fYCLo3J0k0/L+8sLtJQJYKAZWwakZDJm1DpmqnpsACw6wK6MOmCXCjOwc0B3xpXKz3n58QsjceONWx4jV6wYvXmi5QD8YOS3cLmN+ZFvZ78JEI/flLEBiLaZagMbBNErWA3YHxrg1zB09NQG1XqoXHWu9U4YzFCmNvWTH+bWv/cDx/4cgPOPfmAhNFp8wQEo1RBAASB/nhFxhOxhv+VjtWC8X1g3OPDvQ7f4kHFabADgqyF/YZXfwZkr4Sa81cFcwvDbL141vxqWuIDnE6RFseISzBMhB0QaF79xu/OjvtV2DR7eNK9NREioQVU7HIDjoDtxZHA8lle/l9T7BJLOTb8GgNiv7/dbF/wofSklGA1G+8UJY68N/MJiv9EXrem1/m+jxC2DoWbbUDb6/NIfAE7LFgBsOTYOLaS9BnOuHKdJIRAy3DHJ6g3ALwNaLQ4IWl+Y9UsavPpIufjB/KONAiCZUcdvGKFdlRpJ28A+4JJ6Y0NoT3U+V1CwB+779jkI9vwMsnxjvFEeJA8BAerb2hvLjdv5wjvCf53gyd53+W5lQ6j6Vnbc8rvFaVN6eVm93CDMAjwBMOyoyI03Ji5ZHIC9yiibIme/4UjuR14KIad75/nAKADMIPNQ9zTrfdgHTF9PNA5D0031wpL+3oEfVqUV9nmMEEvYO46bLcoKdr5OF8Z6W/shB0vNvo8wYgnet7KA4eRYP+VjWfIbfuAYJtcfTgEAT/IDoN8CfcChTXTYFZB9ZMtrQI4znnngHPwdSkc6Gz1ffbDegATlgCDs1uApJezd+lbp9jcKQNB2GO7wbPyFbYFT+AgYhMZPoAwM6yXC3IiQA2DWvw1FagT4WeaBYc6VZUAKybDh6C58lAmUsugfkhXOgnBs77tD4pUInCrYFbOSkjAKOOG4Wbf6HTSsZQVA0/432uUPRfULOmj7hedCSg3wnO4Q+Byl5sHWUF6w2AnmT1I5gG250Xa7MYFB+kdp2I/MCkBSW7zKdLHA6GmzzsI1w1vYFwz5XOquMtmBi8+tCbe0nMuQ57E+JzEQmBObu8Tt9t0BjsSWDjEGl/w8hCtg93IkeX5iW2GhZ6JLAgTTIpdo16g00c/GzxWnuSXyKgVm9EuxUtDklu4Wt3qtf4NBt/yoqw5B9b5bWWHjmppw2RIN2Cy4zcpKD8p5Qy8/MKWEP+fnp0z5VlgF2C7E/ImBAxv4FvyyzeXbqy8RfZiJgXBTRA1zAN4EeZC8gP/bF8kI+ib2c4+p4SoVkY6Zaai9ZSgA9+Hudt8PRuWjGhppv/FzxG8xRP8eSkED3ntjP/oopAVyTDNiFDwKBnjggfB3cKgz1W8WwF4LheUMLGk/AGc+T2G2uAOW/SdBGE9FH/D/5OietzusUMvtoP0ToCHSB/XTcbKA2LCudZFYgLY9t9wMXJ2NBw7LgZ3fqsAPEIYjrFD9P9IGMcg8OYC+uiH6x+DsX7a5VAL5Ww2rmGQ8xxWHzQqAyicTLs0BvmQItw1+PTMSLlRzUAQsurvWXQzDOC6Uhzr2khdkZm1zOEWbQZidiT38X+NnewPiTvd7mqDQQuA9HxksfPsIrMvQXT7AikCglOwOYf8j1PFuvLts4V8E4ePDov/yAVUSxMqEayc35KhTKKXEDaeMw6mPixB+0/4uHnSjM/5j5HLg53AF5aAfbsFZzZNwDuTQ/7l9+VHb3Cus9gUvGBir4vdtHsOBYBxgwQNl4MbuGdZXUutoE5we+AoGUx7ktSypBqMuGDT2licEyzEUGscoLxgaqzcGjn1+FLSEN6dbb6G+lwXNFwYeCuLz7Io6DA47bzb6q3vBC21OcC6ZYrHr1iNs2p0DMEeqA3RUYWc5XgJDLT+C/m/X0fzRywELJ3NKta/aphxWYT36F8bsD40CoLfZhj12vnAIpwfuhk+B43FhzL9BR52E5exODHBLUHn/ludV4hRmtJ8OW/TKVuvPUILuDIvHb34YZ96ycpb1rF94FS7bQLPjXLXBKscMtfyKw6kARw59FoJl1R6foBWBdR5iPYmB+Bj8FnrtAZmxeAllr3iZhwf0cmFOVwd+r7AqEHLh+79Nl/mjmwOfLqk0culqe6ttrMarYUE9RgHQ3Wx1hh8rA8v5Ahm+3AYKwRa0lv4N7kYPxv7xdHTgm8GOp5PEEljd7xAFPen8HQv6V0By9Ba2LVorpZm3LPCj/16l+QPly9Jtpe4+8Itrqzki9CqNW1nwd/CCW3yUcZ2TrduhcG0HxXhJyQGcB2Z+1IFbVQrc0rzylItXhUAA/xQ2feZP7Bxov3+g/6vtVirMFKrpzj7FaQwi6EVjBMicMI82DgwYET6EAvh/4Rk7W+ySSdOOWIb9DGbhO0NJ2BLe4tjQZQy652YFQM0BzFAjES5QfLpbusQhGOiXgf4mHWRDkKzG/4NXtlu+z/+70cHbN81zxPawO2hzS48o7k+wgz85ClzwARB6lcaNjv4sPe8WH3XcvEOtlcA5pW2xOAH9+3IMzp8sDNA8GMvBulTYYxAfojAMDO5l4wfL3Dbq+hp80XIA1/buVGjPwXYrbfip9hePPoHf//9i7DWP4UBtcKBljpjBhmhRUwsr9+35tsQo8I7rFEekreDGduXKtpftM3REz3SrSJEql69UekunuAnC56RSMBWl4SphHB/df0D5qwiFmgntfiEbIqpxkYTX0kjewooEVwAk7YvFDlB4x1tZ2hX7sI1QfFdjVWcNBnm2SeiFSvABFMmPOC6Dy6pG9NPajinWW+0LxTkQBpfaRakDvFeYAb3SlHirn7afe1g0/d+mzfyJlAPoLz/GRGlmkaLIJShtWDbsAgt/36PNCkCkTWWQ6eQALKufjvgkmE0urkQ9CIFIFAC2h8A5+T2xxnY//m8aBT9g+rsKP/CDIfwjnbFim+bk8Z3iRQwuF2KWnV+CDkkwFJUHYBj6tSgFK4TeAVHPVMDTlT1VEP7M3rlTrH/gxf8X87ffB4rls/1yIHfOBN3iZRwX4BXmpDQdgFck/Z+LMk+0HMDv80Bb+DNaj9l82XhnfyHqYUPVSH700VbXYDMccOeAaKS/uKeEi4VwmRQOQ3FuNgrEQL0bBt1Hi1OCf+H8+33rUvRZ2FVEKvwlJdijvxjGcEdDIL4j4yp+Z+ki3DR5WJTCn50mYZvmixXT5JVR0D+9kpIaD0WVjQrzY7aXQFfj5aDPFfIKAx4K1sFJrXO909XxnGjAOLKbzQduW37UNvYb5nxKH4BS8SJHGQWAuWCemuAAG7CB0OhPFmTtGVCkPGBPinzlMpB+FT/YwLMrzKSfx8mC/Ve0W4fz8b1IiXMg41sh+9fiul4IcJQb6Gw84HOo3804CrkVfERc4EAd+jPdqEH4gyoYfwZuk9CVCYmg62DrA/D6dRuNMpirA3tR2I9wAB5sQUwMSZrJrokDa1dhcpKCszD14bbnx0/7esCgzXkFyigAzATz1A4HsGca+SkCdsLDRok6uICTEHdBEdgeM/kDcRLi6lI30EGYvgHN/DL83wcz6Z2wnfCoDprccK7qsNawAF+9jraC3/GTQcsDbnBK3J+goPwwi71s3krAjZKhDBMVvEVBeGqMdHVGIsf+euT9SOLW/H7Sxu8xsBcJBZ9KAn5TG89cInbVTLdBXwkHeHLCbc2P2p5+2r80zDOM0tgAMBfMUzMcgBB9Gt7LpkZNMATNl4GzorP1fmjBTP5hwPH/77ZcLsbgF71xri9vI4DjaO9A8L7zXkcwz35+yg0KwzRgmeVm5OP/tPl8sVnjetoU2wRj8H8NhP5buoS9K61Z+oqOaQr4z21Rcw+2Q56FwP6yLQyY+tKDvL8TBkCTzdn9v1aVopprR78E46jeMej/Q2f8YVcB+ukRpsEoAH5bwsAlhQNP6SAEs+6TgfdiHbidOPnqZcTx/1ecaUn7Hth+0LoF4VXn8fPE5yDgIvHToJaB1ZjXcJTyJTWuVsKg/a+2OJCCP6wg4IoDFxQLvtr5olrhQz3QyasycPrVUlDy5AqA+naGmTGyb3iFsY0kT33kNYt64Kap47DgQH8DLbf3nSOuDazgt+Vb7iJGa9CF4UCOTgiT3Ssvlv+XeaUlPV5ksHIhB3h+8yO/w4W3bVsoPm/jM38SwQGsyvCkpHjpXxX4nOZsey94NV4Mrn4ZBYAZY56a4cCqcy22Vv+TDoJhGHOcDrwGZwUc6BApLH+eWEHOslnQzkvLAiUUwDYEJHqiaOCXQoFp5jA/TsHgIx6K0fF2XvOn+hzg/k9QgKWS52zjMPHpQadsRgGoflMbCgJyAL+MewNm8QUOwWAGQF+c0g/UvAGMnzR5hFyfGhwA9ddESwl3Fwl6LkIVEBUIf85vCxwt5BqkQTlw3l7o/6rHSEagtrHfMOdz9Idc/2D/NwoAM8g8NcUBuHAtZ6FeWX0gcJrniZMqy2xyRckBeKc7O0p8Ehe2j155rdV2zSujau4NI8D7PGeGXBuncOA4hxCwYZzxRJu0LRGncLR5qsuBfoumebZxkNm/s91xAdCAa2q7gkYBqG47m9Ir4ADfhIfNTy3HznAWvuKLdiqoisniwoFxs8VncOLgSy5JoaOwrRDI+17oAjUg6JpqPQfh0OMqINyEg1MIsILAj1u8iOj2Rg31rheUrYvETqjroUMUObe2LdWWzLCh6UtUPhoFQOWGCdcMB9Bx79NBLIwBd2R//jpwG5z+OJDO0Cx/kBVApeiWCnIlLguW6+93GdwH6VSFe7AVge1hDPjVQUQmFDcHoKS2F8p0tp2bEqC2tTPMiJQ4rB79qoAbAaMAqNww4ZrhADryrbqIxZGo83ThNnhLc2DLTtGMZfpjSkNVlsrL/3B9/MfKcicrF1bA8v1fGdzVgb5IOWDSVUHilWcwXp8Cliw2Jo6aWUvFeLRV3hiZ24Mfte04zM9gWw1Nl/lsQPyR+XPU3XWI9XsZzW+jAKjcMOGa4QDc1y7jAV0HwfhR7I5VgP104DY4S3OgwaJZWIXRMi7Byv360qXXTqo9kLM7Yzm4M+lqWAoBNY7DTjgZVyxQPjt9idjfhjV/YuVAts/HrX/ONlTbTg072z5F1zkro+WH5izEfBsO6OAAZuo36MDLOIE7f+2qrgIM3iEc2GqOmACl7tQhCRFEAG8unaJfRoAqOSgs1Ecd8NWwc/DnNH7kW01X8w2E01nT/+Nu6Pb7xQQocafZ5bopZi7t5AnLCQ54nHIa0v+NAmBz0PypRQ7AUOw6Hth10I4fxu7Nc8XpOnAbnO4cwHW3N2D2n3FPDRkL5z/dM6w3QmJJVPb1jcqKhmOwtwlVhbwUKLIGKrwTjtNStFvbIvEdCW7e+jmAa5lvLJTCbcCPW9s4491g1fZFGFumy+ZMtfIXSdmI83+MAqAwwwRriwM8oEMJKLJqjbIGEEZdYy8TG0eJ0+By5wAfvwS/v+CeGj4WRnNDZj/hsVYXw6WTrHdwle9dNhV+BYVUBOTbTXgM4uqctsj0/zha2T5+adHetsDnAgfboHxYbUsZduT3Wi01CkAcrWvK0MYBaLY693XHZNbRZdqIN4htDvDlSKkszdfGjhy9ZfXSndrwVxOxGJg1OmZ8BUGixqtCobTgzwsdizZqJLMVoLt5Wx8UG2G+P6+wPeOnbcrBqO0u6O1+GlAUHZUxCoCDIeaztjjQ02rdgbUyPT4BmBUpOnl8pzistrhSW9SKdXQt+LyZLqrRPy7r7oAKMAyfrikWe8Xs8TVjVIWCqgx4hfPwp7QuFocPQ9Ylp0q8N89e/+Tj1R6l4jmvs31lHJS4S6ZYH0v06tsoACo3TLgmOYBOrG/2CI5g+eyWcV1iy5pkTsKJZjsL8PcojWS+37+OfqIRf/VRC5prE1FOQKjpqrDwCg/A41z6r2Y8IMZWv6LDj4L2ReLb4O+RRcLbqz1KxTNrnO2bZ9dH8Cr4Uy/OGQXAizMmvnY4sJZ+jlkeXxKk6xmTFvQ7wgUdugqoR7wtc8QOYOiVOuues+jyVR3WGp1lVBt30zj7NMDrJYUIE6kKEFVYeIUlPLYC0mn6ren/0bZ0+2KxA7YwF9hYvdqg0njOZzc5XeY1++d0M6AxF8xT0xzg5V2te8jMHYv2aBlFs2uaUQkivqVDNEE434sRqEkXWTghsrqhia7QhT8peDt2svowi7ykiB43wTEgFGxFgIHdYGS8fLMSgEcI2r11r4GVBo4wTygOdCwTTRD+96INmny1x0A7lGwzJ4yg1ZQurWAbBSBUM5rMieFAn61Jv6+TnlyWZsAe4HidZdQFbl5JaaK7YfW/rc76ptL005fOsj7UWUZScDc20VWg5V2bHqcg4MhSwl6FZ1j5zW+pNOCNkxTnti0WJzCIeUJwAP2/t5fuBp+3trH4bRvZLrJN1PZRwwOkQcG4auD6aE9ijQLgyRqTUEsc4FWArNBrCwCBlcJ+9a/HzxGH1hJvkkbr+JHwSGbRZJ10Yfa/pi9VPxbsHZNsI8dLbeFdiUCRwkUVJCqewfhbYLU+RWfbDXfcbXvh5FIK/V/lb9DwYHsUb+3IdiTq6yPqKsdLowCU45BJrxkOQKvm/TTtzl7gUvZ2rARoO7NeMwyvgNDmOWIuZpLfrCBr0CwXrTrX0mkXEpQe7fADxl5v2gWxQOGnlKBwg1EFkZpXibeydFf7QrG3jd/8CcQB3PTXBcF/SmGVReFrSYWAS3G2hzNOpvObqOPyqdZ7DFLqMQpAKe6YtJriwNsd1mr8SKbpJhorAaOwEnA/hNmOussaTvjBr7OwLN+mu06Y/b/Ss65+Zv+Sn7axl6DvFYSLFAgM4DfMsFIxUIWTmp+oAUrwwoFrazmHeXxwYMZicRbGjRm+20K2Q16gF2/juMUNwvc0Nfrr/0YB8NFwBqR2ONDdZt2KwWl5DBSPwY/5kZZ5YtcYyqr5ImDxPwOC5fI4KoJB7VvUYcH3Sf09nYdYv4OAeagiITMoQGzDvyIcahqHcTIARgGPzlxi+r+fXga3yq3wxZ/v/8y/0gJ80PZCVbzUsBcOwGTTdAq2hHz1f6MA+Gk9A1NTHMAS5TexCKbd8QvcEG8Kw8DHWuaKiTXFoJiJhc3EVbBG7mIbCt1FQ3Ld0d1uLdddTpLxw/H7t0BfX5GQYYJVAeInrAoZhudHicPJgDFYbXnM3Bxoc8bzD9z8Xg2+daq88wz7aReXtrDxgQJ2DT1/svWIJzGOBO0/SEd55tNwQDsHIAC6sxb9WHtBKABCbTRei1s6xbFxlFdTZXSIDGb+/22l6cw46GbDv3UpLIHX+TPvUGsljgXOKhIyfgULC3h+nEJGjZdhfls0GjcHLmlbKPJ32Nc579Xq46hfBqcmboPqdLod76cNJG/9wDphBPWOFMF+a0YBUFvMhIcNB15ts+ZAIDwfS4VS1ICB8L9ausRZsZRXA4V8skOMHj+KHsTM/5gYyb3ozenWWzGWl9ii5h5iXYZjYE/LmWGRMuBXyDiVAK4t55Xx8s39P0W/wTL39xPLkJgJO3ex2KC3D1sxREd7toHknxtP1Tg/4Xz9OjqmBOv/RgGIuWOY4mLkgMCPL4atAKVGV2I74MYtO8QoJa7ugmNni102aKKnMAudGFflRZb+AsM/rS6h46pLVOXkMnCxnHNsBUihw28WLPx4hZ2Cxwmr5uc0i34CJeAGFn78Wa8P20VkcvRX8HVfmwdheC7zOtvCGS/ob34N/9R2MQqAyg0THlYc6Jlp8QqA9lMBRUzD5UEjRtKz4+eJzxXF18kHVkF+kEnRExAGE2Ks8vu5NB0Bw7/8PnWMBSe5qPkHWi9jBeYMV0FfTqBwxZyKAcep+VQhNAh/SgYrD/VqHIjjkedg5fFxqFYTCrySipLKO6+wk+cyb6l4oo9gkHm4X8M/bir54EiueQwHhjcHxnWK36YtXLgR55OfeZ3f3QcXrXUgmDafLzYbmaVfYdCbHCebuaxsjqa82m4tibvcWinP3ocW9DVXRUAVLFwh57czzpkuv+VbMoX7v0U/6vwTVmXqoP93LBab9ebs/n/QEMEveSPf5XhaKt0FBwz/psLj32LJ+iBvswIQhFsGtiY5AAdBJ2NquDJW4nlfFJbv4xvoiWG9GgC3prgp8buN6+l/qyL84QPfCP/SPbupgU6CYO+xoVwESCGeA+rMlGGdcc50OUN1xuftYjrb9qQ/D+vVAPR/tn1YR+j/qnc/yReV3yqP3NIlv9U8ZcI4iXFFpcI/37R2C5s/hgPDmwNju8QeqRz9AVb7WKGM98GSYA5LdLesTdP04WSkxt4QYWh2LepWFYdIvO+/oo/2rIcZZtgey0IYR1afgJBqKJrllxEwdrleMJwo0+RbEjr0+8Ymi1qDGqlJdEl8szdE+By5FrR9uqA4eQl2Kfz9pnOFVR6qYZmGff/OJ2iPMP3fbAEwM81TFxwYP1ecirP711ersnxMDQPGVelemt3dYWm9uEhnHdn5EWYe7NJ3qs5ySuGGMHsPDk/+47VWK96VnVJEJTxt4CKfW2wyVYFSaVjNx0jlt3yrcflwLxTGBeyj3o+bWs6SxMdWpoR9M+ihQ+jzqrsE9JvuBSfjBX2A8eQzfORToq7kbRSASrhm8tQsByC85mKg0u6OtiSDBH2IgXD+ml66wnZfXBI4OYlbzxET+tMY+HJ0ZBxOfbxqbitSKdr/1VbrL14wJt6dA7iD/sfoe+fZqVKY8IdX2G+amt9GXgInhBcU4UuyRJeXuqteoknKu/1+MUFk6GLwaqg9hVp/NczEy2/5VuPUsJrO8fyocTLM1/wKOgBeH5/MA1X+1ygAlfPO5KxRDrBzmpjPp7tySuToHaxIzM6MpF8m+dpa8GuHXIpmYan/RNeKxBwJWg7umW7xGWvzVMABOO25BUvWx9nL1pxfCpZKwmr5Eo98l8KHNAif96BMzsZxxevLXVurFhN3GErTDvitnoftk8GrkP3UMSiMyi81rxqPcEbQwRdPjab/GwUg7t5kyqs6B3b7hRjx9nu0HLPYZNzoB18F8Fz4AATsrzcdQ/c+dYa1vtpMsq36c3Q89tlPgCe/3atND5fPthRQmI5e0WrdmQR6apWGjudEQ++rtBz07xlaCZCCSr4lU9Rvt7AahxMDIk33wYX3LU3NdH/HThZ2Car7sFX/uhydiNWS4yH4dysoSSrdUYdVfFx9+a2+BR1l3/cQEXuMAhARIw2a2uJAS4cYk2ukp6AEbJ0oynP0IQacW2F+/WBuBD288pzyV3pGRT/fboiBeCKOBh2JgeHAqPBGhQcKwBk97dY1UeGrZzzTFomNG8XAeXXJCClo+DtoWM3jJ683/Acom1foHoIAXhqnrQDfboh+vy+E/lG46Mu9/8u6ybdaj7BhNb+KX8YTfa9zqvVz/ozqMQpAVJw0eGqOA1t2iuYG3GgGwscnlXhc7PI83Ns8gkHpYRxfePaVmdYLUdDKrnobR9KOGAB2hy/3/aFwHISrejeOArcOHDA6PH9Fm3WxDtz1inPmIrEF+tcfsQrQHNlKgGSmKsDcwmqcW57BuOfgUXI5FNNHsC72zNzDoun/7K0Q3vp2RL15FWQ/VnjxG8v3f0mb13uQtvLeFCUOzlMurKY7ygBt53dNib7/GwVAMtq865IDvNTd2E/LsBJQlaNslTAdg8HLyPciBpTnIbjfhZOj1dhL/RCD+WpsI6xGWi+WyjeE0ByFuA1hcDUa36MxkLYgz3Z4T8Aqw2aVlF2NPEb46+O67cBG0MMoIX+UjYtSBZGfsCRPwsp3KVxqmgpfKl6WQ/QS+vsr6NfPY6b+Duj9AP2Z+/3HiOPfQS+u3t0QivNopI9G+idy/Bsg+nfAbI//20Lof3IQ3UDISQdHO+NKfatpQcOSGJlPvvPx53VOsWZLkCjfRgGIkpsGV01yYOxlYuPMOlqGQWSXmqzAMCUaS/79GMBPxsz/N8O0iomoVuuDYiPcHr8UQvGz+I8dIDyqAPIKq3AqjBrvFfaC94pnPGEfidvrzfidaeXi1PRKwmoeWbaM47dFJ0H4/5qDOh6jAOjgqsFZcxzYdoHYcP1qWpoUg7eaY2DEBPNRP7hsOsJY+0fMWA909pK4wO2NFu1dEIIM6xRKQRQEr7ySBpku36XiJUzYt7MMv99ucJIWTqs0rOZT8WAVA21xGIQ/r85oe/Lanjb0BrHhQG1wgI/hre/DXrjATMg8VeUAtjXegSK2rxH+8TUDn8fvt+hglPiAvQrAgokf6cEuijDjkHhVwaeW4YyXeaTiob7dYCUuFc5Ju5qPw37S3eBkWc78peIZVi1fhZXxgt7GluTeuoV/nmz+ax7DAcOBAgeaO8UC7KX/ZyHCBGLjAGb+L2FWcnB3u9UdW6GmoCIOwBr+R9h6udCOlEKJP3SHJRWyHPlWy5Zx8u2W5hanwqvpzjB/86PCy7B8e6X7iffCwXn5yVF3uoEmzj7QWpGP0PvXbAHo5a/BXqMcaJkrTsHU4Fpo4jC+N08cHIBx46I1a+noWvKOGAdfqlHGeYvEQf1Ed2AFYCNXYchEeQmzSuP95HOW6/z2wqHCecHIePlW83CYH680r3hnHue3zJd/LwLPj4nTO6JRALhBzGM44MIBXCO8HyyJf5fk43EuZNdcFGb9OVhvn/9qmzWn5ogfxgTPWirGZ9fT/VACdrKrKYUVf+gMB8EdBFZtq6D5KoX3n+9Huiz91Wo7w0YBcHLEfBsOKBxovlxsDXOce2vpmKBCfuKD7A4Z/tWPM/v9yWwqNg5ME12Jo6PftO0BmEz/Qs3/iQIVp2SFGucVDkqPF56o4p30OL+d5RB9hCXGo6Jy7StZ5/dtFAC/nDJwdcsBdh387rvwBW7hEiG+TtU8kXAABpd/xcz/cFzqsyoShAaJNg60LhaHQwngmzQ3iUURcApKadQXJp65I/PLtxqnI1yiHPT9Z9OCDp0z1Xqdi67GYxSAanDdlFmTHLBd5Vp0fTpFe9VkBRJENGb+s1e0W+cliCRDShkOsNOgtRZdDUXgyIIg5TwlhFzFyoIOvCqdsq5qnI6wRz0geC+eO8U6X5JRrbdRAKrFeVNubXKgQ6SaG+j7GNhmY1tgdG1WoopUC3oUM/9vwqf/K1WkwhQdggNtS8QpsFa/Ar+B+AwEmd4wAlrWV+KQb2d82HJUvO7hRyB0vwPh/w9ZdDXfRgGoJvdN2TXLAfsegRzNT8K1wjXBxBy9BYFxdnebdWtN0GuILMkB20Cwj2ZjS+yEUILZXUiGE/YqTq6F/JZvWTP5Ld8qbNRhuOxG/5+m06ufrFaQt1EAgnDLwBoOODgwtkvsgct0fmY8CDoYM/DJ7nwx8P10bS+db473ufOolmPbForPg/6r0cbuboS5cnEI2EptBCTzVRojphnHWxfguu/z4jzeJ6tV7m0UgHIcMumGA+U4gG2BliY6BgNdF2ZEzeXA6yGdXflir/im9SnqXNVm9dRDneu5jlAEjkP956D/t9h8kAJVvjkyqeGo6WJ8RH2o783ZBpo3/0CLL+9K5GMUgEQ2iyGqFjnQ0iGacEbgLNw8Ng32AZ+qxTpEQPP7lKUF/U105cpzrPciwGdQ1AgHOpaJpt51dDbI5f+bY1Vg6DFArkvUAjcsTr/5/cDhZkJ4UfxJr6DLL5+a/P5vFABuVPMYDkTJAawIjGuiw+FO+Duwdp8MZSA/EEZZRvJwrQBJl9Fauqa7w+pNHnmGojg5gBWBr6K870AJOMhWBKTQl28mptbCXvRyXeDCF/W8tKmRruuYVDv93ygA3HjmMRzQxIHmuWJrnPc9Ex4FTx1uHgWxzL8ag95dQtCvXl1HD1EHamkewwGFA9OXim1S6+l0CJozEP0JWxngdC9hWo14P2XKOhXDrkY97s5YdGOmkZZD8MOTb209RgGorfYy1NYoB9iZ0Dvv0+E4AncCO//AmkBTLVaF3fZiEF8G+m/uX0N3rOqw1tRiPQzN8XKg4znR0NtDh4k0nWhl6UvoPw1alACuVrGQ5v46dCtChZGsUOPcwhxno6dlVopu6Rd0exIN+2R1/LyNAuCHSwbGcCBCDmy7QGy4/mMYDabpBBjKTYwQtT5UOL+P4e9+XI10c/cM6w19BRnMw50DrQ+KjVJZOgbS9OvYLz+wUF83oSsTvdL8xDOOcnDl0okeAY6F0CRurqbnPsmOqN5GAYiKkwaP4UAFHBjXJbZM5WgqZhR7QsDuh7nKDhWgiT5LjnpgzHh32qKH1q2lh8xMP3oWG4xEMxeJLXBM7kvYRtod/JiI2fq2hRk7M6i8YC4P4weHWhbDE70J5fzOXIoWZ4kervWZPlfP7TEKgBtXTJzhQJU4gJMEY3CWYB8MfHtjhWAfDEKsEOg+UbACg/BLGAxehtHi/2Bpc8lrM60XqsQCU2wdc2DaIrFxg0X7YKa9B/rkvvgdTAA7wp0oYH6WUgIE9cBO52X81l6G8vE/WJV4KCme+nR3BaMA6OawwW84EJIDW3aIUSNG0Q4wsZuAGckEzE+2wwDZDGE9CgPXKKBvwkmDURjkRmEA25CLy2XpPYTfw6D2PlYX3kOe9zGgsjey9/CjX4lZzSv4fmVlu/VSSPJMdsMBrRzgGwmhFGyHPv1p9Pft0KcnYKVsLPr0aPTnJvT7DfBuBBHc//PuiXHLHuLfRNxH+P8u4D8A/P8h//vo//+CLcK/Un30r7mH1bei+/+y5lvsjNNa3wAAAABJRU5ErkJggg==;" parent="1" vertex="1">
          <mxGeometry x="24" y="600" width="60" height="60" as="geometry" />
        </mxCell>
        <mxCell id="GVP9QbDABz_EydaPx-wG-3" value="Github Action" style="text;html=1;strokeColor=none;fillColor=none;align=center;verticalAlign=middle;whiteSpace=wrap;rounded=0;" parent="1" vertex="1">
          <mxGeometry x="22" y="671" width="60" height="30" as="geometry" />
        </mxCell>
        <mxCell id="GVP9QbDABz_EydaPx-wG-4" value="Github" style="text;html=1;strokeColor=none;fillColor=none;align=center;verticalAlign=middle;whiteSpace=wrap;rounded=0;" parent="1" vertex="1">
          <mxGeometry x="-108" y="670" width="60" height="30" as="geometry" />
        </mxCell>
        <mxCell id="GVP9QbDABz_EydaPx-wG-5" value="" style="shape=image;verticalLabelPosition=bottom;labelBackgroundColor=default;verticalAlign=top;imageAspect=0;image=https://blog.kakaocdn.net/dn/wxaXA/btq169CobXY/47wTlykkcRkZr5gPIwaUeK/img.png;" parent="1" vertex="1">
          <mxGeometry x="152" y="600" width="60" height="60" as="geometry" />
        </mxCell>
        <mxCell id="GVP9QbDABz_EydaPx-wG-6" value="Docker Hub" style="text;html=1;strokeColor=none;fillColor=none;align=center;verticalAlign=middle;whiteSpace=wrap;rounded=0;" parent="1" vertex="1">
          <mxGeometry x="152" y="670" width="60" height="30" as="geometry" />
        </mxCell>
        <mxCell id="GVP9QbDABz_EydaPx-wG-7" value="" style="endArrow=classic;html=1;rounded=0;entryX=1;entryY=0.5;entryDx=0;entryDy=0;" parent="1" target="GVP9QbDABz_EydaPx-wG-5" edge="1">
          <mxGeometry width="50" height="50" relative="1" as="geometry">
            <mxPoint x="470" y="280" as="sourcePoint" />
            <mxPoint x="280" y="630" as="targetPoint" />
            <Array as="points">
              <mxPoint x="479" y="280" />
              <mxPoint x="479" y="310" />
              <mxPoint x="479" y="630" />
            </Array>
          </mxGeometry>
        </mxCell>
        <mxCell id="GVP9QbDABz_EydaPx-wG-8" value="" style="endArrow=classic;html=1;rounded=0;exitX=1;exitY=0.5;exitDx=0;exitDy=0;entryX=0;entryY=0.5;entryDx=0;entryDy=0;" parent="1" source="GVP9QbDABz_EydaPx-wG-1" target="GVP9QbDABz_EydaPx-wG-2" edge="1">
          <mxGeometry width="50" height="50" relative="1" as="geometry">
            <mxPoint x="182" y="480" as="sourcePoint" />
            <mxPoint x="-8" y="620" as="targetPoint" />
          </mxGeometry>
        </mxCell>
        <mxCell id="GVP9QbDABz_EydaPx-wG-9" value="" style="endArrow=classic;html=1;rounded=0;exitX=1;exitY=0.5;exitDx=0;exitDy=0;entryX=0;entryY=0.5;entryDx=0;entryDy=0;" parent="1" source="GVP9QbDABz_EydaPx-wG-2" target="GVP9QbDABz_EydaPx-wG-5" edge="1">
          <mxGeometry width="50" height="50" relative="1" as="geometry">
            <mxPoint x="-28" y="640" as="sourcePoint" />
            <mxPoint x="32" y="640" as="targetPoint" />
          </mxGeometry>
        </mxCell>
        <mxCell id="GVP9QbDABz_EydaPx-wG-10" value="" style="endArrow=classic;html=1;rounded=0;exitX=0.5;exitY=0;exitDx=0;exitDy=0;entryX=0.5;entryY=1;entryDx=0;entryDy=0;" parent="1" source="GVP9QbDABz_EydaPx-wG-2" target="8iS7MaMsT-CNt3AWwnaZ-4" edge="1">
          <mxGeometry width="50" height="50" relative="1" as="geometry">
            <mxPoint x="260" y="460" as="sourcePoint" />
            <mxPoint x="160" y="340" as="targetPoint" />
          </mxGeometry>
        </mxCell>
        <mxCell id="GVP9QbDABz_EydaPx-wG-11" value="" style="endArrow=classic;html=1;rounded=0;exitX=1;exitY=0.5;exitDx=0;exitDy=0;entryX=0;entryY=0.5;entryDx=0;entryDy=0;" parent="1" source="JpnnjNjHdhXgqlGtXmuh-1" target="8iS7MaMsT-CNt3AWwnaZ-1" edge="1">
          <mxGeometry width="50" height="50" relative="1" as="geometry">
            <mxPoint x="260" y="300" as="sourcePoint" />
            <mxPoint x="-70" y="277" as="targetPoint" />
          </mxGeometry>
        </mxCell>
        <mxCell id="GVP9QbDABz_EydaPx-wG-13" value="" style="endArrow=classic;html=1;rounded=0;exitX=1;exitY=0.5;exitDx=0;exitDy=0;entryX=0;entryY=0.5;entryDx=0;entryDy=0;" parent="1" target="-7JgLJPoPTuOQpoYZAjR-2" edge="1">
          <mxGeometry width="50" height="50" relative="1" as="geometry">
            <mxPoint x="-10" y="277" as="sourcePoint" />
            <mxPoint x="-60" y="287" as="targetPoint" />
          </mxGeometry>
        </mxCell>
        <mxCell id="GVP9QbDABz_EydaPx-wG-14" value="" style="endArrow=classic;html=1;rounded=0;exitX=1;exitY=0.5;exitDx=0;exitDy=0;entryX=0;entryY=0.5;entryDx=0;entryDy=0;" parent="1" target="xBQugEfMSPbkRrjmkdOH-1" edge="1">
          <mxGeometry width="50" height="50" relative="1" as="geometry">
            <mxPoint x="90" y="277" as="sourcePoint" />
            <mxPoint x="40" y="287" as="targetPoint" />
          </mxGeometry>
        </mxCell>
        <mxCell id="GVP9QbDABz_EydaPx-wG-15" value="" style="endArrow=classic;html=1;rounded=0;exitX=1;exitY=0.5;exitDx=0;exitDy=0;entryX=0;entryY=0.5;entryDx=0;entryDy=0;" parent="1" source="8iS7MaMsT-CNt3AWwnaZ-1" target="GYx54OD_Bqpt31ngXkpA-1" edge="1">
          <mxGeometry width="50" height="50" relative="1" as="geometry">
            <mxPoint x="190" y="277" as="sourcePoint" />
            <mxPoint x="140" y="287" as="targetPoint" />
          </mxGeometry>
        </mxCell>
        <mxCell id="8iS7MaMsT-CNt3AWwnaZ-1" value="" style="shape=image;verticalLabelPosition=bottom;labelBackgroundColor=default;verticalAlign=top;imageAspect=0;image=https://seeklogo.com/images/A/aws-amplify-logo-D68DDB5AB1-seeklogo.com.png;" vertex="1" parent="1">
          <mxGeometry x="29" y="247" width="60" height="60" as="geometry" />
        </mxCell>
        <mxCell id="8iS7MaMsT-CNt3AWwnaZ-4" value="AWS Amplify" style="text;html=1;strokeColor=none;fillColor=none;align=center;verticalAlign=middle;whiteSpace=wrap;rounded=0;" vertex="1" parent="1">
          <mxGeometry x="26" y="315" width="60" height="30" as="geometry" />
        </mxCell>
      </root>
    </mxGraphModel>
  </diagram>
</mxfile>
